<?xml version="1.0" encoding="UTF-8" standalone="no"?>
<!-- Generator: Adobe Illustrator 24.0.1, SVG Export Plug-In . SVG Version: 6.00 Build 0)  -->

<svg version="1.1" id="Camada_1" x="0px" y="0px" viewBox="150 300 756.34003 697.89356" xml:space="preserve"
   sodipodi:docname="logo_vertical.svg" width="756.34003" height="697.89355"
   inkscape:version="1.2 (dc2aedaf03, 2022-05-15)" xmlns:inkscape="http://www.inkscape.org/namespaces/inkscape"
   xmlns:sodipodi="http://sodipodi.sourceforge.net/DTD/sodipodi-0.dtd" xmlns="http://www.w3.org/2000/svg"
   xmlns:svg="http://www.w3.org/2000/svg">
   <defs id="defs1202" />
   <sodipodi:namedview id="namedview1200" pagecolor="#ffffff" bordercolor="#999999" borderopacity="1"
      inkscape:showpageshadow="0" inkscape:pageopacity="0" inkscape:pagecheckerboard="0" inkscape:deskcolor="#d1d1d1"
      showgrid="false" inkscape:zoom="0.60214286" inkscape:cx="328.82562" inkscape:cy="457.53262"
      inkscape:window-width="1920" inkscape:window-height="1001" inkscape:window-x="-9" inkscape:window-y="1341"
      inkscape:window-maximized="1" inkscape:current-layer="g1197" />
   <g id="g1197" transform="translate(-11.83,275.48355)" class="logo-vertical">
      
      <path class="logo"
         d="m 773.53485,560.13954 c 5.63648,-3.07692 9.58474,-7.7876 12.68889,-12.98841 3.13138,-5.20081 4.71068,-11.4908 4.52008,-17.53572 -0.0272,-3.07692 -0.68074,-6.15384 -1.47039,-8.93124 -0.76242,-2.85908 -1.74268,-5.66371 -2.94077,-8.38664 -0.57182,-1.36147 -1.22532,-2.69571 -1.8516,-3.97549 -0.51736,-1.17087 -0.95303,-2.3145 -1.14363,-3.53982 -0.40844,-2.39619 0.10891,-4.92852 1.06194,-7.48808 1.93329,-5.09189 4.79237,-10.37439 6.37168,-16.06533 1.66099,-5.69094 2.31449,-11.65418 2.06943,-17.56295 -0.21784,-5.93601 -1.63376,-11.62695 -2.45065,-17.15451 -0.84411,-5.55479 -0.78965,-11.10959 0.19061,-16.63715 0.49013,-2.72294 1.03472,-5.60925 1.87883,-8.14158 0.40844,-1.33424 1.06194,-2.50511 1.60653,-3.75766 0.68074,-1.17086 1.33424,-2.36895 2.17835,-3.40367 1.60653,-2.17835 3.7032,-3.94826 5.93601,-5.55479 2.28726,-1.55208 4.76514,-2.83186 7.3247,-4.08441 2.55956,-1.25255 5.22804,-2.42341 7.73314,-4.11164 2.5051,-1.63376 4.87406,-4.27501 5.39142,-7.5153 0.54459,-3.18584 -0.32675,-6.39891 -1.87883,-9.01293 -1.63376,-2.55956 -3.62151,-4.76514 -5.77263,-6.75288 -4.24778,-3.97549 -8.87677,-7.40639 -13.34239,-10.97344 -9.01293,-7.05241 -17.64464,-14.54049 -24.94211,-23.30835 -3.67597,-4.32947 -6.94349,-9.01292 -9.55751,-14.05036 -1.30701,-2.53233 -2.42342,-5.11912 -3.37645,-7.81483 -1.00748,-2.66848 -1.93328,-5.36419 -2.80462,-8.08713 -3.51259,-10.86452 -5.52757,-22.16471 -7.46085,-33.4649 -3.7032,-22.60038 -10.23825,-44.92847 -21.02108,-65.18713 10.565,20.36757 16.82775,42.72289 20.25866,65.32328 1.79713,11.30019 3.67596,22.68207 7.10686,33.68274 0.84411,2.75016 1.74268,5.4731 2.72294,8.16881 0.89857,2.72294 2.0422,5.41865 3.34921,8.00544 2.61402,5.17358 5.88155,9.99318 9.55752,14.43157 7.27024,8.98569 15.98364,16.66438 24.91488,23.8257 4.43838,3.62151 9.01292,7.10687 13.0701,11.00067 2.0422,1.93329 3.8938,4.02995 5.30973,6.31722 1.33424,2.31449 1.96051,4.90128 1.49761,7.43362 -0.43567,2.5051 -2.20558,4.46561 -4.46562,5.936 -2.26003,1.49762 -4.87405,2.61402 -7.46085,3.83934 -2.61402,1.22533 -5.22804,2.53234 -7.70591,4.19333 -2.42341,1.71545 -4.76514,3.64873 -6.61674,6.07215 -0.95303,1.17086 -1.71545,2.5051 -2.47787,3.78488 -0.59905,1.3887 -1.33424,2.72294 -1.79714,4.13887 -0.98026,2.88631 -1.52485,5.66371 -2.06943,8.55002 -1.08918,5.7454 -1.1981,11.79032 -0.38121,17.56295 0.78965,5.79986 2.09666,11.30019 2.2328,16.85499 0.19061,5.55479 -0.49012,11.10958 -2.09666,16.41931 -1.55207,5.36419 -4.27501,10.21102 -6.48059,15.79304 -1.06195,2.7774 -1.8516,6.04492 -1.36147,9.33968 0.21784,1.63376 0.78965,3.18583 1.41593,4.62899 0.62628,1.30701 1.19809,2.55956 1.74268,3.83934 1.06195,2.55956 1.96051,5.17358 2.64125,7.86929 0.70796,2.72294 1.22532,5.30973 1.22532,7.97821 0.0817,5.41865 -1.30701,10.64669 -4.13886,15.27568 -2.7774,4.54731 -6.58951,8.87678 -11.10959,11.19127 -4.65622,2.47788 -10.12933,3.56705 -15.62966,4.05718 -5.52757,0.49013 -11.13682,0.35398 -16.71884,-0.16337 -5.47311,-0.51736 -11.16405,-1.76991 -16.80053,-2.66848 -11.27296,-1.93329 -22.57315,-3.8938 -33.76443,-6.09938 -11.19127,-2.17835 -22.30086,-4.71069 -33.19261,-7.86929 -5.41864,-1.60654 -10.81006,-3.40368 -16.11979,-5.33696 -5.30973,-2.01498 -10.48331,-4.1661 -15.79304,-6.42614 -10.51054,-4.52007 -21.26614,-8.63171 -30.60582,-14.37711 -4.65622,-2.91354 -8.76786,-6.34444 -12.30768,-10.51054 -3.6215,-4.13886 -6.8618,-8.7134 -9.91149,-13.42408 -6.15384,-9.47582 -11.30019,-19.7413 -18.46152,-29.29881 -1.79714,-2.36896 -3.83934,-4.65622 -6.09938,-6.78011 -1.25255,-0.98026 -2.3145,-2.09667 -3.73042,-2.91355 l -2.01498,-1.30701 -1.96051,-1.06194 c -5.2825,-2.72294 -10.72838,-4.95575 -16.3104,-6.80735 -2.72294,-0.89857 -5.71817,-1.82437 -8.46834,-2.39618 -2.77739,-0.62628 -5.33695,-1.41593 -7.92374,-2.36896 -5.14636,-1.87883 -10.07487,-4.3567 -14.62218,-7.40639 -9.06738,-6.04492 -16.36486,-14.73109 -21.7835,-24.28861 -5.30973,-9.53028 -8.41388,-20.44926 -6.91626,-31.09594 0.57181,-5.39142 2.06943,-10.67392 4.52007,-15.30291 2.45065,-4.629 6.09938,-8.44111 10.565,-10.81007 8.9857,-4.71068 20.88493,-2.58679 29.21712,3.51259 4.08441,3.13138 7.27025,7.27025 8.9857,12.17153 1.76991,4.87406 2.28727,10.29271 1.98774,15.68413 -0.13614,2.20558 -0.40844,4.43838 -0.78965,6.64396 -3.73042,2.45065 -7.597,4.87406 -11.27296,8.30496 -1.14364,1.14364 -2.3145,2.39619 -3.21307,4.05718 -0.87134,1.63376 -1.60653,3.73043 -1.36147,5.88155 0.16338,2.09666 0.84411,3.73042 1.82437,5.39141 0.51736,0.81688 1.11641,1.63377 2.01498,2.39619 0.87134,0.73519 2.2328,1.55207 3.97548,1.49761 1.76991,-0.0272 2.94078,-0.81688 3.81212,-1.47038 0.87134,-0.68074 1.47038,-1.3887 2.01497,-2.09666 1.06195,-1.3887 1.82437,-2.7774 2.53233,-4.1661 1.36147,-2.7774 2.45065,-5.55479 3.34922,-8.44111 0.76242,-2.5051 1.41592,-5.03743 1.93328,-7.62422 0.32675,-0.21784 0.62628,-0.40844 0.95303,-0.62628 4.87406,-3.26752 9.44859,-6.80734 13.9959,-10.51054 4.49285,-3.73042 8.82232,-7.76037 12.68889,-12.36213 3.83934,-4.57454 7.29747,-9.82981 8.90401,-16.14703 0.81688,-3.13137 0.9258,-6.56228 0.29952,-9.80257 -0.62628,-3.26753 -1.93329,-6.28999 -3.56705,-8.95847 -3.29475,-5.36418 -7.59699,-9.55751 -11.76309,-13.56023 -4.22055,-3.97549 -8.46834,-7.76037 -12.47105,-11.73586 -3.89381,-3.86657 -7.56977,-7.97821 -10.59223,-12.41659 1.03471,0.59904 2.06943,1.19809 3.13138,1.76991 20.80324,11.02789 45.17353,15.62966 68.5908,11.24573 11.65417,-2.20558 22.98159,-7.02518 32.43019,-14.37711 9.50305,-7.29748 17.07282,-16.74607 22.87267,-26.98432 0.21784,-0.38121 0.40844,-0.73519 0.59905,-1.1164 9.91149,-1.63376 19.7413,-5.01021 28.12795,-11.27296 9.85703,-7.597 15.8475,-18.65213 19.57792,-29.81617 3.7032,-11.27296 5.36419,-23.06328 5.2825,-34.82638 0,-11.76309 -1.71545,-23.49895 -5.14635,-34.77191 -3.48536,-11.24573 -8.76786,-22.11026 -16.39209,-31.34101 -3.83934,-4.57454 -8.2505,-8.74063 -13.15179,-12.19877 -3.8938,-2.72293 -8.14158,-4.95574 -12.52551,-6.75288 -0.95303,-2.23281 -1.90606,-4.46562 -2.968,-6.64397 -5.11913,-10.48331 -11.13682,-20.55818 -18.46152,-29.76171 -7.43362,-9.06738 -16.14702,-17.4268 -27.066,-22.92713 -10.70115,-5.03744 -22.02857,-8.49557 -33.76443,-10.02042 -5.85432,-0.78965 -11.81755,-1.03471 -17.78078,-0.51735 -2.99524,0.10891 -5.93601,0.73519 -8.87678,1.17086 -2.88632,0.76242 -5.85432,1.30701 -8.65894,2.42341 -0.10892,0.0272 -0.24507,0.0817 -0.35399,0.13615 -10.67391,-6.75288 -22.54592,-11.59971 -34.96252,-14.02313 -11.59971,-2.3145 -23.58064,-2.53233 -35.23481,-0.87134 -5.82709,0.84411 -11.59972,2.12389 -17.2362,3.94826 -5.60925,1.8516 -10.97344,3.81211 -16.39208,6.26276 -10.70115,4.87406 -20.85771,11.70863 -28.59085,20.91216 -3.62151,4.22055 -6.58951,8.93124 -9.09461,13.88698 -4.27501,2.01498 -8.38665,4.3567 -12.22599,7.16133 -1.25255,0.81688 -2.36896,1.82437 -3.56705,2.72294 -1.19809,0.89857 -2.3145,1.90605 -3.40367,2.968 -2.28727,2.12389 -4.08441,3.94826 -6.23553,6.04492 -4.30224,4.05718 -8.08712,9.23076 -10.7556,14.51326 -5.41865,10.61946 -8.90401,21.67458 -12.22599,32.72971 -1.60654,5.52756 -3.10415,11.10959 -4.57454,16.66438 -1.3887,5.44588 -3.13138,10.7556 -5.2825,15.92919 -4.24778,10.34716 -10.04764,20.01359 -17.26342,28.56361 -7.18856,8.57726 -15.79304,15.90196 -25.07826,22.35532 -4.629,3.2403 -9.4486,6.26276 -14.32265,9.28522 -4.84683,3.04969 -9.80258,6.01769 -14.51326,9.74812 -2.3145,1.90605 -4.60177,4.02994 -6.34445,6.83457 -1.79714,2.75017 -2.61402,6.48059 -1.87882,9.77535 0.54458,3.37644 2.58679,6.37167 4.84683,8.49556 2.26003,2.17835 4.73791,3.81212 7.07963,5.44588 2.34173,1.60653 4.60177,3.24029 6.64397,5.0102 2.01498,1.79714 3.73043,3.83935 5.11912,6.07215 2.53234,4.57454 3.81212,10.02042 2.53234,15.11231 -1.22533,5.14635 -3.92103,10.53777 -5.22804,16.3104 -1.41593,5.7454 -1.8516,11.6814 -1.68823,17.53572 0.0817,5.85431 1.30701,11.84477 3.26753,17.29065 0.9258,2.72294 1.82437,5.30973 2.15112,7.97821 0.32675,2.66848 0.24507,5.39141 -0.1906,8.14158 -0.78966,5.52757 -2.5868,10.78284 -5.17359,15.79304 -1.25255,2.53233 -2.61402,5.14635 -3.64873,7.95098 -1.03472,2.7774 -1.71545,5.71817 -2.04221,8.65894 -0.78965,5.90878 0.32676,12.06262 2.80463,17.4268 2.45064,5.36419 6.28999,10.29271 11.40911,13.42409 5.06466,3.24029 11.00067,4.5473 16.7733,5.17358 5.79985,0.54459 11.59971,0.35398 17.31788,0.13614 11.46357,-0.40844 22.89991,-0.84411 34.33624,-1.06194 11.43634,-0.21784 22.89991,-0.29952 34.25456,0.78965 5.66371,0.59905 11.32742,1.52485 16.60992,3.56705 5.25527,2.01497 10.02041,5.4731 13.0701,10.26547 2.99523,4.79238 4.65623,10.3744 5.39142,16.01088 0.76242,5.66371 0.70796,11.40911 0.32675,17.10005 -0.81688,11.40911 -3.04969,22.7093 -5.85431,33.79166 2.94077,-11.05513 5.30972,-22.32809 6.23552,-33.76443 0.43567,-5.71817 0.57182,-11.4908 -0.13614,-17.20897 -0.70797,-5.69094 -2.28727,-11.38188 -5.33696,-16.36486 -3.07692,-4.98297 -8.00544,-8.60448 -13.36963,-10.7556 -5.39141,-2.17835 -11.13681,-3.15861 -16.85498,-3.81211 -11.43634,-1.25255 -22.95437,-1.27978 -34.41793,-1.19809 -11.46357,0.10891 -22.92714,0.40844 -34.39071,0.68073 -5.71817,0.16338 -11.43634,0.27229 -17.04559,-0.32675 -5.55479,-0.65351 -11.13681,-1.98775 -15.73858,-5.01021 -4.65622,-2.91354 -8.11435,-7.46085 -10.37439,-12.49828 -2.26004,-5.06467 -3.21307,-10.61946 -2.39619,-16.09256 0.59905,-5.5548 2.85909,-10.53777 5.60926,-15.62967 2.72293,-5.11912 4.79237,-10.81006 5.66371,-16.63715 0.49012,-2.91354 0.6535,-5.96323 0.29952,-8.98569 -0.32675,-3.04969 -1.30701,-5.90878 -2.17835,-8.63171 -1.8516,-5.36419 -2.88632,-10.72838 -2.91354,-16.36486 -0.0817,-5.58202 0.38121,-11.19127 1.76991,-16.55546 1.27978,-5.41865 3.8938,-10.3744 5.44587,-16.33763 0.73519,-2.99523 0.84411,-6.23553 0.29952,-9.28522 -0.49012,-3.04969 -1.66099,-5.96323 -3.10415,-8.7134 -1.60653,-2.66848 -3.59427,-5.06466 -5.82708,-7.10686 -2.26004,-2.01498 -4.65623,-3.75766 -6.99795,-5.41865 -4.65623,-3.2403 -9.33968,-6.56228 -9.99318,-11.2185 -1.06195,-4.68346 2.47787,-8.90401 6.75288,-12.25322 4.32947,-3.37645 9.25799,-6.26276 14.13205,-9.25799 4.90129,-2.96801 9.8298,-5.99047 14.62217,-9.25799 9.58475,-6.50782 18.67936,-14.05036 26.33081,-22.9816 7.70592,-8.87677 13.91421,-19.0061 18.51598,-29.81616 2.28727,-5.39142 4.19332,-10.97344 5.71817,-16.60992 1.52484,-5.50034 3.04969,-11.00067 4.71068,-16.44655 3.29476,-10.86452 6.80735,-21.75627 11.84478,-31.55885 2.53233,-4.92851 5.63648,-9.12184 9.61197,-12.98841 1.96052,-1.90606 4.1661,-4.1661 6.09938,-5.936 0.98026,-0.95303 1.98775,-1.8516 3.07692,-2.69571 1.08918,-0.84411 2.09666,-1.76991 3.2403,-2.50511 1.5793,-1.14363 3.21306,-2.20558 4.90128,-3.21306 -1.03471,2.99523 -1.93328,6.04492 -2.47787,9.1763 -1.74268,8.38665 -2.12389,17.04559 -1.27978,25.56838 -0.49013,0.78966 -1.00749,1.57931 -1.47039,2.39619 -2.91354,5.30973 -5.0102,11.00067 -6.31721,16.85498 -1.27978,5.85432 -1.90606,11.9537 -1.25255,18.02585 0.98025,12.22599 6.75288,23.55341 14.40434,32.6208 7.73314,9.12184 17.18174,16.39208 27.50167,22.16471 5.36419,2.75017 10.83729,5.0102 16.58269,6.56228 5.69094,1.63376 11.51803,2.75017 17.37234,3.34921 10.29271,1.17087 20.69433,0.81688 30.90535,-0.54459 -2.47788,9.04016 -3.64874,18.57044 -2.61402,28.07349 1.25255,12.03539 6.61674,23.4445 14.07758,32.70249 3.92104,4.87405 8.41388,9.1763 13.28794,13.01564 3.83934,9.42136 10.37439,17.4268 17.26343,24.26137 4.13886,4.11164 8.46833,7.95098 12.57997,11.81755 4.05718,3.8938 8.03267,7.84206 10.72837,12.28045 2.75017,4.41116 3.81212,9.28522 2.53234,14.10482 -1.22533,4.8196 -4.13887,9.47582 -7.65146,13.64192 -6.09938,7.21578 -13.77806,13.42408 -21.67458,19.08779 0.0544,-0.54459 0.10891,-1.06194 0.16337,-1.60653 0.32675,-6.01769 -0.21783,-12.22599 -2.34172,-18.162 -2.06944,-5.936 -6.09938,-11.24573 -11.13682,-15.05784 -5.06466,-3.7032 -10.97344,-6.07215 -17.18174,-6.94349 -6.18107,-0.87134 -12.82503,-0.0545 -18.5432,2.94077 -5.69094,2.99523 -10.26548,7.86929 -13.15179,13.36962 -2.91355,5.50034 -4.57454,11.46357 -5.22804,17.45404 -1.71545,12.22599 1.85159,24.53366 7.65145,34.8536 2.91355,5.20081 6.37168,10.07487 10.29271,14.51326 3.86657,4.49284 8.49556,8.55002 13.42408,11.87201 4.98298,3.34921 10.34716,6.04492 15.95642,8.08712 2.77739,1.00749 5.71816,1.90606 8.52279,2.53233 2.85909,0.59905 5.33696,1.3887 8.0599,2.28727 5.30973,1.76991 10.48331,3.86657 15.38459,6.42613 l 1.82437,0.98026 1.57931,1.03472 c 1.08917,0.59904 2.01497,1.60653 3.02246,2.36895 1.90605,1.79714 3.70319,3.81212 5.36419,5.99047 6.64396,8.79509 11.81755,19.11502 18.10753,28.89037 3.13138,4.90128 6.53505,9.72088 10.42885,14.21373 3.83935,4.57454 8.63172,8.60448 13.72361,11.70863 10.23825,6.23553 21.04831,10.26548 31.55885,14.75833 10.51054,4.5473 21.53844,8.57725 32.67525,11.70863 11.16405,3.10415 22.46424,5.52756 33.76443,7.59699 11.30019,2.09667 22.62761,3.92103 33.95503,5.7454 l 8.49557,1.36147 c 2.7774,0.4629 5.77263,0.9258 8.68617,1.14364 5.82709,0.49012 11.70863,0.57181 17.61741,-0.0272 5.936,-0.4629 11.92646,-1.661 17.39957,-4.629 z M 621.15925,290.86823 c -8.65894,6.75288 -19.0061,11.16404 -29.87062,13.20625 -21.75628,4.0844 -44.92848,-0.24507 -64.5064,-10.64669 -4.19332,-2.26004 -8.19604,-4.8196 -11.98093,-7.67869 -0.40844,-1.1164 -0.78965,-2.26003 -1.08917,-3.40367 -1.47039,-5.14635 -1.96052,-10.59223 -1.60653,-16.01087 0.35398,-5.39142 1.44315,-10.78284 3.81211,-15.24845 2.34173,-4.49285 6.23553,-7.54254 10.97344,-7.92375 4.79237,-0.38121 10.1021,1.30701 15.22122,3.34921 5.17358,2.09666 10.2927,4.60177 15.5752,6.97072 5.2825,2.36896 10.75561,4.54731 16.28317,6.37168 11.08236,3.64873 22.43701,6.31721 34.00949,7.86929 10.78284,1.41592 21.78351,1.87882 32.72972,0.89857 -5.20082,8.49556 -11.70864,16.22871 -19.5507,22.2464 z m 41.9877,-172.36196 c 4.43839,3.13138 8.44111,6.88903 11.9537,11.08235 6.99795,8.44111 11.9537,18.59767 15.24845,29.1899 3.21307,10.64668 4.87406,21.81073 4.87406,32.97477 0.0817,11.16405 -1.52485,22.35532 -4.95575,32.83863 -3.45813,10.40162 -9.04015,20.39481 -17.50849,26.8754 -6.01769,4.52007 -13.20624,7.43362 -20.77601,9.1763 3.67596,-7.89652 6.48059,-16.11979 8.84955,-24.39752 3.10415,-11.27297 5.36418,-22.43701 7.02518,-34.06396 0.57181,-2.85908 0.54458,-5.79985 0.84411,-8.7134 0.16337,-2.91354 0.51735,-5.82708 0.54458,-8.74063 -0.10891,-5.82708 0.21784,-11.6814 -0.4629,-17.48126 l -0.70796,-8.7134 -1.30701,-8.63171 -0.68073,-4.30224 -0.95303,-4.27501 -1.93329,-8.5228 c -1.68822,-5.99046 -3.56705,-11.92647 -5.69094,-17.75355 1.90606,1.08917 3.81211,2.20558 5.63648,3.45813 z M 546.46907,44.08838 c 2.72294,-0.38121 5.39142,-0.95303 8.14158,-1.06195 5.47311,-0.49013 11.0279,-0.24506 16.50101,0.49013 10.97344,1.41593 21.86519,4.73791 31.85837,9.4486 9.6392,4.84682 17.91693,12.63443 24.94211,21.23891 6.97072,8.74063 12.74335,18.43429 17.67186,28.53639 0.19061,0.40844 0.38122,0.84411 0.57182,1.25255 -10.1021,-2.69571 -20.72155,-2.75017 -30.87811,-1.5793 -10.72838,1.25255 -21.07554,4.13886 -31.06872,7.84206 -1.25255,-6.09938 -3.13138,-12.03539 -5.39142,-17.75356 -4.46562,-10.89175 -10.37439,-21.18445 -17.94416,-30.27907 -5.33696,-6.45336 -11.46357,-12.22599 -18.18922,-17.20896 1.25255,-0.32676 2.53233,-0.59905 3.78488,-0.9258 z m 33.32876,82.99514 c 0.0272,8.03267 -1.63376,15.98365 -4.71068,23.39004 -5.44588,1.06194 -10.94621,1.68822 -16.44655,1.60653 -8.35942,-0.0272 -16.501,-2.0422 -24.34306,-5.17358 5.90877,-5.50034 12.30768,-10.48331 19.14225,-14.84001 2.34173,-1.55208 4.79237,-2.88632 7.21579,-4.30224 2.5051,-1.27978 4.90128,-2.61402 7.48807,-3.83935 3.7032,-1.79714 7.46085,-3.45813 11.21851,-5.06466 0.32675,2.72294 0.4629,5.4731 0.43567,8.22327 z m -0.35398,28.75422 c 4.68345,-1.06194 9.28521,-2.36895 13.77806,-3.81211 5.52757,-1.74268 10.91898,-3.64874 16.28317,-5.22804 5.33696,-1.52484 10.81006,-2.80463 15.5752,-2.09666 2.36896,0.38121 4.52008,1.17086 6.2083,2.80462 0.98026,0.59905 1.63376,1.74268 2.47787,2.55957 0.65351,1.03471 1.3887,2.06943 1.96052,3.21306 2.28727,4.60177 3.4309,9.96595 3.75765,15.35737 0.68074,10.81006 -1.71545,22.00134 -6.94349,31.39547 -5.11912,9.50306 -13.88698,16.55547 -24.098,20.34035 -5.09189,1.93328 -10.45608,3.21307 -15.90195,3.86657 -5.47311,0.68074 -10.89175,0.62628 -16.09257,-0.49013 -10.42885,-2.34172 -20.14973,-8.46833 -29.35326,-14.89447 -4.1661,-2.968 -8.25051,-6.04492 -12.28045,-9.23076 6.37167,-3.45813 12.49828,-7.35193 18.27091,-11.81755 9.23076,-7.27024 17.48126,-16.06533 23.47172,-26.41249 1.03472,-1.79714 1.98775,-3.64874 2.88632,-5.5548 z m -8.22328,2.47788 c -5.50033,9.50305 -13.20624,17.75355 -21.94687,24.64258 -6.12661,4.76515 -12.74335,8.90401 -19.65961,12.47106 -3.10415,-2.53233 -6.15384,-5.09189 -9.1763,-7.73314 -3.73043,-3.21307 -7.43362,-6.50783 -11.10959,-9.80258 5.69094,-9.53028 12.49828,-18.40706 20.23143,-26.33081 3.64873,1.57931 7.37916,2.968 11.24573,4.08441 5.77263,1.63376 11.76309,2.53233 17.75355,2.58679 4.46562,0.0545 8.84955,-0.29952 13.20625,-0.95303 -0.1906,0.35398 -0.35398,0.70796 -0.54459,1.03472 z m -54.83996,34.06395 c 2.34172,2.0422 4.68345,4.02995 7.07964,6.01769 -9.39414,4.24778 -19.2784,7.46085 -29.3805,9.58474 3.21306,-8.49556 7.46085,-16.63715 12.06261,-24.66981 3.37644,3.04969 6.78012,6.07215 10.23825,9.06738 z m 10.64668,-48.74059 c -9.88426,-4.92851 -19.11502,-11.57248 -25.15994,-20.47649 -3.02246,-4.41116 -5.11912,-9.3669 -6.15384,-14.54049 -1.00749,-5.20081 -0.87134,-10.59222 0.27229,-15.82026 2.28727,-10.53777 8.27773,-20.2042 15.68413,-28.29133 3.73042,-4.05718 7.89652,-7.73314 12.36213,-10.89175 3.62151,-2.34173 7.37916,-4.54731 11.40911,-6.15384 7.73315,5.22804 14.7311,11.51803 20.69433,18.73381 7.10687,8.5228 12.74335,18.32537 16.9639,28.61808 2.28727,5.7454 4.11164,11.70863 5.2825,17.78078 -4.38393,1.79714 -8.7134,3.73043 -12.93395,5.77263 -2.58679,1.22532 -5.20081,2.66848 -7.78761,4.00272 -2.5051,1.49761 -5.09189,2.88631 -7.54253,4.52008 -7.89652,5.0102 -15.22123,10.86452 -21.91965,17.31788 -0.38121,-0.19061 -0.78965,-0.38121 -1.17087,-0.57182 z M 408.52504,60.77999 c 7.05241,-8.35942 16.33763,-14.70387 26.43973,-19.30563 5.03743,-2.28727 10.42885,-4.24778 15.71135,-5.99046 5.2825,-1.68823 10.72837,-2.91355 16.22871,-3.7032 11.00067,-1.5793 22.27363,-1.36147 33.16538,0.81688 10.21102,2.01498 20.06805,5.77263 29.08098,10.91898 -2.96801,1.49762 -5.85432,3.18584 -8.63172,5.01021 -4.90128,3.4309 -9.3669,7.40639 -13.39685,11.76309 -7.97821,8.74063 -14.54049,19.19671 -17.18174,31.17764 -1.30701,5.96323 -1.47038,12.25322 -0.29952,18.29814 1.19809,6.04492 3.67597,11.81755 7.10687,16.88221 6.78011,9.91149 16.55546,16.93667 26.82093,22.16471 -7.18855,7.597 -13.50577,15.98365 -18.92441,24.88766 -5.06467,-4.60177 -10.04764,-9.28522 -15.03062,-13.9959 0.19061,-0.68074 0.40844,-1.36147 0.57182,-2.04221 2.75016,-11.73586 2.58679,-23.77124 0.57181,-35.39819 -2.06943,-11.62694 -6.12661,-23.00882 -12.71612,-33.02923 -6.50782,-9.99319 -16.0381,-18.46152 -27.47444,-22.81822 -11.40911,-4.24778 -23.88016,-4.73791 -35.53434,-2.45065 -3.78488,0.68074 -7.48807,1.68823 -11.10958,2.94078 1.44316,-2.12389 2.94077,-4.19333 4.60176,-6.12661 z m -13.96867,29.32604 c 0.9258,-5.11913 2.72294,-9.99318 4.76514,-14.7311 0.38122,-0.16337 0.76243,-0.35398 1.17087,-0.54458 5.06466,-2.17835 10.34716,-3.83935 15.76581,-4.8196 10.78283,-2.1239 22.05579,-1.60654 32.18512,2.15112 10.07487,3.83934 18.54321,11.27296 24.50644,20.44926 6.01769,9.1763 9.82981,19.79576 11.79032,30.71474 1.82437,10.42885 1.96052,21.26614 -0.21783,31.47716 -4.76514,-4.57454 -9.53029,-9.1763 -14.24097,-13.8053 -8.22327,-7.9782 -16.20148,-16.14702 -24.5609,-24.12523 -4.19332,-3.97548 -8.4411,-7.95097 -13.15179,-11.57248 -2.39618,-1.76991 -4.8196,-3.56705 -7.62422,-4.98298 -2.75017,-1.44315 -5.79986,-2.66848 -9.12184,-3.04969 -3.29476,-0.38121 -6.75289,-0.16337 -9.80258,0.95303 -1.60653,0.38121 -2.99523,1.25255 -4.49285,1.87883 -1.33424,0.87134 -2.77739,1.60653 -3.97549,2.61402 -1.66099,1.27978 -3.13137,2.69571 -4.5473,4.19332 -0.13615,-5.63648 0.35398,-11.27296 1.55207,-16.80052 z m 88.03258,71.39542 c -1.19809,3.32199 -2.69571,6.4806 -4.73791,9.20353 -3.02246,4.22056 -7.27025,6.86181 -12.28045,7.95098 -4.98298,1.08918 -10.42885,0.7352 -15.71135,-0.43567 -5.30973,-1.17086 -10.51054,-3.10415 -15.46629,-5.50033 -4.95574,-2.42342 -9.72089,-5.30973 -14.10482,-8.63171 -2.20558,-1.661 -4.24778,-3.45814 -6.15383,-5.41865 -2.04221,-1.82437 -3.7032,-4.00272 -5.50034,-6.07215 -6.78011,-8.60449 -11.38188,-18.89719 -13.80529,-29.62556 -0.49013,-2.34173 -0.87134,-4.71069 -1.17087,-7.07964 2.17835,-3.13138 4.68346,-5.96324 7.597,-8.19605 0.98026,-0.84411 2.12389,-1.38869 3.18584,-2.09666 1.17086,-0.43567 2.23281,-1.17086 3.4309,-1.41593 2.34172,-0.87134 4.76514,-0.98025 7.1341,-0.70796 4.79237,0.54459 9.44859,3.53982 13.80529,6.80735 4.38393,3.34921 8.52279,7.21578 12.63443,11.10958 8.22327,7.84206 16.25594,16.06533 24.47921,24.07077 5.52756,5.33696 11.08236,10.70115 16.66438,16.0381 z m -27.85565,48.76782 c -5.5548,-0.54459 -11.0279,-1.60653 -16.33763,-3.13138 -5.33696,-1.44316 -10.51054,-3.59428 -15.33014,-6.07215 -9.6392,-5.39142 -18.65212,-12.33491 -25.73176,-20.72156 -7.05241,-8.35941 -12.1443,-18.46151 -12.98841,-29.18989 -0.87134,-8.93123 0.92579,-18.18922 4.52007,-26.54864 2.58679,11.4908 7.56977,22.43701 14.89447,31.80391 1.93329,2.28727 3.78489,4.65622 6.01769,6.64397 2.09667,2.15112 4.35671,4.11164 6.75289,5.90877 4.73791,3.62151 9.82981,6.69843 15.16676,9.28522 5.33696,2.58679 10.94621,4.68345 16.82776,5.99046 5.88154,1.27979 12.11707,1.79714 18.37983,0.43567 6.2083,-1.25255 12.25322,-5.09189 15.90196,-10.2927 1.93328,-2.58679 3.4309,-5.39142 4.62899,-8.27773 4.62899,4.3567 9.28522,8.68617 13.9959,12.96118 -5.44588,9.42137 -10.67392,19.19671 -14.29542,29.70725 -0.0545,0.16338 -0.10892,0.35399 -0.16338,0.51736 -10.70115,1.63376 -21.56567,2.17835 -32.23958,0.98026 z m 46.50777,62.49142 c -6.83457,-8.52279 -11.59971,-18.67935 -12.74334,-29.51664 -1.03472,-9.50306 0.35398,-19.19672 3.18583,-28.50916 12.82504,-2.36896 25.35055,-6.37168 37.11364,-12.00816 4.8196,3.83934 9.72089,7.597 14.75833,11.19128 9.50305,6.56228 19.55069,13.12456 31.6133,15.87472 6.0177,1.30701 12.19877,1.30701 18.10754,0.59905 5.936,-0.70796 11.79032,-2.09666 17.39957,-4.22055 5.60925,-2.15112 11.00067,-5.11913 15.68412,-9.04016 4.71069,-3.8938 8.63172,-8.76786 11.57249,-14.05036 5.88155,-10.61945 8.44111,-22.76376 7.73314,-34.79914 -0.40844,-6.01769 -1.60653,-12.08984 -4.43839,-17.78078 -0.70796,-1.41593 -1.63376,-2.7774 -2.53233,-4.11164 -1.14363,-1.19809 -2.01497,-2.61402 -3.45813,-3.59428 -2.5051,-2.31449 -5.96323,-3.64873 -9.23076,-4.13886 -6.64397,-0.89857 -12.63443,0.70796 -18.24368,2.26004 -5.63648,1.63376 -11.0279,3.56704 -16.44654,5.25527 -2.99524,0.95302 -6.0177,1.85159 -9.04016,2.64124 2.39619,-6.97072 3.67597,-14.32265 3.64874,-21.67458 0.0545,-3.59428 -0.21784,-7.1341 -0.68074,-10.64669 9.96596,-3.78488 20.28589,-6.69842 30.7692,-7.92375 11.00067,-1.27978 22.30086,-0.98025 32.59357,2.66848 0.27229,0.10892 0.57181,0.21784 0.84411,0.32676 3.02246,7.46085 5.55479,15.13953 7.73314,22.8999 l 1.87883,8.2505 0.9258,4.11164 0.6535,4.16609 1.27978,8.35942 0.68074,8.41388 c 0.6535,5.60925 0.32675,11.24573 0.43567,16.88222 -0.0272,2.80462 -0.38122,5.60925 -0.54459,8.41387 -0.2723,2.80463 -0.24507,5.63648 -0.81688,8.38665 -3.13138,20.83048 -7.89652,42.01493 -17.39958,60.63983 -0.6535,0.0817 -1.33424,0.1906 -1.98774,0.24506 -11.05513,1.22532 -22.35532,0.76242 -33.51936,-0.70796 -11.16405,-1.49762 -22.19195,-4.08441 -32.86586,-7.62423 -5.36419,-1.74268 -10.53777,-3.81211 -15.71135,-6.12661 -5.17359,-2.3145 -10.34717,-4.84683 -15.82027,-7.05241 -5.47311,-2.12389 -11.35465,-4.22055 -18.08031,-3.75765 -3.34921,0.27229 -6.72565,1.5793 -9.47582,3.59428 -2.75017,2.0422 -4.84683,4.73791 -6.34445,7.54253 -2.99523,5.69094 -4.13886,11.81755 -4.5473,17.80802 -0.2723,4.22055 -0.0545,8.52279 0.68073,12.74334 -1.87883,-1.93328 -3.70319,-3.92103 -5.36419,-5.99046 z m 13.23348,126.2354 c -0.78965,2.58679 -1.79714,5.14635 -2.968,7.54253 -0.57182,1.17087 -1.22532,2.28727 -1.90606,3.15861 -0.32675,0.49013 -0.73519,0.84411 -0.98025,1.03472 -0.19061,-0.16338 -0.4629,-0.43567 -0.68074,-0.84411 -0.49013,-0.78965 -0.89857,-1.90606 -0.9258,-2.66848 -0.1906,-1.41593 0.89857,-3.21307 2.72294,-4.98298 1.44316,-1.36147 3.13138,-2.64125 4.90129,-3.8938 -0.0272,0.24507 -0.0817,0.4629 -0.16338,0.65351 z"
         id="path1123" style="stroke-width:2.72294" />

      <g class="subtitle">   
         <path
            d="m 245.31,701.12 c -1.08,-0.49 -2.37,-0.73 -3.86,-0.73 h -5.9 v 21.59 h 2.09 v -9.15 h 3.8 c 1.49,0 2.77,-0.26 3.86,-0.79 1.08,-0.53 1.92,-1.27 2.51,-2.22 0.59,-0.96 0.89,-2.07 0.89,-3.33 0,-1.27 -0.3,-2.36 -0.89,-3.27 -0.58,-0.91 -1.42,-1.61 -2.5,-2.1 z m 0.56,7.87 c -0.46,0.69 -1.11,1.23 -1.95,1.6 -0.84,0.38 -1.83,0.56 -2.97,0.56 h -3.31 V 702 h 3.31 c 1.14,0 2.13,0.18 2.97,0.53 0.84,0.35 1.49,0.87 1.95,1.54 0.46,0.68 0.69,1.49 0.69,2.45 0,0.96 -0.23,1.78 -0.69,2.47 z"
            id="path1125" />
         <path
            d="m 272.7,712.03 c -0.64,-0.48 -1.38,-0.9 -2.2,-1.26 -0.82,-0.35 -1.68,-0.69 -2.57,-1 -0.53,-0.18 -1.06,-0.38 -1.59,-0.59 -0.53,-0.21 -1.01,-0.46 -1.45,-0.75 -0.44,-0.29 -0.79,-0.65 -1.06,-1.08 -0.27,-0.43 -0.4,-0.95 -0.4,-1.56 0,-0.67 0.17,-1.31 0.51,-1.92 0.34,-0.61 0.84,-1.1 1.5,-1.49 0.66,-0.38 1.45,-0.58 2.39,-0.58 0.75,0 1.44,0.12 2.06,0.35 0.62,0.23 1.16,0.53 1.62,0.9 0.46,0.37 0.82,0.75 1.07,1.15 l 1.07,-1.37 c -0.31,-0.46 -0.75,-0.91 -1.33,-1.34 -0.57,-0.43 -1.24,-0.79 -2,-1.07 -0.76,-0.28 -1.6,-0.43 -2.51,-0.43 -0.95,0 -1.81,0.15 -2.59,0.46 -0.78,0.31 -1.45,0.73 -2.01,1.26 -0.56,0.54 -1,1.15 -1.31,1.85 -0.31,0.7 -0.47,1.44 -0.47,2.23 0,0.84 0.16,1.55 0.49,2.15 0.33,0.59 0.75,1.1 1.27,1.51 0.52,0.41 1.09,0.76 1.69,1.03 0.6,0.27 1.18,0.51 1.73,0.71 0.79,0.28 1.55,0.56 2.26,0.86 0.72,0.29 1.36,0.63 1.92,1 0.56,0.38 1,0.83 1.32,1.37 0.32,0.54 0.48,1.19 0.48,1.96 0,0.92 -0.23,1.68 -0.69,2.3 -0.46,0.62 -1.07,1.09 -1.83,1.4 -0.76,0.31 -1.59,0.47 -2.51,0.47 -0.96,0 -1.81,-0.15 -2.55,-0.44 -0.73,-0.29 -1.36,-0.65 -1.89,-1.07 -0.52,-0.42 -0.95,-0.84 -1.29,-1.26 -0.34,-0.41 -0.58,-0.74 -0.75,-0.99 l -1.2,1.47 c 0.15,0.23 0.41,0.57 0.78,1.02 0.37,0.45 0.87,0.92 1.49,1.39 0.62,0.48 1.38,0.88 2.26,1.22 0.89,0.34 1.92,0.5 3.1,0.5 1.38,0 2.61,-0.24 3.7,-0.71 1.09,-0.48 1.96,-1.17 2.6,-2.07 0.64,-0.91 0.96,-2.01 0.96,-3.3 0,-0.99 -0.19,-1.83 -0.56,-2.52 -0.35,-0.69 -0.86,-1.28 -1.51,-1.76 z"
            id="path1127" />
         <rect x="288.67001" y="700.39001" width="2.0899999" height="21.59" id="rect1129" />
         <path
            d="m 309.12,704.63 c 0.88,-0.84 1.92,-1.49 3.12,-1.96 1.2,-0.47 2.52,-0.71 3.96,-0.71 1.19,0 2.32,0.17 3.39,0.5 1.06,0.33 2,0.81 2.81,1.43 l 0.99,-1.66 c -0.96,-0.69 -2.06,-1.23 -3.31,-1.63 -1.25,-0.4 -2.59,-0.6 -4.01,-0.6 -1.71,0 -3.29,0.28 -4.74,0.85 -1.45,0.57 -2.73,1.36 -3.82,2.37 -1.09,1.02 -1.93,2.21 -2.54,3.57 -0.61,1.36 -0.91,2.83 -0.91,4.41 0,1.58 0.3,3.05 0.91,4.41 0.61,1.36 1.45,2.55 2.54,3.57 1.09,1.02 2.36,1.81 3.82,2.38 1.46,0.57 3.04,0.85 4.74,0.85 1.44,0 2.79,-0.2 4.03,-0.6 1.24,-0.4 2.34,-0.94 3.29,-1.62 l -0.99,-1.66 c -0.81,0.62 -1.74,1.1 -2.81,1.43 -1.06,0.33 -2.2,0.5 -3.39,0.5 -1.44,0 -2.76,-0.24 -3.96,-0.71 -1.2,-0.47 -2.24,-1.13 -3.12,-1.96 -0.88,-0.84 -1.56,-1.82 -2.05,-2.95 -0.48,-1.13 -0.72,-2.33 -0.72,-3.62 0,-1.29 0.24,-2.5 0.72,-3.63 0.49,-1.14 1.17,-2.12 2.05,-2.96 z"
            id="path1131" />
         <path
            d="m 354.47,703.26 c -1.05,-1.03 -2.26,-1.83 -3.65,-2.4 -1.39,-0.58 -2.87,-0.86 -4.46,-0.86 -1.59,0 -3.08,0.29 -4.46,0.86 -1.39,0.58 -2.6,1.38 -3.65,2.4 -1.05,1.03 -1.87,2.21 -2.46,3.57 -0.59,1.35 -0.89,2.81 -0.89,4.37 0,1.55 0.3,3.01 0.89,4.36 0.59,1.36 1.41,2.55 2.46,3.57 1.05,1.03 2.26,1.83 3.65,2.4 1.39,0.58 2.87,0.86 4.46,0.86 1.59,0 3.08,-0.29 4.46,-0.86 1.39,-0.58 2.6,-1.38 3.65,-2.4 1.05,-1.03 1.87,-2.22 2.46,-3.57 0.59,-1.36 0.89,-2.81 0.89,-4.36 0,-1.56 -0.3,-3.02 -0.89,-4.37 -0.59,-1.35 -1.41,-2.54 -2.46,-3.57 z m 0.39,11.58 c -0.47,1.13 -1.12,2.11 -1.96,2.96 -0.84,0.85 -1.82,1.51 -2.93,1.98 -1.11,0.47 -2.31,0.71 -3.61,0.71 -1.29,0 -2.5,-0.24 -3.62,-0.71 -1.12,-0.48 -2.09,-1.13 -2.93,-1.98 -0.84,-0.84 -1.49,-1.83 -1.96,-2.95 -0.47,-1.13 -0.71,-2.34 -0.71,-3.64 0,-1.3 0.24,-2.51 0.71,-3.64 0.47,-1.13 1.13,-2.11 1.96,-2.95 0.84,-0.84 1.81,-1.5 2.93,-1.98 1.12,-0.48 2.32,-0.71 3.62,-0.71 1.29,0 2.5,0.24 3.61,0.71 1.11,0.47 2.09,1.13 2.93,1.98 0.84,0.85 1.49,1.83 1.96,2.96 0.47,1.13 0.7,2.34 0.7,3.64 0,1.28 -0.23,2.49 -0.7,3.62 z"
            id="path1133" />
         <polygon points="383.44,720.23 373.92,720.23 373.92,700.39 371.83,700.39 371.83,721.98 383.44,721.98 "
            id="polygon1135" />
         <path
            d="m 414.84,703.26 c -1.05,-1.03 -2.26,-1.83 -3.65,-2.4 -1.39,-0.58 -2.87,-0.86 -4.46,-0.86 -1.59,0 -3.08,0.29 -4.46,0.86 -1.39,0.58 -2.6,1.38 -3.65,2.4 -1.05,1.03 -1.87,2.21 -2.46,3.57 -0.59,1.35 -0.89,2.81 -0.89,4.37 0,1.55 0.3,3.01 0.89,4.36 0.59,1.36 1.41,2.55 2.46,3.57 1.05,1.03 2.26,1.83 3.65,2.4 1.39,0.58 2.87,0.86 4.46,0.86 1.59,0 3.08,-0.29 4.46,-0.86 1.39,-0.58 2.6,-1.38 3.65,-2.4 1.05,-1.03 1.87,-2.22 2.46,-3.57 0.59,-1.36 0.89,-2.81 0.89,-4.36 0,-1.56 -0.3,-3.02 -0.89,-4.37 -0.59,-1.35 -1.41,-2.54 -2.46,-3.57 z m 0.39,11.58 c -0.47,1.13 -1.12,2.11 -1.96,2.96 -0.84,0.85 -1.82,1.51 -2.93,1.98 -1.11,0.47 -2.31,0.71 -3.61,0.71 -1.29,0 -2.5,-0.24 -3.62,-0.71 -1.12,-0.48 -2.09,-1.13 -2.93,-1.98 -0.84,-0.84 -1.49,-1.83 -1.96,-2.95 -0.47,-1.13 -0.71,-2.34 -0.71,-3.64 0,-1.3 0.24,-2.51 0.71,-3.64 0.47,-1.13 1.13,-2.11 1.96,-2.95 0.84,-0.84 1.81,-1.5 2.93,-1.98 1.12,-0.48 2.32,-0.71 3.62,-0.71 1.29,0 2.5,0.24 3.61,0.71 1.11,0.47 2.09,1.13 2.93,1.98 0.84,0.85 1.49,1.83 1.96,2.96 0.47,1.13 0.7,2.34 0.7,3.64 0,1.28 -0.23,2.49 -0.7,3.62 z"
            id="path1137" />
         <path
            d="m 441.91,712.89 h 8.37 v 0.75 c 0,1.06 -0.23,2.02 -0.69,2.87 -0.46,0.85 -1.09,1.58 -1.87,2.19 -0.79,0.61 -1.67,1.08 -2.65,1.4 -0.98,0.32 -1.98,0.48 -3,0.48 -1.26,0 -2.43,-0.24 -3.53,-0.71 -1.09,-0.48 -2.05,-1.14 -2.86,-2 -0.82,-0.86 -1.45,-1.86 -1.91,-3.01 -0.45,-1.15 -0.68,-2.39 -0.68,-3.72 0,-1.24 0.2,-2.42 0.61,-3.54 0.4,-1.12 1,-2.12 1.78,-3 0.78,-0.88 1.73,-1.57 2.86,-2.07 1.12,-0.51 2.4,-0.76 3.83,-0.76 1.5,0 2.9,0.28 4.2,0.84 1.3,0.56 2.39,1.31 3.25,2.24 l 1.09,-1.52 c -0.65,-0.67 -1.42,-1.26 -2.29,-1.75 -0.88,-0.5 -1.84,-0.88 -2.89,-1.16 -1.05,-0.28 -2.16,-0.42 -3.33,-0.42 -1.79,0 -3.39,0.31 -4.8,0.93 -1.41,0.62 -2.6,1.45 -3.58,2.51 -0.97,1.05 -1.71,2.25 -2.22,3.59 -0.51,1.34 -0.76,2.74 -0.76,4.17 0,1.56 0.29,3.02 0.86,4.38 0.57,1.36 1.36,2.55 2.38,3.57 1.01,1.02 2.2,1.82 3.55,2.39 1.36,0.58 2.82,0.86 4.4,0.86 1.25,0 2.49,-0.19 3.72,-0.58 1.23,-0.39 2.35,-0.96 3.36,-1.73 1.01,-0.76 1.82,-1.72 2.42,-2.87 0.61,-1.15 0.91,-2.49 0.91,-4.02 v -1.92 h -10.52 v 1.61 z"
            id="path1139" />
         <rect x="466.26001" y="700.39001" width="2.0899999" height="21.59" id="rect1141" />
         <path
            d="m 490.49,700.39 -8.95,21.59 h 2.25 l 2.8,-6.88 h 9.76 l 2.77,6.88 h 2.26 l -8.94,-21.59 z m -3.21,12.96 4.17,-10.34 4.17,10.34 z"
            id="path1143" />
         <polygon
            points="531.72,712.04 540.74,712.04 540.74,710.28 531.72,710.28 531.72,702.14 541.07,702.14 541.07,700.39 529.63,700.39 529.63,721.98 541.07,721.98 541.07,720.23 531.72,720.23 "
            id="polygon1145" />
         <path
            d="m 580.01,701.12 c -1.08,-0.49 -2.37,-0.73 -3.86,-0.73 h -5.9 v 21.59 h 2.09 v -9.15 h 3.8 c 1.49,0 2.77,-0.26 3.86,-0.79 1.08,-0.53 1.92,-1.27 2.51,-2.22 0.59,-0.96 0.89,-2.07 0.89,-3.33 0,-1.27 -0.3,-2.36 -0.89,-3.27 -0.58,-0.91 -1.41,-1.61 -2.5,-2.1 z m 0.57,7.87 c -0.46,0.69 -1.11,1.23 -1.95,1.6 -0.84,0.38 -1.83,0.56 -2.97,0.56 h -3.31 V 702 h 3.31 c 1.14,0 2.13,0.18 2.97,0.53 0.84,0.35 1.49,0.87 1.95,1.54 0.46,0.68 0.69,1.49 0.69,2.45 -0.01,0.96 -0.24,1.78 -0.69,2.47 z"
            id="path1147" />
         <path
            d="m 607.41,712.03 c -0.64,-0.48 -1.38,-0.9 -2.2,-1.26 -0.82,-0.35 -1.68,-0.69 -2.57,-1 -0.53,-0.18 -1.06,-0.38 -1.59,-0.59 -0.53,-0.21 -1.01,-0.46 -1.45,-0.75 -0.44,-0.29 -0.79,-0.65 -1.06,-1.08 -0.27,-0.43 -0.4,-0.95 -0.4,-1.56 0,-0.67 0.17,-1.31 0.51,-1.92 0.34,-0.61 0.84,-1.1 1.5,-1.49 0.66,-0.38 1.45,-0.58 2.39,-0.58 0.75,0 1.44,0.12 2.06,0.35 0.62,0.23 1.16,0.53 1.62,0.9 0.46,0.37 0.82,0.75 1.07,1.15 l 1.07,-1.37 c -0.31,-0.46 -0.75,-0.91 -1.33,-1.34 -0.57,-0.43 -1.24,-0.79 -2,-1.07 -0.76,-0.28 -1.6,-0.43 -2.51,-0.43 -0.95,0 -1.81,0.15 -2.59,0.46 -0.78,0.31 -1.45,0.73 -2.01,1.26 -0.56,0.54 -1,1.15 -1.31,1.85 -0.31,0.7 -0.47,1.44 -0.47,2.23 0,0.84 0.16,1.55 0.49,2.15 0.33,0.59 0.75,1.1 1.27,1.51 0.52,0.41 1.09,0.76 1.69,1.03 0.6,0.27 1.18,0.51 1.73,0.71 0.79,0.28 1.55,0.56 2.26,0.86 0.72,0.29 1.36,0.63 1.92,1 0.56,0.38 1,0.83 1.32,1.37 0.32,0.54 0.48,1.19 0.48,1.96 0,0.92 -0.23,1.68 -0.69,2.3 -0.46,0.62 -1.07,1.09 -1.83,1.4 -0.76,0.31 -1.59,0.47 -2.51,0.47 -0.96,0 -1.81,-0.15 -2.55,-0.44 -0.73,-0.29 -1.36,-0.65 -1.89,-1.07 -0.52,-0.42 -0.95,-0.84 -1.29,-1.26 -0.34,-0.41 -0.58,-0.74 -0.75,-0.99 l -1.2,1.47 c 0.15,0.23 0.41,0.57 0.78,1.02 0.37,0.45 0.87,0.92 1.49,1.39 0.62,0.48 1.38,0.88 2.27,1.22 0.89,0.34 1.92,0.5 3.1,0.5 1.38,0 2.61,-0.24 3.7,-0.71 1.09,-0.48 1.96,-1.17 2.6,-2.07 0.64,-0.91 0.96,-2.01 0.96,-3.3 0,-0.99 -0.19,-1.83 -0.56,-2.52 -0.37,-0.69 -0.88,-1.28 -1.52,-1.76 z"
            id="path1149" />
         <rect x="623.37" y="700.39001" width="2.0899999" height="21.59" id="rect1151" />
         <path
            d="m 643.82,704.63 c 0.88,-0.84 1.92,-1.49 3.12,-1.96 1.2,-0.47 2.52,-0.71 3.96,-0.71 1.19,0 2.32,0.17 3.39,0.5 1.07,0.33 2,0.81 2.81,1.43 l 0.99,-1.66 c -0.96,-0.69 -2.06,-1.23 -3.31,-1.63 -1.25,-0.4 -2.59,-0.6 -4.01,-0.6 -1.71,0 -3.29,0.28 -4.74,0.85 -1.45,0.57 -2.73,1.36 -3.82,2.37 -1.09,1.02 -1.93,2.21 -2.54,3.57 -0.61,1.36 -0.91,2.83 -0.91,4.41 0,1.58 0.3,3.05 0.91,4.41 0.61,1.36 1.45,2.55 2.54,3.57 1.09,1.02 2.36,1.81 3.82,2.38 1.46,0.57 3.04,0.85 4.74,0.85 1.44,0 2.79,-0.2 4.03,-0.6 1.24,-0.4 2.34,-0.94 3.29,-1.62 l -0.99,-1.66 c -0.81,0.62 -1.74,1.1 -2.81,1.43 -1.06,0.33 -2.2,0.5 -3.39,0.5 -1.44,0 -2.76,-0.24 -3.96,-0.71 -1.2,-0.47 -2.24,-1.13 -3.12,-1.96 -0.88,-0.84 -1.56,-1.82 -2.05,-2.95 -0.48,-1.13 -0.72,-2.33 -0.72,-3.62 0,-1.29 0.24,-2.5 0.72,-3.63 0.49,-1.14 1.17,-2.12 2.05,-2.96 z"
            id="path1153" />
         <path
            d="m 677.73,700.39 -8.95,21.59 h 2.25 l 2.8,-6.88 h 9.76 l 2.77,6.88 h 2.26 l -8.94,-21.59 z m -3.21,12.96 4.17,-10.34 4.17,10.34 z"
            id="path1155" />
         <polygon
            points="703.9,721.98 703.9,703.81 716.11,721.98 718.2,721.98 718.2,700.39 716.11,700.39 716.11,718.59 703.9,700.39 701.81,700.39 701.81,721.98 "
            id="polygon1157" />
         <polygon points="744.31,694.04 742.73,692.97 740.11,697.93 741.15,698.65 " id="polygon1159" />
         <path
            d="m 740.33,700.39 -8.95,21.59 h 2.25 l 2.8,-6.88 h 9.76 l 2.77,6.88 h 2.26 l -8.94,-21.59 z m -3.21,12.96 4.17,-10.34 4.17,10.34 z"
            id="path1161" />
         <polygon points="776.02,720.23 766.5,720.23 766.5,700.39 764.41,700.39 764.41,721.98 776.02,721.98 "
            id="polygon1163" />
         <rect x="789.23999" y="700.39001" width="2.0899999" height="21.59" id="rect1165" />
         <path
            d="m 817.04,712.03 c -0.64,-0.48 -1.37,-0.9 -2.2,-1.26 -0.82,-0.35 -1.68,-0.69 -2.57,-1 -0.53,-0.18 -1.06,-0.38 -1.59,-0.59 -0.53,-0.21 -1.01,-0.46 -1.45,-0.75 -0.44,-0.29 -0.79,-0.65 -1.06,-1.08 -0.27,-0.43 -0.4,-0.95 -0.4,-1.56 0,-0.67 0.17,-1.31 0.51,-1.92 0.34,-0.61 0.84,-1.1 1.5,-1.49 0.66,-0.38 1.45,-0.58 2.39,-0.58 0.75,0 1.44,0.12 2.06,0.35 0.62,0.23 1.16,0.53 1.62,0.9 0.46,0.37 0.82,0.75 1.07,1.15 l 1.07,-1.37 c -0.31,-0.46 -0.75,-0.91 -1.33,-1.34 -0.57,-0.43 -1.24,-0.79 -2,-1.07 -0.76,-0.28 -1.6,-0.43 -2.51,-0.43 -0.95,0 -1.81,0.15 -2.59,0.46 -0.78,0.31 -1.45,0.73 -2.01,1.26 -0.56,0.54 -1,1.15 -1.31,1.85 -0.31,0.7 -0.47,1.44 -0.47,2.23 0,0.84 0.16,1.55 0.49,2.15 0.33,0.59 0.75,1.1 1.27,1.51 0.52,0.41 1.09,0.76 1.69,1.03 0.6,0.27 1.18,0.51 1.73,0.71 0.79,0.28 1.55,0.56 2.26,0.86 0.72,0.29 1.36,0.63 1.92,1 0.56,0.38 1,0.83 1.32,1.37 0.32,0.54 0.48,1.19 0.48,1.96 0,0.92 -0.23,1.68 -0.69,2.3 -0.46,0.62 -1.07,1.09 -1.83,1.4 -0.76,0.31 -1.59,0.47 -2.51,0.47 -0.96,0 -1.81,-0.15 -2.55,-0.44 -0.73,-0.29 -1.36,-0.65 -1.89,-1.07 -0.52,-0.42 -0.95,-0.84 -1.29,-1.26 -0.34,-0.42 -0.58,-0.74 -0.75,-0.99 l -1.2,1.47 c 0.15,0.23 0.41,0.57 0.78,1.02 0.37,0.45 0.87,0.92 1.49,1.39 0.62,0.48 1.38,0.88 2.26,1.22 0.89,0.34 1.92,0.5 3.1,0.5 1.38,0 2.61,-0.24 3.7,-0.71 1.09,-0.48 1.96,-1.17 2.6,-2.07 0.64,-0.91 0.96,-2.01 0.96,-3.3 0,-0.99 -0.19,-1.83 -0.56,-2.52 -0.36,-0.69 -0.87,-1.28 -1.51,-1.76 z"
            id="path1167" />
         <polygon
            points="835.09,712.04 844.11,712.04 844.11,710.28 835.09,710.28 835.09,702.14 844.44,702.14 844.44,700.39 833,700.39 833,721.98 844.44,721.98 844.44,720.23 835.09,720.23 "
            id="polygon1169" />
      </g>

      <g class="name">
         <path
            d="m 792.37,597.84 c 0,-0.45 -0.38,-0.81 -0.84,-0.81 h -0.37 c -0.46,0 -0.84,0.36 -0.84,0.81 v 56.8 c -17.07,-19.11 -34.14,-38.21 -51.21,-57.32 -0.08,-0.07 -0.15,-0.09 -0.22,-0.14 -0.03,-0.02 -0.06,-0.04 -0.09,-0.06 -0.18,-0.09 -0.34,-0.15 -0.44,-0.17 -0.68,-0.13 -1.37,0.21 -1.73,0.7 -0.16,0.22 -0.24,0.43 -0.27,0.57 v 7.42 l 0.01,0.01 v 59.1 c 0,0.45 0.38,0.81 0.84,0.81 h 0.37 c 0.46,0 0.84,-0.36 0.84,-0.81 v -56.79 l 51.21,57.31 c 0.31,0.26 0.6,0.34 0.75,0.36 0.68,0.13 1.37,-0.21 1.73,-0.7 0.16,-0.22 0.24,-0.43 0.27,-0.57 v -7.42 l -0.01,-0.01 z"
            id="path1171" />
         <path
            d="m 837.67,598.11 c -2.87,-0.73 -5.76,-1.01 -8.66,-1.11 h -14.14 c -0.05,0.01 -0.11,0.02 -0.16,0.03 h -0.39 c -0.52,0 -0.95,0.42 -0.95,0.95 v 66.74 c 0,0.38 0.23,0.71 0.56,0.86 0.04,0.03 0.11,0.04 0.15,0.06 h 17.67 c 1.06,-0.09 2.12,-0.21 3.18,-0.39 16.14,-2.76 28.08,-16.33 28.67,-32.62 0.59,-16.16 -10.25,-30.51 -25.93,-34.52 z m 7.08,60.34 c -6.76,5.5 -14.65,5.88 -22.76,5.62 -0.66,-0.02 -0.99,-0.22 -1.16,-0.5 v -63.36 c 0.26,-1.17 1.05,-1.42 2.68,-1.5 9.55,-0.46 18.07,1.48 24.72,9.03 12.2,13.83 10.44,39.38 -3.48,50.71 z"
            id="path1173" />
         <path
            d="m 391.49,577.3 c -0.47,-0.08 -0.88,0.31 -1.06,0.49 -4.15,4.05 -8.29,8.14 -12.42,12.21 -0.12,0.21 -0.11,0.48 0.04,0.67 0.13,0.18 0.36,0.25 0.56,0.18 7.6,-4.88 13.13,-8.45 14.39,-9.25 0.19,-0.12 0.71,-0.45 0.78,-0.98 0.05,-0.42 -0.21,-0.65 -1,-1.8 -0.77,-1.12 -0.91,-1.45 -1.29,-1.52 z"
            id="path1175" />
         <path
            d="m 451.73,650.59 c 1.51,-7.85 -1.52,-13.82 -9.35,-18.27 -1.82,-1.03 -3.76,-1.85 -5.62,-2.81 -5.09,-2.63 -10.62,-4.39 -15.5,-7.44 -4.91,-3.06 -6.45,-7.49 -5.54,-12.85 0.81,-4.77 3.73,-7.87 8.41,-9.53 10.86,-3.86 20.76,2.22 21.73,13.42 0.08,0.89 0.06,1.69 0.63,2.15 h 3.54 c 0.49,-0.37 0.68,-1.03 0.6,-2.22 -0.62,-9.53 -8.39,-15.9 -19.82,-16.03 -9.7,-0.11 -17.06,4.56 -19.37,12.28 -2.44,8.18 0.94,15.66 9.57,20.66 2.94,1.71 6.1,3.08 9.21,4.5 4.01,1.83 8.12,3.43 11.89,5.78 7.6,4.76 6.18,15.45 0.65,19.88 -9.5,7.61 -23.24,4.09 -27.3,-7.11 -0.7,-1.93 -1.14,-3.91 -1.15,-5.99 0,-1.03 -0.34,-1.47 -0.82,-1.64 h -2.04 c -0.08,0 -0.16,0 -0.23,0 h -1.35 c -0.69,0.21 -0.82,0.94 -0.81,1.9 0.11,8.09 5.47,15 13.55,17.3 4.35,1.24 8.77,1.35 13.23,0.62 8.16,-1.35 14.44,-7.1 15.89,-14.6 z"
            id="path1177" />
         <path
            d="m 651.09,632.31 c -1.81,-1.03 -3.76,-1.85 -5.62,-2.81 -5.09,-2.63 -10.62,-4.39 -15.5,-7.44 -4.91,-3.06 -6.45,-7.49 -5.54,-12.85 0.81,-4.77 3.73,-7.87 8.41,-9.53 10.86,-3.86 20.76,2.22 21.73,13.42 0.08,0.89 0.06,1.69 0.63,2.15 h 3.54 c 0.49,-0.37 0.68,-1.03 0.6,-2.22 -0.62,-9.53 -8.39,-15.9 -19.82,-16.03 -9.7,-0.11 -17.06,4.56 -19.37,12.28 -2.44,8.18 0.94,15.66 9.57,20.66 2.94,1.71 6.1,3.08 9.21,4.5 4.01,1.83 8.12,3.43 11.89,5.78 7.6,4.76 6.18,15.45 0.65,19.88 -9.5,7.61 -23.24,4.09 -27.3,-7.11 -0.7,-1.93 -1.14,-3.91 -1.15,-5.99 0,-1.03 -0.34,-1.47 -0.82,-1.64 h -2.04 c -0.08,0 -0.16,0 -0.23,0 h -1.35 c -0.69,0.21 -0.82,0.94 -0.81,1.9 0.11,8.09 5.47,15 13.55,17.3 4.35,1.24 8.77,1.35 13.23,0.62 8.17,-1.34 14.46,-7.09 15.9,-14.6 1.51,-7.84 -1.52,-13.81 -9.36,-18.27 z"
            id="path1179" />
         <path
            d="m 387.1,597 h -5.56 c -0.52,0 -0.95,0.42 -0.95,0.95 v 66.74 c 0,0.52 0.42,0.95 0.95,0.95 h 5.56 c 0.52,0 0.95,-0.42 0.95,-0.95 v -66.74 c 0,-0.52 -0.42,-0.95 -0.95,-0.95 z"
            id="path1181" />
         <path
            d="m 280.46,597 h -5.56 c -0.52,0 -0.95,0.42 -0.95,0.95 v 23.16 18.05 c -0.2,0.71 -0.64,1.06 -1.45,1.18 h -11.27 c -3.78,-0.01 -7.56,-0.02 -11.35,0 h -11.14 c -0.81,-0.12 -1.25,-0.45 -1.46,-1.17 v -19.98 -21.24 c 0,-0.52 -0.42,-0.95 -0.95,-0.95 h -5.56 c -0.52,0 -0.95,0.42 -0.95,0.95 v 15.85 36.02 14.87 c 0,0.52 0.42,0.95 0.95,0.95 h 5.56 c 0.52,0 0.95,-0.42 0.95,-0.95 v -16.28 -4.9 c 0.21,-0.76 0.69,-1.09 1.59,-1.19 h 7.95 c 5.57,0.04 11.14,0.04 16.71,0 h 8.69 c 0.97,0.12 1.49,0.5 1.73,1.37 v 2.36 18.64 c 0,0.52 0.42,0.95 0.95,0.95 h 5.56 c 0.52,0 0.95,-0.42 0.95,-0.95 v -15.64 -31.29 -19.81 c 0,-0.52 -0.42,-0.95 -0.95,-0.95 z"
            id="path1183" />
         <path
            d="m 208.13,597 h -20.02 -5.56 -20.02 c -0.39,0 -0.7,0.29 -0.7,0.65 v 0.68 c 0,0.36 0.31,0.65 0.7,0.65 h 16.83 c 0.38,0.03 0.75,0.13 1.06,0.31 0.03,0.02 0.06,0.03 0.09,0.05 0.62,0.39 1.04,1.04 1.09,1.78 v 63.57 c 0,0.52 0.42,0.95 0.95,0.95 h 5.56 c 0.52,0 0.95,-0.42 0.95,-0.95 v -63.48 c 0.03,-0.62 0.31,-1.18 0.76,-1.58 0.09,-0.09 0.19,-0.16 0.3,-0.23 0.01,-0.01 0.03,-0.02 0.04,-0.03 0.09,-0.06 0.19,-0.11 0.3,-0.15 0.08,-0.04 0.17,-0.07 0.26,-0.1 0.04,-0.01 0.09,-0.03 0.13,-0.04 0.12,-0.03 0.24,-0.06 0.37,-0.07 0.05,-0.01 0.1,-0.02 0.16,-0.03 h 16.76 c 0.39,0 0.7,-0.29 0.7,-0.65 v -0.68 c -0.01,-0.36 -0.32,-0.65 -0.71,-0.65 z"
            id="path1185" />
         <path
            d="m 358.76,662.16 -24.81,-64.41 c -0.03,-0.09 -0.09,-0.2 -0.17,-0.31 -0.26,-0.32 -0.62,-0.41 -0.76,-0.44 -1.21,0 -2.42,0 -3.63,0.01 v 0 c -0.35,0 -0.67,0.2 -0.81,0.54 l -26.12,66.83 c -0.17,0.44 0.04,0.94 0.49,1.11 l 0.24,0.09 c 0.44,0.17 0.94,-0.05 1.11,-0.49 l 8.35,-21.36 c 0.55,-0.98 1.29,-1.49 2.63,-1.48 h 0.83 c 8.34,0.1 16.68,0.08 25.02,0.01 1.15,-0.01 1.86,0.3 2.4,1.11 l 8.27,21.48 c 0.05,0.1 0.2,0.42 0.56,0.63 0.18,0.1 0.36,0.15 0.51,0.17 h 5.53 c 0.08,-0.02 0.67,-0.21 0.92,-0.81 0.16,-0.38 0.09,-0.73 0.06,-0.86 z m -44.75,-21.9 14.27,-36.5 14.06,36.5 z"
            id="path1187" />
         <path
            d="m 596.77,665.09 v -0.88 c 0,-0.31 -0.25,-0.55 -0.56,-0.55 H 571.6 c -0.55,-0.26 -0.8,-0.74 -0.9,-1.47 V 643.6 c 0.15,-0.87 0.58,-1.26 1.27,-1.43 h 24.29 c 0.28,0 0.5,-0.22 0.5,-0.5 v -0.96 c 0,-0.28 -0.22,-0.5 -0.5,-0.5 H 572.2 c -0.89,-0.13 -1.34,-0.52 -1.49,-1.32 0,0 -0.01,0 -0.01,0.01 v -38.47 c 0.17,-1.09 0.79,-1.44 2.19,-1.44 h 23.35 c 0.28,0 0.52,-0.23 0.52,-0.52 v -0.96 c 0,-0.28 -0.23,-0.52 -0.52,-0.52 h -26.37 c -0.02,0 -0.04,0.02 -0.06,0.03 -0.02,0 -0.04,-0.02 -0.07,-0.02 h -5.59 c -0.52,0 -0.95,0.43 -0.95,0.95 v 66.74 c 0,0.52 0.43,0.95 0.95,0.95 h 32.05 c 0.32,0 0.57,-0.25 0.57,-0.55 z"
            id="path1189" />
         <path
            d="m 682.77,665.64 h 32.05 c 0.31,0 0.56,-0.25 0.56,-0.55 v -0.88 c 0,-0.31 -0.25,-0.55 -0.56,-0.55 H 690.2 c -0.55,-0.26 -0.8,-0.74 -0.9,-1.47 V 643.6 c 0.15,-0.87 0.58,-1.26 1.27,-1.43 h 24.29 c 0.28,0 0.5,-0.22 0.5,-0.5 v -0.96 c 0,-0.28 -0.22,-0.5 -0.5,-0.5 H 690.8 c -0.89,-0.13 -1.34,-0.52 -1.49,-1.32 0,0 -0.01,0 -0.01,0.01 v -38.47 c 0.17,-1.09 0.79,-1.44 2.19,-1.44 h 23.35 c 0.28,0 0.52,-0.23 0.52,-0.52 v -0.96 c 0,-0.28 -0.23,-0.52 -0.52,-0.52 h -26.37 c -0.02,0 -0.04,0.02 -0.06,0.03 -0.03,0 -0.04,-0.02 -0.07,-0.02 h -5.59 c -0.52,0 -0.95,0.43 -0.95,0.95 v 66.74 c 0.02,0.53 0.44,0.95 0.97,0.95 z"
            id="path1191" />
         <path
            d="m 894.3,598.98 h 23.35 c 0.28,0 0.52,-0.23 0.52,-0.52 v -0.96 c 0,-0.28 -0.23,-0.52 -0.52,-0.52 h -26.37 c -0.02,0 -0.04,0.02 -0.06,0.03 -0.03,0 -0.04,-0.02 -0.07,-0.02 h -5.59 c -0.52,0 -0.95,0.43 -0.95,0.95 v 66.74 c 0,0.52 0.43,0.95 0.95,0.95 h 32.05 c 0.31,0 0.55,-0.25 0.55,-0.55 v -0.88 c 0,-0.31 -0.25,-0.55 -0.55,-0.55 H 893 c -0.55,-0.26 -0.8,-0.74 -0.9,-1.47 V 643.6 c 0.15,-0.87 0.58,-1.26 1.27,-1.43 h 24.29 c 0.28,0 0.5,-0.22 0.5,-0.5 v -0.96 c 0,-0.28 -0.22,-0.5 -0.5,-0.5 H 893.6 c -0.89,-0.13 -1.34,-0.52 -1.49,-1.32 0,0 -0.01,0 -0.01,0.01 v -38.47 c 0.18,-1.09 0.81,-1.44 2.2,-1.45 z"
            id="path1193" />
         <path
            d="m 522.35,636.35 c 0.02,-0.01 0.04,-0.01 0.06,-0.02 1.1,-0.26 1.85,-0.48 2.61,-0.62 9.43,-1.69 15.71,-9.25 15.78,-18.97 0.04,-6.21 -2.46,-11.66 -6.74,-15.19 -2.98,-2.46 -5.97,-3.22 -8.8,-3.93 -1.29,-0.33 -2.42,-0.52 -3.73,-0.62 H 507 c -0.23,0 -0.44,0 -0.67,0 -2.39,0.01 -4.33,0.01 -5.52,0 -0.52,0 -0.94,0.42 -0.94,0.94 v 66.75 c 0,0.52 0.42,0.94 0.94,0.94 h 5.52 c 0.52,0 0.94,-0.42 0.94,-0.94 v -27.91 c 0.1,-0.24 0.27,-0.46 0.6,-0.64 1.66,-0.91 6.44,0.3 7.58,1.94 0.19,0.27 0.4,0.57 0.4,0.57 0.05,0.08 0.1,0.16 0.13,0.21 6.14,8.83 12.28,17.65 18.42,26.48 0.1,0.15 0.25,0.24 0.42,0.27 0.03,0.01 0.07,0.01 0.1,0.02 h 6.99 l 0.02,-0.01 c 0.3,-0.22 0.36,-0.65 0.15,-0.95 -6.57,-9.44 -13.15,-18.88 -19.73,-28.32 z m -13.88,-2.2 c -0.68,-0.16 -1.06,-0.55 -1.19,-1.32 v -32.46 c 0.12,-0.76 0.46,-1.16 1.18,-1.3 h 10.87 c 8.25,0.22 12.41,3.69 14.09,12.16 0.93,4.73 0.82,9.53 -0.94,14.15 -2.13,5.64 -5.92,8.49 -11.67,8.77 z"
            id="path1195" />
      </g>
   </g>
</svg>