<?xml version="1.0" encoding="UTF-8" standalone="no"?>
<!-- Generator: Adobe Illustrator 24.0.1, SVG Export Plug-In . SVG Version: 6.00 Build 0)  -->

<svg version="1.1" id="Camada_1" x="0px" y="0px" viewBox="0 0 955.59894 198.5629" xml:space="preserve"
   sodipodi:docname="logo_horizontal.svg" width="955.59894" height="198.5629"
   inkscape:version="1.2 (dc2aedaf03, 2022-05-15)" xmlns:inkscape="http://www.inkscape.org/namespaces/inkscape"
   xmlns:sodipodi="http://sodipodi.sourceforge.net/DTD/sodipodi-0.dtd" xmlns="http://www.w3.org/2000/svg"
   xmlns:svg="http://www.w3.org/2000/svg">
   <defs id="defs318" />
   <sodipodi:namedview id="namedview316" pagecolor="#ffffff" bordercolor="#999999" borderopacity="1"
      inkscape:showpageshadow="0" inkscape:pageopacity="0" inkscape:pagecheckerboard="0" inkscape:deskcolor="#d1d1d1"
      showgrid="false" inkscape:zoom="0.78055556" inkscape:cx="290.17794" inkscape:cy="200.49822"
      inkscape:window-width="1920" inkscape:window-height="1001" inkscape:window-x="-9" inkscape:window-y="1341"
      inkscape:window-maximized="1" inkscape:current-layer="Camada_1" />

   <g id="g313" transform="translate(-62.201089,-440.6922)">
      <g class="logo-horizontal">
         <g id="g167">
            <path class="logo"
               d="m 267.2,570.34 c -1.56,-1.46 -3.26,-2.72 -4.9,-4.03 -3.31,-2.59 -6.48,-5.34 -9.16,-8.56 -1.35,-1.59 -2.55,-3.31 -3.51,-5.16 -0.48,-0.93 -0.89,-1.88 -1.24,-2.87 -0.37,-0.98 -0.71,-1.97 -1.03,-2.97 -1.29,-4 -2.03,-8.14 -2.74,-12.29 -1.36,-8.3 -3.76,-16.5 -7.72,-23.94 3.88,7.48 6.18,15.69 7.44,23.99 0.66,4.15 1.35,8.33 2.61,12.37 0.31,1.01 0.64,2.01 1,3 0.33,1 0.75,1.99 1.23,2.94 0.96,1.9 2.16,3.67 3.51,5.3 2.67,3.3 5.87,6.12 9.15,8.75 1.63,1.33 3.31,2.61 4.8,4.04 0.75,0.71 1.43,1.48 1.95,2.32 0.49,0.85 0.72,1.8 0.55,2.73 -0.16,0.92 -0.81,1.64 -1.64,2.18 -0.83,0.55 -1.79,0.96 -2.74,1.41 -0.96,0.45 -1.92,0.93 -2.83,1.54 -0.89,0.63 -1.75,1.34 -2.43,2.23 -0.35,0.43 -0.63,0.92 -0.91,1.39 -0.22,0.51 -0.49,1 -0.66,1.52 -0.36,1.06 -0.56,2.08 -0.76,3.14 -0.4,2.11 -0.44,4.33 -0.14,6.45 0.29,2.13 0.77,4.15 0.82,6.19 0.07,2.04 -0.18,4.08 -0.77,6.03 -0.57,1.97 -1.57,3.75 -2.38,5.8 -0.39,1.02 -0.68,2.22 -0.5,3.43 0.08,0.6 0.29,1.17 0.52,1.7 0.23,0.48 0.44,0.94 0.64,1.41 0.39,0.94 0.72,1.9 0.97,2.89 0.26,1 0.45,1.95 0.45,2.93 0.03,1.99 -0.48,3.91 -1.52,5.61 -1.02,1.67 -2.42,3.26 -4.08,4.11 -1.71,0.91 -3.72,1.31 -5.74,1.49 -2.03,0.18 -4.09,0.13 -6.14,-0.06 -2.01,-0.19 -4.1,-0.65 -6.17,-0.98 -4.14,-0.71 -8.29,-1.43 -12.4,-2.24 -4.11,-0.8 -8.19,-1.73 -12.19,-2.89 -1.99,-0.59 -3.97,-1.25 -5.92,-1.96 -1.95,-0.74 -3.85,-1.53 -5.8,-2.36 -3.86,-1.66 -7.81,-3.17 -11.24,-5.28 -1.71,-1.07 -3.22,-2.33 -4.52,-3.86 -1.33,-1.52 -2.52,-3.2 -3.64,-4.93 -2.26,-3.48 -4.15,-7.25 -6.78,-10.76 -0.66,-0.87 -1.41,-1.71 -2.24,-2.49 -0.46,-0.36 -0.85,-0.77 -1.37,-1.07 l -0.74,-0.48 -0.72,-0.39 c -1.94,-1 -3.94,-1.82 -5.99,-2.5 -1,-0.33 -2.1,-0.67 -3.11,-0.88 -1.02,-0.23 -1.96,-0.52 -2.91,-0.87 -1.89,-0.69 -3.7,-1.6 -5.37,-2.72 -3.33,-2.22 -6.01,-5.41 -8,-8.92 -1.95,-3.5 -3.09,-7.51 -2.54,-11.42 0.21,-1.98 0.76,-3.92 1.66,-5.62 0.9,-1.7 2.24,-3.1 3.88,-3.97 3.3,-1.73 7.67,-0.95 10.73,1.29 1.5,1.15 2.67,2.67 3.3,4.47 0.65,1.79 0.84,3.78 0.73,5.76 -0.05,0.81 -0.15,1.63 -0.29,2.44 -1.37,0.9 -2.79,1.79 -4.14,3.05 -0.42,0.42 -0.85,0.88 -1.18,1.49 -0.32,0.6 -0.59,1.37 -0.5,2.16 0.06,0.77 0.31,1.37 0.67,1.98 0.19,0.3 0.41,0.6 0.74,0.88 0.32,0.27 0.82,0.57 1.46,0.55 0.65,-0.01 1.08,-0.3 1.4,-0.54 0.32,-0.25 0.54,-0.51 0.74,-0.77 0.39,-0.51 0.67,-1.02 0.93,-1.53 0.5,-1.02 0.9,-2.04 1.23,-3.1 0.28,-0.92 0.52,-1.86 0.71,-2.8 0.12,-0.08 0.23,-0.15 0.35,-0.23 1.79,-1.2 3.47,-2.5 5.14,-3.86 1.65,-1.37 3.24,-2.85 4.66,-4.54 1.41,-1.68 2.68,-3.61 3.27,-5.93 0.3,-1.15 0.34,-2.41 0.11,-3.6 -0.23,-1.2 -0.71,-2.31 -1.31,-3.29 -1.21,-1.97 -2.79,-3.51 -4.32,-4.98 -1.55,-1.46 -3.11,-2.85 -4.58,-4.31 -1.43,-1.42 -2.77,-2.93 -3.89,-4.56 0.38,0.22 0.76,0.44 1.15,0.65 7.64,4.05 16.59,5.74 25.19,4.13 4.28,-0.81 8.44,-2.58 11.91,-5.28 3.49,-2.68 6.27,-6.15 8.4,-9.91 0.08,-0.14 0.15,-0.27 0.22,-0.41 3.64,-0.6 7.25,-1.84 10.33,-4.14 3.62,-2.79 5.82,-6.85 7.19,-10.95 1.36,-4.14 1.97,-8.47 1.94,-12.79 0,-4.32 -0.63,-8.63 -1.89,-12.77 -1.28,-4.13 -3.22,-8.12 -6.02,-11.51 -1.41,-1.68 -3.03,-3.21 -4.83,-4.48 -1.43,-1 -2.99,-1.82 -4.6,-2.48 -0.35,-0.82 -0.7,-1.64 -1.09,-2.44 -1.88,-3.85 -4.09,-7.55 -6.78,-10.93 -2.73,-3.33 -5.93,-6.4 -9.94,-8.42 -3.93,-1.85 -8.09,-3.12 -12.4,-3.68 -2.15,-0.29 -4.34,-0.38 -6.53,-0.19 -1.1,0.04 -2.18,0.27 -3.26,0.43 -1.06,0.28 -2.15,0.48 -3.18,0.89 -0.04,0.01 -0.09,0.03 -0.13,0.05 -3.92,-2.48 -8.28,-4.26 -12.84,-5.15 -4.26,-0.85 -8.66,-0.93 -12.94,-0.32 -2.14,0.31 -4.26,0.78 -6.33,1.45 -2.06,0.68 -4.03,1.4 -6.02,2.3 -3.93,1.79 -7.66,4.3 -10.5,7.68 -1.33,1.55 -2.42,3.28 -3.34,5.1 -1.57,0.74 -3.08,1.6 -4.49,2.63 -0.46,0.3 -0.87,0.67 -1.31,1 -0.44,0.33 -0.85,0.7 -1.25,1.09 -0.84,0.78 -1.5,1.45 -2.29,2.22 -1.58,1.49 -2.97,3.39 -3.95,5.33 -1.99,3.9 -3.27,7.96 -4.49,12.02 -0.59,2.03 -1.14,4.08 -1.68,6.12 -0.51,2 -1.15,3.95 -1.94,5.85 -1.56,3.8 -3.69,7.35 -6.34,10.49 -2.64,3.15 -5.8,5.84 -9.21,8.21 -1.7,1.19 -3.47,2.3 -5.26,3.41 -1.78,1.12 -3.6,2.21 -5.33,3.58 -0.85,0.7 -1.69,1.48 -2.33,2.51 -0.66,1.01 -0.96,2.38 -0.69,3.59 0.2,1.24 0.95,2.34 1.78,3.12 0.83,0.8 1.74,1.4 2.6,2 0.86,0.59 1.69,1.19 2.44,1.84 0.74,0.66 1.37,1.41 1.88,2.23 0.93,1.68 1.4,3.68 0.93,5.55 -0.45,1.89 -1.44,3.87 -1.92,5.99 -0.52,2.11 -0.68,4.29 -0.62,6.44 0.03,2.15 0.48,4.35 1.2,6.35 0.34,1 0.67,1.95 0.79,2.93 0.12,0.98 0.09,1.98 -0.07,2.99 -0.29,2.03 -0.95,3.96 -1.9,5.8 -0.46,0.93 -0.96,1.89 -1.34,2.92 -0.38,1.02 -0.63,2.1 -0.75,3.18 -0.29,2.17 0.12,4.43 1.03,6.4 0.9,1.97 2.31,3.78 4.19,4.93 1.86,1.19 4.04,1.67 6.16,1.9 2.13,0.2 4.26,0.13 6.36,0.05 4.21,-0.15 8.41,-0.31 12.61,-0.39 4.2,-0.08 8.41,-0.11 12.58,0.29 2.08,0.22 4.16,0.56 6.1,1.31 1.93,0.74 3.68,2.01 4.8,3.77 1.1,1.76 1.71,3.81 1.98,5.88 0.28,2.08 0.26,4.19 0.12,6.28 -0.3,4.19 -1.12,8.34 -2.15,12.41 1.08,-4.06 1.95,-8.2 2.29,-12.4 0.16,-2.1 0.21,-4.22 -0.05,-6.32 -0.26,-2.09 -0.84,-4.18 -1.96,-6.01 -1.13,-1.83 -2.94,-3.16 -4.91,-3.95 -1.98,-0.8 -4.09,-1.16 -6.19,-1.4 -4.2,-0.46 -8.43,-0.47 -12.64,-0.44 -4.21,0.04 -8.42,0.15 -12.63,0.25 -2.1,0.06 -4.2,0.1 -6.26,-0.12 -2.04,-0.24 -4.09,-0.73 -5.78,-1.84 -1.71,-1.07 -2.98,-2.74 -3.81,-4.59 -0.83,-1.86 -1.18,-3.9 -0.88,-5.91 0.22,-2.04 1.05,-3.87 2.06,-5.74 1,-1.88 1.76,-3.97 2.08,-6.11 0.18,-1.07 0.24,-2.19 0.11,-3.3 -0.12,-1.12 -0.48,-2.17 -0.8,-3.17 -0.68,-1.97 -1.06,-3.94 -1.07,-6.01 -0.03,-2.05 0.14,-4.11 0.65,-6.08 0.47,-1.99 1.43,-3.81 2,-6 0.27,-1.1 0.31,-2.29 0.11,-3.41 -0.18,-1.12 -0.61,-2.19 -1.14,-3.2 -0.59,-0.98 -1.32,-1.86 -2.14,-2.61 -0.83,-0.74 -1.71,-1.38 -2.57,-1.99 -1.71,-1.19 -3.43,-2.41 -3.67,-4.12 -0.39,-1.72 0.91,-3.27 2.48,-4.5 1.59,-1.24 3.4,-2.3 5.19,-3.4 1.8,-1.09 3.61,-2.2 5.37,-3.4 3.52,-2.39 6.86,-5.16 9.67,-8.44 2.83,-3.26 5.11,-6.98 6.8,-10.95 0.84,-1.98 1.54,-4.03 2.1,-6.1 0.56,-2.02 1.12,-4.04 1.73,-6.04 1.21,-3.99 2.5,-7.99 4.35,-11.59 0.93,-1.81 2.07,-3.35 3.53,-4.77 0.72,-0.7 1.53,-1.53 2.24,-2.18 0.36,-0.35 0.73,-0.68 1.13,-0.99 0.4,-0.31 0.77,-0.65 1.19,-0.92 0.58,-0.42 1.18,-0.81 1.8,-1.18 -0.38,1.1 -0.71,2.22 -0.92,3.37 -0.64,3.08 -0.78,6.26 -0.47,9.39 -0.18,0.29 -0.37,0.58 -0.54,0.88 -1.07,1.95 -1.84,4.04 -2.32,6.19 -0.47,2.15 -0.7,4.39 -0.46,6.62 0.36,4.49 2.48,8.65 5.29,11.98 2.84,3.35 6.31,6.02 10.1,8.14 1.97,1.01 3.98,1.84 6.09,2.41 2.09,0.6 4.23,1.01 6.38,1.23 3.78,0.43 7.6,0.3 11.35,-0.2 -0.91,3.32 -1.34,6.82 -0.96,10.31 0.46,4.42 2.43,8.61 5.17,12.01 1.44,1.79 3.09,3.37 4.88,4.78 1.41,3.46 3.81,6.4 6.34,8.91 1.52,1.51 3.11,2.92 4.62,4.34 1.49,1.43 2.95,2.88 3.94,4.51 1.01,1.62 1.4,3.41 0.93,5.18 -0.45,1.77 -1.52,3.48 -2.81,5.01 -2.24,2.65 -5.06,4.93 -7.96,7.01 0.02,-0.2 0.04,-0.39 0.05,-0.59 0.12,-2.21 -0.08,-4.49 -0.86,-6.67 -0.76,-2.18 -2.24,-4.13 -4.09,-5.53 -1.86,-1.36 -4.03,-2.23 -6.31,-2.55 -2.27,-0.32 -4.71,-0.02 -6.81,1.08 -2.09,1.1 -3.76,2.89 -4.83,4.91 -1.07,2.02 -1.68,4.21 -1.92,6.41 -0.63,4.49 0.68,9.01 2.81,12.8 1.07,1.91 2.34,3.7 3.78,5.33 1.42,1.65 3.12,3.14 4.93,4.36 1.83,1.23 3.8,2.22 5.86,2.97 1.02,0.37 2.1,0.7 3.13,0.93 1.05,0.22 1.96,0.51 2.96,0.84 1.95,0.65 3.85,1.42 5.65,2.36 l 0.67,0.36 0.58,0.38 c 0.4,0.22 0.74,0.59 1.11,0.87 0.7,0.66 1.36,1.4 1.97,2.2 2.44,3.23 4.34,7.02 6.65,10.61 1.15,1.8 2.4,3.57 3.83,5.22 1.41,1.68 3.17,3.16 5.04,4.3 3.76,2.29 7.73,3.77 11.59,5.42 3.86,1.67 7.91,3.15 12,4.3 4.1,1.14 8.25,2.03 12.4,2.79 4.15,0.77 8.31,1.44 12.47,2.11 l 3.12,0.5 c 1.02,0.17 2.12,0.34 3.19,0.42 2.14,0.18 4.3,0.21 6.47,-0.01 2.15,-0.22 4.35,-0.66 6.37,-1.75 2.07,-1.13 3.52,-2.86 4.66,-4.77 1.15,-1.91 1.73,-4.22 1.66,-6.44 -0.01,-1.13 -0.25,-2.26 -0.54,-3.28 -0.28,-1.05 -0.64,-2.08 -1.08,-3.08 -0.21,-0.5 -0.45,-0.99 -0.68,-1.46 -0.19,-0.43 -0.35,-0.85 -0.42,-1.3 -0.15,-0.88 0.04,-1.81 0.39,-2.75 0.71,-1.87 1.76,-3.81 2.34,-5.9 0.61,-2.09 0.85,-4.28 0.76,-6.45 -0.08,-2.18 -0.6,-4.27 -0.9,-6.3 -0.31,-2.04 -0.29,-4.08 0.07,-6.11 0.18,-1 0.38,-2.06 0.69,-2.99 0.15,-0.49 0.39,-0.92 0.59,-1.38 0.25,-0.43 0.49,-0.87 0.8,-1.25 0.59,-0.8 1.36,-1.45 2.18,-2.04 0.84,-0.57 1.75,-1.04 2.69,-1.5 0.94,-0.46 1.92,-0.89 2.84,-1.51 0.92,-0.6 1.79,-1.57 1.98,-2.76 0.2,-1.17 -0.12,-2.35 -0.69,-3.31 -0.56,-0.9 -1.29,-1.71 -2.08,-2.43 z M 196.01,538.5 c -3.18,2.48 -6.98,4.1 -10.97,4.85 -7.99,1.5 -16.5,-0.09 -23.69,-3.91 -1.54,-0.83 -3.01,-1.77 -4.4,-2.82 -0.15,-0.41 -0.29,-0.83 -0.4,-1.25 -0.54,-1.89 -0.72,-3.89 -0.59,-5.88 0.13,-1.98 0.53,-3.96 1.4,-5.6 0.86,-1.65 2.29,-2.77 4.03,-2.91 1.76,-0.14 3.71,0.48 5.59,1.23 1.9,0.77 3.78,1.69 5.72,2.56 1.94,0.87 3.95,1.67 5.98,2.34 4.07,1.34 8.24,2.32 12.49,2.89 3.96,0.52 8,0.69 12.02,0.33 -1.91,3.12 -4.3,5.95 -7.18,8.17 z m 15.42,-63.3 c 1.63,1.15 3.1,2.53 4.39,4.07 2.57,3.1 4.39,6.83 5.6,10.72 1.18,3.91 1.79,8.01 1.79,12.11 0.03,4.1 -0.56,8.21 -1.82,12.06 -1.27,3.82 -3.32,7.49 -6.43,9.87 -2.21,1.66 -4.85,2.73 -7.63,3.37 1.35,-2.9 2.38,-5.92 3.25,-8.96 1.14,-4.14 1.97,-8.24 2.58,-12.51 0.21,-1.05 0.2,-2.13 0.31,-3.2 0.06,-1.07 0.19,-2.14 0.2,-3.21 -0.04,-2.14 0.08,-4.29 -0.17,-6.42 l -0.26,-3.2 -0.48,-3.17 -0.25,-1.58 -0.35,-1.57 -0.71,-3.13 c -0.62,-2.2 -1.31,-4.38 -2.09,-6.52 0.7,0.4 1.4,0.81 2.07,1.27 z m -42.85,-27.34 c 1,-0.14 1.98,-0.35 2.99,-0.39 2.01,-0.18 4.05,-0.09 6.06,0.18 4.03,0.52 8.03,1.74 11.7,3.47 3.54,1.78 6.58,4.64 9.16,7.8 2.56,3.21 4.68,6.77 6.49,10.48 0.07,0.15 0.14,0.31 0.21,0.46 -3.71,-0.99 -7.61,-1.01 -11.34,-0.58 -3.94,0.46 -7.74,1.52 -11.41,2.88 -0.46,-2.24 -1.15,-4.42 -1.98,-6.52 -1.64,-4 -3.81,-7.78 -6.59,-11.12 -1.96,-2.37 -4.21,-4.49 -6.68,-6.32 0.46,-0.11 0.93,-0.21 1.39,-0.34 z m 12.24,30.49 c 0.01,2.95 -0.6,5.87 -1.73,8.59 -2,0.39 -4.02,0.62 -6.04,0.59 -3.07,-0.01 -6.06,-0.75 -8.94,-1.9 2.17,-2.02 4.52,-3.85 7.03,-5.45 0.86,-0.57 1.76,-1.06 2.65,-1.58 0.92,-0.47 1.8,-0.96 2.75,-1.41 1.36,-0.66 2.74,-1.27 4.12,-1.86 0.12,1 0.17,2.01 0.16,3.02 z m -0.13,10.56 c 1.72,-0.39 3.41,-0.87 5.06,-1.4 2.03,-0.64 4.01,-1.34 5.98,-1.92 1.96,-0.56 3.97,-1.03 5.72,-0.77 0.87,0.14 1.66,0.43 2.28,1.03 0.36,0.22 0.6,0.64 0.91,0.94 0.24,0.38 0.51,0.76 0.72,1.18 0.84,1.69 1.26,3.66 1.38,5.64 0.25,3.97 -0.63,8.08 -2.55,11.53 -1.88,3.49 -5.1,6.08 -8.85,7.47 -1.87,0.71 -3.84,1.18 -5.84,1.42 -2.01,0.25 -4,0.23 -5.91,-0.18 -3.83,-0.86 -7.4,-3.11 -10.78,-5.47 -1.53,-1.09 -3.03,-2.22 -4.51,-3.39 2.34,-1.27 4.59,-2.7 6.71,-4.34 3.39,-2.67 6.42,-5.9 8.62,-9.7 0.38,-0.66 0.73,-1.34 1.06,-2.04 z m -3.02,0.91 c -2.02,3.49 -4.85,6.52 -8.06,9.05 -2.25,1.75 -4.68,3.27 -7.22,4.58 -1.14,-0.93 -2.26,-1.87 -3.37,-2.84 -1.37,-1.18 -2.73,-2.39 -4.08,-3.6 2.09,-3.5 4.59,-6.76 7.43,-9.67 1.34,0.58 2.71,1.09 4.13,1.5 2.12,0.6 4.32,0.93 6.52,0.95 1.64,0.02 3.25,-0.11 4.85,-0.35 -0.07,0.13 -0.13,0.25 -0.2,0.38 z m -20.14,12.51 c 0.86,0.75 1.72,1.48 2.6,2.21 -3.45,1.56 -7.08,2.74 -10.79,3.52 1.18,-3.12 2.74,-6.11 4.43,-9.06 1.24,1.12 2.49,2.23 3.76,3.33 z m 3.92,-17.9 c -3.63,-1.81 -7.02,-4.25 -9.24,-7.52 -1.11,-1.62 -1.88,-3.44 -2.26,-5.34 -0.37,-1.91 -0.32,-3.89 0.1,-5.81 0.84,-3.87 3.04,-7.42 5.76,-10.39 1.37,-1.49 2.9,-2.84 4.54,-4 1.33,-0.86 2.71,-1.67 4.19,-2.26 2.84,1.92 5.41,4.23 7.6,6.88 2.61,3.13 4.68,6.73 6.23,10.51 0.84,2.11 1.51,4.3 1.94,6.53 -1.61,0.66 -3.2,1.37 -4.75,2.12 -0.95,0.45 -1.91,0.98 -2.86,1.47 -0.92,0.55 -1.87,1.06 -2.77,1.66 -2.9,1.84 -5.59,3.99 -8.05,6.36 -0.15,-0.08 -0.29,-0.14 -0.43,-0.21 z M 117.92,454 c 2.59,-3.07 6,-5.4 9.71,-7.09 1.85,-0.84 3.83,-1.56 5.77,-2.2 1.94,-0.62 3.94,-1.07 5.96,-1.36 4.04,-0.58 8.18,-0.5 12.18,0.3 3.75,0.74 7.37,2.12 10.68,4.01 -1.09,0.55 -2.15,1.17 -3.17,1.84 -1.8,1.26 -3.44,2.72 -4.92,4.32 -2.93,3.21 -5.34,7.05 -6.31,11.45 -0.48,2.19 -0.54,4.5 -0.11,6.72 0.44,2.22 1.35,4.34 2.61,6.2 2.49,3.64 6.08,6.22 9.85,8.14 -2.64,2.79 -4.96,5.87 -6.95,9.14 -1.86,-1.69 -3.69,-3.41 -5.52,-5.14 0.07,-0.25 0.15,-0.5 0.21,-0.75 1.01,-4.31 0.95,-8.73 0.21,-13 -0.76,-4.27 -2.25,-8.45 -4.67,-12.13 -2.39,-3.67 -5.89,-6.78 -10.09,-8.38 -4.19,-1.56 -8.77,-1.74 -13.05,-0.9 -1.39,0.25 -2.75,0.62 -4.08,1.08 0.53,-0.78 1.08,-1.54 1.69,-2.25 z m -5.13,10.77 c 0.34,-1.88 1,-3.67 1.75,-5.41 0.14,-0.06 0.28,-0.13 0.43,-0.2 1.86,-0.8 3.8,-1.41 5.79,-1.77 3.96,-0.78 8.1,-0.59 11.82,0.79 3.7,1.41 6.81,4.14 9,7.51 2.21,3.37 3.62,7.27 4.33,11.28 0.67,3.83 0.72,7.81 -0.08,11.56 -1.75,-1.68 -3.5,-3.37 -5.23,-5.07 -3.02,-2.93 -5.95,-5.93 -9.02,-8.86 -1.54,-1.46 -3.1,-2.92 -4.83,-4.25 -0.88,-0.65 -1.77,-1.31 -2.8,-1.83 -1.01,-0.53 -2.13,-0.98 -3.35,-1.12 -1.21,-0.14 -2.48,-0.06 -3.6,0.35 -0.59,0.14 -1.1,0.46 -1.65,0.69 -0.49,0.32 -1.02,0.59 -1.46,0.96 -0.61,0.47 -1.15,0.99 -1.67,1.54 -0.05,-2.07 0.13,-4.15 0.57,-6.17 z m 32.33,26.22 c -0.44,1.22 -0.99,2.38 -1.74,3.38 -1.11,1.55 -2.67,2.52 -4.51,2.92 -1.83,0.4 -3.83,0.27 -5.77,-0.16 -1.95,-0.43 -3.86,-1.14 -5.68,-2.02 -1.82,-0.89 -3.57,-1.95 -5.18,-3.17 -0.81,-0.61 -1.56,-1.27 -2.26,-1.99 -0.75,-0.67 -1.36,-1.47 -2.02,-2.23 -2.49,-3.16 -4.18,-6.94 -5.07,-10.88 -0.18,-0.86 -0.32,-1.73 -0.43,-2.6 0.8,-1.15 1.72,-2.19 2.79,-3.01 0.36,-0.31 0.78,-0.51 1.17,-0.77 0.43,-0.16 0.82,-0.43 1.26,-0.52 0.86,-0.32 1.75,-0.36 2.62,-0.26 1.76,0.2 3.47,1.3 5.07,2.5 1.61,1.23 3.13,2.65 4.64,4.08 3.02,2.88 5.97,5.9 8.99,8.84 2.03,1.96 4.07,3.93 6.12,5.89 z m -10.23,17.9 c -2.04,-0.2 -4.05,-0.59 -6,-1.15 -1.96,-0.53 -3.86,-1.32 -5.63,-2.23 -3.54,-1.98 -6.85,-4.53 -9.45,-7.61 -2.59,-3.07 -4.46,-6.78 -4.77,-10.72 -0.32,-3.28 0.34,-6.68 1.67,-9.75 0.95,4.22 2.78,8.24 5.47,11.68 0.71,0.84 1.39,1.71 2.21,2.44 0.77,0.79 1.6,1.51 2.48,2.17 1.74,1.33 3.61,2.46 5.57,3.41 1.96,0.95 4.02,1.72 6.18,2.2 2.16,0.47 4.45,0.66 6.75,0.16 2.28,-0.46 4.5,-1.87 5.84,-3.77 0.71,-0.95 1.26,-1.98 1.7,-3.04 1.7,1.6 3.41,3.19 5.14,4.76 -2,3.46 -3.92,7.05 -5.25,10.91 -0.02,0.06 -0.04,0.13 -0.06,0.19 -3.93,0.6 -7.93,0.8 -11.85,0.35 z m 17.08,22.96 c -2.51,-3.13 -4.26,-6.86 -4.68,-10.84 -0.38,-3.49 0.13,-7.05 1.17,-10.47 4.71,-0.87 9.31,-2.34 13.63,-4.41 1.77,1.41 3.57,2.79 5.42,4.11 3.49,2.41 7.18,4.82 11.61,5.83 2.21,0.48 4.48,0.48 6.65,0.22 2.18,-0.26 4.33,-0.77 6.39,-1.55 2.06,-0.79 4.04,-1.88 5.76,-3.32 1.73,-1.43 3.17,-3.22 4.25,-5.16 2.16,-3.9 3.1,-8.36 2.84,-12.78 -0.15,-2.21 -0.59,-4.44 -1.63,-6.53 -0.26,-0.52 -0.6,-1.02 -0.93,-1.51 -0.42,-0.44 -0.74,-0.96 -1.27,-1.32 -0.92,-0.85 -2.19,-1.34 -3.39,-1.52 -2.44,-0.33 -4.64,0.26 -6.7,0.83 -2.07,0.6 -4.05,1.31 -6.04,1.93 -1.1,0.35 -2.21,0.68 -3.32,0.97 0.88,-2.56 1.35,-5.26 1.34,-7.96 0.02,-1.32 -0.08,-2.62 -0.25,-3.91 3.66,-1.39 7.45,-2.46 11.3,-2.91 4.04,-0.47 8.19,-0.36 11.97,0.98 0.1,0.04 0.21,0.08 0.31,0.12 1.11,2.74 2.04,5.56 2.84,8.41 l 0.69,3.03 0.34,1.51 0.24,1.53 0.47,3.07 0.25,3.09 c 0.24,2.06 0.12,4.13 0.16,6.2 -0.01,1.03 -0.14,2.06 -0.2,3.09 -0.1,1.03 -0.09,2.07 -0.3,3.08 -1.15,7.65 -2.9,15.43 -6.39,22.27 -0.24,0.03 -0.49,0.07 -0.73,0.09 -4.06,0.45 -8.21,0.28 -12.31,-0.26 -4.1,-0.55 -8.15,-1.5 -12.07,-2.8 -1.97,-0.64 -3.87,-1.4 -5.77,-2.25 -1.9,-0.85 -3.8,-1.78 -5.81,-2.59 -2.01,-0.78 -4.17,-1.55 -6.64,-1.38 -1.23,0.1 -2.47,0.58 -3.48,1.32 -1.01,0.75 -1.78,1.74 -2.33,2.77 -1.1,2.09 -1.52,4.34 -1.67,6.54 -0.1,1.55 -0.02,3.13 0.25,4.68 -0.69,-0.71 -1.36,-1.44 -1.97,-2.2 z m 4.87,46.36 c -0.29,0.95 -0.66,1.89 -1.09,2.77 -0.21,0.43 -0.45,0.84 -0.7,1.16 -0.12,0.18 -0.27,0.31 -0.36,0.38 -0.07,-0.06 -0.17,-0.16 -0.25,-0.31 -0.18,-0.29 -0.33,-0.7 -0.34,-0.98 -0.07,-0.52 0.33,-1.18 1,-1.83 0.53,-0.5 1.15,-0.97 1.8,-1.43 -0.02,0.09 -0.04,0.17 -0.06,0.24 z"
               id="path165" />
         </g>
         
         <g class="subtitle">
            <g id="g171">
               <path
                  d="m 344.93,591.4 c -1.08,-0.49 -2.37,-0.73 -3.86,-0.73 h -5.9 v 21.59 h 2.09 v -9.15 h 3.8 c 1.49,0 2.77,-0.26 3.86,-0.79 1.08,-0.53 1.92,-1.27 2.51,-2.22 0.59,-0.96 0.89,-2.07 0.89,-3.33 0,-1.27 -0.3,-2.36 -0.89,-3.27 -0.58,-0.92 -1.42,-1.61 -2.5,-2.1 z m 0.56,7.87 c -0.46,0.69 -1.11,1.23 -1.95,1.6 -0.84,0.38 -1.83,0.56 -2.97,0.56 h -3.31 v -9.15 h 3.31 c 1.14,0 2.13,0.18 2.97,0.53 0.84,0.35 1.49,0.87 1.95,1.54 0.46,0.68 0.69,1.49 0.69,2.45 0,0.96 -0.23,1.78 -0.69,2.47 z"
                  id="path169" />
            </g>
            <g id="g175">
               <path
                  d="m 372.32,602.31 c -0.64,-0.48 -1.38,-0.9 -2.2,-1.26 -0.82,-0.35 -1.68,-0.69 -2.57,-1 -0.53,-0.18 -1.06,-0.38 -1.59,-0.59 -0.53,-0.21 -1.01,-0.46 -1.45,-0.75 -0.44,-0.29 -0.79,-0.65 -1.06,-1.08 -0.27,-0.43 -0.4,-0.95 -0.4,-1.56 0,-0.67 0.17,-1.31 0.51,-1.92 0.34,-0.61 0.84,-1.1 1.5,-1.49 0.66,-0.38 1.45,-0.58 2.39,-0.58 0.75,0 1.44,0.12 2.06,0.35 0.62,0.23 1.16,0.53 1.62,0.9 0.46,0.37 0.82,0.75 1.07,1.15 l 1.07,-1.37 c -0.31,-0.46 -0.75,-0.91 -1.33,-1.34 -0.57,-0.43 -1.24,-0.79 -2,-1.07 -0.76,-0.28 -1.6,-0.43 -2.51,-0.43 -0.95,0 -1.81,0.15 -2.59,0.46 -0.78,0.31 -1.45,0.73 -2.01,1.26 -0.56,0.54 -1,1.15 -1.31,1.85 -0.31,0.7 -0.47,1.44 -0.47,2.23 0,0.84 0.16,1.55 0.49,2.15 0.33,0.59 0.75,1.1 1.27,1.51 0.52,0.41 1.09,0.76 1.69,1.03 0.6,0.27 1.18,0.51 1.73,0.71 0.79,0.28 1.55,0.56 2.26,0.86 0.72,0.29 1.36,0.63 1.92,1 0.56,0.38 1,0.83 1.32,1.37 0.32,0.54 0.48,1.19 0.48,1.96 0,0.92 -0.23,1.68 -0.69,2.3 -0.46,0.62 -1.07,1.09 -1.83,1.4 -0.76,0.31 -1.59,0.47 -2.51,0.47 -0.96,0 -1.81,-0.15 -2.55,-0.44 -0.73,-0.29 -1.36,-0.65 -1.89,-1.07 -0.52,-0.42 -0.95,-0.84 -1.29,-1.26 -0.34,-0.41 -0.58,-0.74 -0.75,-0.99 l -1.2,1.47 c 0.15,0.23 0.41,0.57 0.78,1.02 0.37,0.45 0.87,0.92 1.49,1.39 0.62,0.48 1.38,0.88 2.26,1.22 0.89,0.34 1.92,0.5 3.1,0.5 1.38,0 2.61,-0.24 3.7,-0.71 1.09,-0.48 1.96,-1.17 2.6,-2.07 0.64,-0.91 0.96,-2.01 0.96,-3.3 0,-0.99 -0.19,-1.83 -0.56,-2.52 -0.35,-0.69 -0.86,-1.28 -1.51,-1.76 z"
                  id="path173" />
            </g>
            <g id="g179">
               <rect x="388.29001" y="590.66998" width="2.0899999" height="21.59" id="rect177" />
            </g>
            <g id="g183">
               <path
                  d="m 408.74,594.91 c 0.88,-0.84 1.92,-1.49 3.12,-1.96 1.2,-0.47 2.52,-0.71 3.96,-0.71 1.19,0 2.32,0.17 3.39,0.5 1.06,0.33 2,0.81 2.81,1.43 l 0.99,-1.66 c -0.96,-0.69 -2.06,-1.23 -3.31,-1.63 -1.25,-0.4 -2.59,-0.6 -4.01,-0.6 -1.71,0 -3.29,0.28 -4.74,0.85 -1.45,0.57 -2.73,1.36 -3.82,2.37 -1.09,1.02 -1.93,2.21 -2.54,3.57 -0.61,1.36 -0.91,2.83 -0.91,4.41 0,1.58 0.3,3.05 0.91,4.41 0.61,1.36 1.45,2.55 2.54,3.57 1.09,1.02 2.36,1.81 3.82,2.38 1.46,0.57 3.04,0.85 4.74,0.85 1.44,0 2.79,-0.2 4.03,-0.6 1.24,-0.4 2.34,-0.94 3.29,-1.62 l -0.99,-1.66 c -0.81,0.62 -1.74,1.1 -2.81,1.43 -1.06,0.33 -2.2,0.5 -3.39,0.5 -1.44,0 -2.76,-0.24 -3.96,-0.71 -1.2,-0.47 -2.24,-1.13 -3.12,-1.96 -0.88,-0.84 -1.56,-1.82 -2.05,-2.95 -0.48,-1.13 -0.72,-2.33 -0.72,-3.62 0,-1.29 0.24,-2.5 0.72,-3.63 0.49,-1.15 1.17,-2.13 2.05,-2.96 z"
                  id="path181" />
            </g>
            <g id="g187">
               <path
                  d="m 454.1,593.54 c -1.05,-1.03 -2.26,-1.83 -3.65,-2.4 -1.39,-0.58 -2.87,-0.86 -4.46,-0.86 -1.59,0 -3.08,0.29 -4.46,0.86 -1.39,0.58 -2.6,1.38 -3.65,2.4 -1.05,1.03 -1.87,2.21 -2.46,3.57 -0.59,1.35 -0.89,2.81 -0.89,4.37 0,1.55 0.3,3.01 0.89,4.36 0.59,1.36 1.41,2.55 2.46,3.57 1.05,1.03 2.26,1.82 3.65,2.4 1.39,0.58 2.87,0.86 4.46,0.86 1.59,0 3.08,-0.29 4.46,-0.86 1.39,-0.58 2.6,-1.38 3.65,-2.4 1.05,-1.03 1.87,-2.22 2.46,-3.57 0.59,-1.36 0.89,-2.81 0.89,-4.36 0,-1.56 -0.3,-3.02 -0.89,-4.37 -0.6,-1.36 -1.42,-2.55 -2.46,-3.57 z m 0.38,11.57 c -0.47,1.13 -1.12,2.11 -1.96,2.96 -0.84,0.85 -1.82,1.51 -2.93,1.98 -1.11,0.47 -2.31,0.71 -3.61,0.71 -1.29,0 -2.5,-0.24 -3.62,-0.71 -1.12,-0.48 -2.09,-1.13 -2.93,-1.98 -0.84,-0.84 -1.49,-1.83 -1.96,-2.95 -0.47,-1.13 -0.71,-2.34 -0.71,-3.64 0,-1.3 0.24,-2.51 0.71,-3.64 0.47,-1.13 1.13,-2.11 1.96,-2.95 0.84,-0.84 1.81,-1.5 2.93,-1.98 1.12,-0.48 2.32,-0.71 3.62,-0.71 1.29,0 2.5,0.24 3.61,0.71 1.11,0.47 2.09,1.13 2.93,1.98 0.84,0.85 1.49,1.83 1.96,2.96 0.47,1.13 0.7,2.34 0.7,3.64 0,1.29 -0.23,2.5 -0.7,3.62 z"
                  id="path185" />
            </g>
            <g id="g191">
               <polygon
                  points="483.06,612.26 483.06,610.51 473.54,610.51 473.54,590.67 471.45,590.67 471.45,612.26 "
                  id="polygon189" />
            </g>
            <g id="g195">
               <path
                  d="m 514.46,593.54 c -1.05,-1.03 -2.26,-1.83 -3.65,-2.4 -1.39,-0.58 -2.87,-0.86 -4.46,-0.86 -1.59,0 -3.08,0.29 -4.46,0.86 -1.39,0.58 -2.6,1.38 -3.65,2.4 -1.05,1.03 -1.87,2.21 -2.46,3.57 -0.59,1.35 -0.89,2.81 -0.89,4.37 0,1.55 0.3,3.01 0.89,4.36 0.59,1.36 1.41,2.55 2.46,3.57 1.05,1.03 2.26,1.82 3.65,2.4 1.39,0.58 2.87,0.86 4.46,0.86 1.59,0 3.08,-0.29 4.46,-0.86 1.39,-0.58 2.6,-1.38 3.65,-2.4 1.05,-1.03 1.87,-2.22 2.46,-3.57 0.59,-1.36 0.89,-2.81 0.89,-4.36 0,-1.56 -0.3,-3.02 -0.89,-4.37 -0.59,-1.36 -1.41,-2.55 -2.46,-3.57 z m 0.39,11.57 c -0.47,1.13 -1.12,2.11 -1.96,2.96 -0.84,0.85 -1.82,1.51 -2.93,1.98 -1.11,0.47 -2.31,0.71 -3.61,0.71 -1.3,0 -2.5,-0.24 -3.62,-0.71 -1.12,-0.48 -2.09,-1.13 -2.93,-1.98 -0.84,-0.84 -1.49,-1.83 -1.96,-2.95 -0.47,-1.13 -0.71,-2.34 -0.71,-3.64 0,-1.3 0.24,-2.51 0.71,-3.64 0.47,-1.13 1.13,-2.11 1.96,-2.95 0.84,-0.84 1.81,-1.5 2.93,-1.98 1.12,-0.48 2.32,-0.71 3.62,-0.71 1.3,0 2.5,0.24 3.61,0.71 1.11,0.47 2.09,1.13 2.93,1.98 0.84,0.85 1.49,1.83 1.96,2.96 0.47,1.13 0.7,2.34 0.7,3.64 0,1.29 -0.23,2.5 -0.7,3.62 z"
                  id="path193" />
            </g>
            <g id="g199">
               <path
                  d="m 541.53,603.16 h 8.37 v 0.75 c 0,1.06 -0.23,2.02 -0.7,2.87 -0.46,0.85 -1.09,1.58 -1.87,2.19 -0.79,0.61 -1.67,1.08 -2.65,1.4 -0.98,0.32 -1.98,0.48 -3,0.48 -1.26,0 -2.43,-0.24 -3.53,-0.71 -1.09,-0.48 -2.05,-1.14 -2.86,-2 -0.82,-0.86 -1.45,-1.86 -1.91,-3.01 -0.45,-1.15 -0.68,-2.39 -0.68,-3.72 0,-1.24 0.2,-2.42 0.61,-3.54 0.4,-1.12 1,-2.12 1.78,-3 0.78,-0.88 1.73,-1.57 2.86,-2.07 1.12,-0.51 2.4,-0.76 3.84,-0.76 1.5,0 2.9,0.28 4.2,0.84 1.3,0.56 2.39,1.31 3.25,2.24 l 1.09,-1.52 c -0.65,-0.67 -1.42,-1.26 -2.29,-1.75 -0.88,-0.5 -1.84,-0.88 -2.89,-1.16 -1.05,-0.28 -2.16,-0.42 -3.33,-0.42 -1.79,0 -3.39,0.31 -4.8,0.93 -1.41,0.62 -2.6,1.45 -3.58,2.51 -0.97,1.05 -1.71,2.25 -2.22,3.59 -0.51,1.34 -0.76,2.74 -0.76,4.17 0,1.56 0.29,3.02 0.86,4.38 0.57,1.36 1.36,2.55 2.38,3.57 1.01,1.02 2.2,1.82 3.55,2.39 1.36,0.58 2.82,0.86 4.4,0.86 1.25,0 2.49,-0.19 3.72,-0.58 1.23,-0.39 2.35,-0.96 3.36,-1.73 1.01,-0.76 1.82,-1.72 2.42,-2.87 0.61,-1.15 0.91,-2.49 0.91,-4.02 v -1.92 h -10.52 v 1.61 z"
                  id="path197" />
            </g>
            <g id="g203">
               <rect x="565.88" y="590.66998" width="2.0899999" height="21.59" id="rect201" />
            </g>
            <g id="g207">
               <path
                  d="m 590.11,590.67 -8.95,21.59 h 2.25 l 2.8,-6.88 h 9.76 l 2.77,6.88 H 601 l -8.94,-21.59 z m -3.21,12.95 4.17,-10.34 4.17,10.34 z"
                  id="path205" />
            </g>
            <g id="g211">
               <polygon
                  points="631.34,610.51 631.34,602.31 640.36,602.31 640.36,600.56 631.34,600.56 631.34,592.42 640.69,592.42 640.69,590.67 629.25,590.67 629.25,612.26 640.69,612.26 640.69,610.51 "
                  id="polygon209" />
            </g>
            <g id="g215">
               <path
                  d="m 679.63,591.4 c -1.08,-0.49 -2.37,-0.73 -3.86,-0.73 h -5.9 v 21.59 h 2.09 v -9.15 h 3.8 c 1.49,0 2.77,-0.26 3.86,-0.79 1.08,-0.53 1.92,-1.27 2.51,-2.22 0.59,-0.96 0.89,-2.07 0.89,-3.33 0,-1.27 -0.3,-2.36 -0.89,-3.27 -0.58,-0.92 -1.41,-1.61 -2.5,-2.1 z m 0.57,7.87 c -0.46,0.69 -1.11,1.23 -1.95,1.6 -0.84,0.38 -1.83,0.56 -2.97,0.56 h -3.31 v -9.15 h 3.31 c 1.14,0 2.13,0.18 2.97,0.53 0.84,0.35 1.49,0.87 1.95,1.54 0.46,0.68 0.69,1.49 0.69,2.45 0,0.96 -0.23,1.78 -0.69,2.47 z"
                  id="path213" />
            </g>
            <g id="g219">
               <path
                  d="m 707.03,602.31 c -0.64,-0.48 -1.38,-0.9 -2.2,-1.26 -0.82,-0.35 -1.68,-0.69 -2.57,-1 -0.53,-0.18 -1.06,-0.38 -1.59,-0.59 -0.53,-0.21 -1.01,-0.46 -1.45,-0.75 -0.44,-0.29 -0.79,-0.65 -1.06,-1.08 -0.27,-0.43 -0.4,-0.95 -0.4,-1.56 0,-0.67 0.17,-1.31 0.51,-1.92 0.34,-0.61 0.84,-1.1 1.5,-1.49 0.66,-0.38 1.45,-0.58 2.39,-0.58 0.75,0 1.44,0.12 2.06,0.35 0.62,0.23 1.16,0.53 1.62,0.9 0.46,0.37 0.82,0.75 1.07,1.15 l 1.07,-1.37 c -0.31,-0.46 -0.75,-0.91 -1.33,-1.34 -0.57,-0.43 -1.24,-0.79 -2,-1.07 -0.76,-0.28 -1.6,-0.43 -2.51,-0.43 -0.95,0 -1.81,0.15 -2.59,0.46 -0.78,0.31 -1.45,0.73 -2.01,1.26 -0.56,0.54 -1,1.15 -1.31,1.85 -0.31,0.7 -0.47,1.44 -0.47,2.23 0,0.84 0.16,1.55 0.49,2.15 0.33,0.59 0.75,1.1 1.27,1.51 0.52,0.41 1.09,0.76 1.69,1.03 0.6,0.27 1.18,0.51 1.73,0.71 0.79,0.28 1.55,0.56 2.26,0.86 0.72,0.29 1.36,0.63 1.92,1 0.56,0.38 1,0.83 1.32,1.37 0.32,0.54 0.48,1.19 0.48,1.96 0,0.92 -0.23,1.68 -0.69,2.3 -0.46,0.62 -1.07,1.09 -1.83,1.4 -0.76,0.31 -1.59,0.47 -2.51,0.47 -0.96,0 -1.81,-0.15 -2.55,-0.44 -0.73,-0.29 -1.36,-0.65 -1.89,-1.07 -0.52,-0.42 -0.95,-0.84 -1.29,-1.26 -0.34,-0.42 -0.58,-0.74 -0.75,-0.99 l -1.2,1.47 c 0.15,0.23 0.41,0.57 0.78,1.02 0.37,0.45 0.87,0.92 1.49,1.39 0.62,0.48 1.38,0.88 2.27,1.22 0.89,0.34 1.92,0.5 3.1,0.5 1.38,0 2.61,-0.24 3.7,-0.71 1.09,-0.48 1.96,-1.17 2.6,-2.07 0.64,-0.91 0.96,-2.01 0.96,-3.3 0,-0.99 -0.19,-1.83 -0.56,-2.52 -0.37,-0.69 -0.88,-1.28 -1.52,-1.76 z"
                  id="path217" />
            </g>
            <g id="g223">
               <rect x="722.98999" y="590.66998" width="2.0899999" height="21.59" id="rect221" />
            </g>
            <g id="g227">
               <path
                  d="m 743.44,594.91 c 0.88,-0.84 1.92,-1.49 3.12,-1.96 1.2,-0.47 2.52,-0.71 3.96,-0.71 1.19,0 2.32,0.17 3.39,0.5 1.06,0.33 2,0.81 2.81,1.43 l 0.99,-1.66 c -0.96,-0.69 -2.06,-1.23 -3.31,-1.63 -1.25,-0.4 -2.59,-0.6 -4.01,-0.6 -1.71,0 -3.29,0.28 -4.74,0.85 -1.45,0.57 -2.73,1.36 -3.82,2.37 -1.09,1.02 -1.93,2.21 -2.54,3.57 -0.61,1.36 -0.91,2.83 -0.91,4.41 0,1.58 0.3,3.05 0.91,4.41 0.61,1.36 1.45,2.55 2.54,3.57 1.09,1.02 2.36,1.81 3.82,2.38 1.46,0.57 3.04,0.85 4.74,0.85 1.44,0 2.79,-0.2 4.03,-0.6 1.24,-0.4 2.34,-0.94 3.29,-1.62 l -0.99,-1.66 c -0.81,0.62 -1.74,1.1 -2.81,1.43 -1.06,0.33 -2.2,0.5 -3.39,0.5 -1.44,0 -2.76,-0.24 -3.96,-0.71 -1.2,-0.47 -2.24,-1.13 -3.12,-1.96 -0.88,-0.84 -1.56,-1.82 -2.05,-2.95 -0.48,-1.13 -0.72,-2.33 -0.72,-3.62 0,-1.29 0.24,-2.5 0.72,-3.63 0.49,-1.15 1.17,-2.13 2.05,-2.96 z"
                  id="path225" />
            </g>
            <g id="g231">
               <path
                  d="m 777.35,590.67 -8.95,21.59 h 2.25 l 2.8,-6.88 h 9.76 l 2.77,6.88 h 2.26 l -8.94,-21.59 z m -3.21,12.95 4.17,-10.34 4.17,10.34 z"
                  id="path229" />
            </g>
            <g id="g235">
               <polygon
                  points="801.43,612.26 803.52,612.26 803.52,594.08 815.73,612.26 817.82,612.26 817.82,590.67 815.73,590.67 815.73,608.87 803.52,590.67 801.43,590.67 "
                  id="polygon233" />
            </g>
            <g id="g239">
               <path
                  d="M 839.95,590.67 831,612.26 h 2.25 l 2.8,-6.88 h 9.76 l 2.77,6.88 h 2.26 l -8.94,-21.59 z m -3.21,12.95 4.17,-10.34 4.17,10.34 z"
                  id="path237" />
            </g>
            <g id="g243">
               <polygon points="840.77,588.92 843.93,584.32 842.35,583.25 839.73,588.21 " id="polygon241" />
            </g>
            <g id="g247">
               <polygon
                  points="875.64,612.26 875.64,610.51 866.12,610.51 866.12,590.67 864.03,590.67 864.03,612.26 "
                  id="polygon245" />
            </g>
            <g id="g251">
               <rect x="888.85999" y="590.66998" width="2.0899999" height="21.59" id="rect249" />
            </g>
            <g id="g255">
               <path
                  d="m 916.66,602.31 c -0.64,-0.48 -1.38,-0.9 -2.2,-1.26 -0.82,-0.35 -1.68,-0.69 -2.57,-1 -0.53,-0.18 -1.06,-0.38 -1.59,-0.59 -0.53,-0.21 -1.01,-0.46 -1.45,-0.75 -0.44,-0.29 -0.79,-0.65 -1.06,-1.08 -0.27,-0.43 -0.4,-0.95 -0.4,-1.56 0,-0.67 0.17,-1.31 0.51,-1.92 0.34,-0.61 0.84,-1.1 1.5,-1.49 0.66,-0.38 1.45,-0.58 2.39,-0.58 0.75,0 1.44,0.12 2.06,0.35 0.62,0.23 1.16,0.53 1.62,0.9 0.46,0.37 0.82,0.75 1.07,1.15 l 1.07,-1.37 c -0.31,-0.46 -0.75,-0.91 -1.33,-1.34 -0.57,-0.43 -1.24,-0.79 -2,-1.07 -0.76,-0.28 -1.6,-0.43 -2.51,-0.43 -0.95,0 -1.81,0.15 -2.59,0.46 -0.78,0.31 -1.45,0.73 -2.01,1.26 -0.56,0.54 -1,1.15 -1.31,1.85 -0.31,0.7 -0.47,1.44 -0.47,2.23 0,0.84 0.16,1.55 0.49,2.15 0.33,0.59 0.75,1.1 1.27,1.51 0.52,0.41 1.09,0.76 1.69,1.03 0.6,0.27 1.18,0.51 1.73,0.71 0.79,0.28 1.55,0.56 2.27,0.86 0.72,0.29 1.36,0.63 1.92,1 0.56,0.38 1,0.83 1.32,1.37 0.32,0.54 0.48,1.19 0.48,1.96 0,0.92 -0.23,1.68 -0.69,2.3 -0.46,0.62 -1.07,1.09 -1.83,1.4 -0.76,0.31 -1.59,0.47 -2.51,0.47 -0.96,0 -1.81,-0.15 -2.55,-0.44 -0.73,-0.29 -1.36,-0.65 -1.89,-1.07 -0.52,-0.42 -0.95,-0.84 -1.29,-1.26 -0.34,-0.41 -0.58,-0.74 -0.75,-0.99 l -1.2,1.47 c 0.15,0.23 0.41,0.57 0.78,1.02 0.37,0.45 0.87,0.92 1.49,1.39 0.62,0.48 1.38,0.88 2.26,1.22 0.89,0.34 1.92,0.5 3.1,0.5 1.38,0 2.61,-0.24 3.7,-0.71 1.09,-0.48 1.96,-1.17 2.6,-2.07 0.64,-0.91 0.96,-2.01 0.96,-3.3 0,-0.99 -0.19,-1.83 -0.56,-2.52 -0.37,-0.69 -0.88,-1.28 -1.52,-1.76 z"
                  id="path253" />
            </g>
            <g id="g259">
               <polygon
                  points="934.71,610.51 934.71,602.31 943.74,602.31 943.74,600.56 934.71,600.56 934.71,592.42 944.07,592.42 944.07,590.67 932.62,590.67 932.62,612.26 944.07,612.26 944.07,610.51 "
                  id="polygon257" />
            </g>
         </g>

         <g class="name">
            <g id="g263">
               <path
                  d="m 892,488.12 c 0,-0.45 -0.38,-0.81 -0.84,-0.81 h -0.37 c -0.46,0 -0.84,0.36 -0.84,0.81 v 56.8 c -17.07,-19.11 -34.14,-38.21 -51.21,-57.32 -0.08,-0.07 -0.15,-0.09 -0.22,-0.14 -0.03,-0.02 -0.06,-0.04 -0.09,-0.06 -0.18,-0.09 -0.34,-0.15 -0.44,-0.17 -0.68,-0.13 -1.37,0.21 -1.73,0.7 -0.16,0.22 -0.24,0.43 -0.27,0.57 v 7.42 l 0.01,0.01 v 59.1 c 0,0.45 0.38,0.81 0.84,0.81 h 0.37 c 0.46,0 0.84,-0.36 0.84,-0.81 v -56.79 l 51.21,57.31 c 0.31,0.26 0.6,0.34 0.75,0.36 0.68,0.13 1.37,-0.21 1.73,-0.7 0.16,-0.22 0.24,-0.43 0.27,-0.57 v -7.42 L 892,547.21 Z"
                  id="path261" />
            </g>
            <g id="g267">
               <path
                  d="m 937.29,488.38 c -2.87,-0.73 -5.76,-1.01 -8.66,-1.11 h -14.14 c -0.05,0.01 -0.11,0.02 -0.16,0.03 h -0.39 c -0.52,0 -0.95,0.42 -0.95,0.95 V 555 c 0,0.38 0.23,0.71 0.56,0.86 0.04,0.03 0.11,0.04 0.15,0.06 h 17.67 c 1.06,-0.09 2.12,-0.21 3.18,-0.39 16.14,-2.76 28.08,-16.33 28.67,-32.62 0.59,-16.16 -10.25,-30.52 -25.93,-34.53 z m 7.08,60.34 c -6.76,5.5 -14.65,5.88 -22.76,5.62 -0.66,-0.02 -0.99,-0.22 -1.16,-0.5 v -63.36 c 0.26,-1.17 1.04,-1.42 2.68,-1.5 9.55,-0.46 18.07,1.48 24.72,9.03 12.2,13.84 10.44,39.38 -3.48,50.71 z"
                  id="path265" />
            </g>
            <g id="g271">
               <path
                  d="m 491.11,467.58 c -0.47,-0.08 -0.88,0.31 -1.06,0.49 -4.15,4.05 -8.29,8.14 -12.42,12.21 -0.12,0.21 -0.11,0.48 0.04,0.67 0.13,0.18 0.36,0.25 0.56,0.18 7.6,-4.88 13.13,-8.45 14.39,-9.25 0.19,-0.12 0.71,-0.45 0.78,-0.98 0.05,-0.42 -0.21,-0.65 -1,-1.8 -0.77,-1.13 -0.91,-1.46 -1.29,-1.52 z"
                  id="path269" />
            </g>
            <g id="g275">
               <path
                  d="m 551.35,540.86 c 1.51,-7.85 -1.52,-13.82 -9.35,-18.27 -1.82,-1.03 -3.76,-1.85 -5.62,-2.81 -5.09,-2.63 -10.62,-4.39 -15.5,-7.44 -4.91,-3.06 -6.45,-7.49 -5.54,-12.85 0.81,-4.77 3.73,-7.87 8.41,-9.53 10.86,-3.86 20.76,2.22 21.73,13.42 0.08,0.89 0.06,1.69 0.63,2.15 h 3.54 c 0.49,-0.37 0.68,-1.03 0.6,-2.22 -0.62,-9.53 -8.39,-15.9 -19.82,-16.03 -9.7,-0.11 -17.06,4.56 -19.37,12.28 -2.44,8.18 0.94,15.66 9.57,20.66 2.94,1.71 6.1,3.08 9.21,4.5 4.01,1.83 8.12,3.43 11.89,5.78 7.6,4.76 6.18,15.45 0.65,19.88 -9.5,7.61 -23.24,4.09 -27.3,-7.11 -0.7,-1.93 -1.14,-3.91 -1.15,-5.99 0,-1.03 -0.34,-1.47 -0.82,-1.64 h -2.04 c -0.08,0 -0.16,0 -0.23,0 h -1.35 c -0.69,0.21 -0.82,0.94 -0.81,1.9 0.11,8.09 5.47,15 13.55,17.3 4.35,1.24 8.77,1.35 13.23,0.62 8.16,-1.34 14.44,-7.09 15.89,-14.6 z"
                  id="path273" />
            </g>
            <g id="g279">
               <path
                  d="m 750.71,522.59 c -1.82,-1.03 -3.76,-1.85 -5.62,-2.81 -5.09,-2.63 -10.62,-4.39 -15.5,-7.44 -4.91,-3.06 -6.45,-7.49 -5.54,-12.85 0.81,-4.77 3.73,-7.87 8.41,-9.53 10.86,-3.86 20.76,2.22 21.73,13.42 0.08,0.89 0.06,1.69 0.63,2.15 h 3.54 c 0.49,-0.37 0.68,-1.03 0.6,-2.22 -0.62,-9.53 -8.39,-15.9 -19.82,-16.03 -9.7,-0.11 -17.06,4.56 -19.37,12.28 -2.44,8.18 0.94,15.66 9.57,20.66 2.94,1.71 6.1,3.08 9.21,4.5 4.01,1.83 8.12,3.43 11.89,5.78 7.6,4.76 6.18,15.45 0.65,19.88 -9.5,7.61 -23.24,4.09 -27.3,-7.11 -0.7,-1.93 -1.14,-3.91 -1.15,-5.99 0,-1.03 -0.34,-1.47 -0.82,-1.64 h -2.04 c -0.08,0 -0.16,0 -0.23,0 h -1.35 c -0.69,0.21 -0.82,0.94 -0.81,1.9 0.11,8.09 5.47,15 13.55,17.3 4.35,1.24 8.77,1.35 13.23,0.62 8.17,-1.34 14.46,-7.09 15.9,-14.6 1.51,-7.85 -1.52,-13.82 -9.36,-18.27 z"
                  id="path277" />
            </g>
            <g id="g283">
               <path
                  d="m 486.72,487.28 h -5.56 c -0.52,0 -0.95,0.42 -0.95,0.95 v 66.74 c 0,0.52 0.42,0.95 0.95,0.95 h 5.56 c 0.52,0 0.95,-0.42 0.95,-0.95 v -66.74 c 0,-0.53 -0.42,-0.95 -0.95,-0.95 z"
                  id="path281" />
            </g>
            <g id="g287">
               <path
                  d="m 380.08,487.28 h -5.56 c -0.52,0 -0.95,0.42 -0.95,0.95 v 23.16 18.05 c -0.2,0.71 -0.64,1.06 -1.45,1.18 h -11.27 c -3.78,-0.01 -7.56,-0.02 -11.35,0 h -11.14 c -0.81,-0.12 -1.25,-0.45 -1.46,-1.17 v -19.98 -21.24 c 0,-0.52 -0.42,-0.95 -0.95,-0.95 h -5.56 c -0.52,0 -0.95,0.42 -0.95,0.95 v 15.85 36.02 14.87 c 0,0.52 0.42,0.95 0.95,0.95 h 5.56 c 0.52,0 0.95,-0.42 0.95,-0.95 v -16.28 -4.9 c 0.21,-0.76 0.69,-1.09 1.59,-1.19 h 7.95 c 5.57,0.04 11.14,0.04 16.71,0 h 8.69 c 0.97,0.12 1.49,0.5 1.73,1.37 v 2.36 18.64 c 0,0.52 0.42,0.95 0.95,0.95 h 5.56 c 0.52,0 0.95,-0.42 0.95,-0.95 v -15.64 -31.29 -19.81 c 0,-0.53 -0.42,-0.95 -0.95,-0.95 z"
                  id="path285" />
            </g>
            <g id="g291">
               <path
                  d="m 307.75,487.28 h -20.02 -5.56 -20.02 c -0.39,0 -0.7,0.29 -0.7,0.65 v 0.68 c 0,0.36 0.31,0.65 0.7,0.65 h 16.83 c 0.38,0.03 0.75,0.13 1.06,0.31 0.03,0.02 0.06,0.03 0.09,0.05 0.62,0.39 1.04,1.04 1.09,1.78 v 63.57 c 0,0.52 0.42,0.95 0.95,0.95 h 5.56 c 0.52,0 0.95,-0.42 0.95,-0.95 v -63.48 c 0.03,-0.62 0.31,-1.18 0.76,-1.58 0.09,-0.09 0.19,-0.16 0.3,-0.23 0.01,-0.01 0.03,-0.02 0.04,-0.03 0.09,-0.06 0.19,-0.11 0.3,-0.15 0.08,-0.04 0.17,-0.07 0.26,-0.1 0.04,-0.01 0.09,-0.03 0.13,-0.04 0.12,-0.03 0.24,-0.06 0.37,-0.07 0.05,-0.01 0.1,-0.02 0.16,-0.03 h 16.76 c 0.39,0 0.7,-0.29 0.7,-0.65 v -0.68 c -0.01,-0.36 -0.32,-0.65 -0.71,-0.65 z"
                  id="path289" />
            </g>
            <g id="g295">
               <path
                  d="m 458.39,552.44 -24.81,-64.41 c -0.03,-0.09 -0.09,-0.2 -0.17,-0.31 -0.26,-0.32 -0.62,-0.41 -0.76,-0.44 -1.21,0 -2.42,0 -3.63,0.01 v 0 c -0.35,0 -0.67,0.2 -0.81,0.54 l -26.12,66.83 c -0.17,0.44 0.04,0.94 0.49,1.11 l 0.24,0.09 c 0.44,0.17 0.94,-0.05 1.11,-0.49 l 8.35,-21.36 c 0.55,-0.98 1.29,-1.49 2.63,-1.48 h 0.83 c 8.34,0.1 16.68,0.08 25.02,0.01 1.15,-0.01 1.86,0.3 2.4,1.11 l 8.27,21.48 c 0.05,0.1 0.2,0.42 0.56,0.63 0.18,0.1 0.36,0.15 0.51,0.17 h 5.53 c 0.08,-0.02 0.67,-0.21 0.92,-0.81 0.16,-0.38 0.09,-0.73 0.06,-0.86 z m -44.76,-21.91 14.27,-36.5 14.06,36.5 z"
                  id="path293" />
            </g>
            <g id="g299">
               <path
                  d="m 696.39,555.36 v -0.88 c 0,-0.31 -0.25,-0.55 -0.56,-0.55 h -24.61 c -0.55,-0.26 -0.8,-0.74 -0.9,-1.47 v -18.59 c 0.15,-0.87 0.58,-1.26 1.27,-1.43 h 24.29 c 0.28,0 0.5,-0.22 0.5,-0.5 v -0.96 c 0,-0.28 -0.22,-0.5 -0.5,-0.5 h -24.06 c -0.89,-0.13 -1.34,-0.52 -1.49,-1.32 0,0 -0.01,0 -0.01,0.01 V 490.7 c 0.17,-1.09 0.79,-1.44 2.19,-1.44 h 23.35 c 0.28,0 0.52,-0.23 0.52,-0.52 v -0.96 c 0,-0.28 -0.23,-0.52 -0.52,-0.52 h -26.37 c -0.02,0 -0.04,0.02 -0.06,0.03 -0.03,0 -0.04,-0.02 -0.07,-0.02 h -5.59 c -0.52,0 -0.95,0.43 -0.95,0.95 v 66.74 c 0,0.52 0.43,0.95 0.95,0.95 h 32.05 c 0.32,0.01 0.57,-0.24 0.57,-0.55 z"
                  id="path297" />
            </g>
            <g id="g303">
               <path
                  d="m 782.39,555.92 h 32.05 c 0.31,0 0.56,-0.25 0.56,-0.55 v -0.88 c 0,-0.31 -0.25,-0.55 -0.56,-0.55 h -24.61 c -0.55,-0.26 -0.8,-0.74 -0.9,-1.47 v -18.59 c 0.15,-0.87 0.58,-1.26 1.27,-1.43 h 24.29 c 0.28,0 0.5,-0.22 0.5,-0.5 v -0.96 c 0,-0.28 -0.22,-0.5 -0.5,-0.5 h -24.06 c -0.89,-0.13 -1.34,-0.52 -1.49,-1.32 0,0 -0.01,0 -0.01,0.01 V 490.7 c 0.17,-1.09 0.79,-1.44 2.19,-1.44 h 23.35 c 0.28,0 0.52,-0.23 0.52,-0.52 v -0.96 c 0,-0.28 -0.23,-0.52 -0.52,-0.52 H 788.1 c -0.02,0 -0.04,0.02 -0.06,0.03 -0.03,0 -0.04,-0.02 -0.07,-0.02 h -5.59 c -0.52,0 -0.95,0.43 -0.95,0.95 v 66.74 c 0.01,0.53 0.43,0.96 0.96,0.96 z"
                  id="path301" />
            </g>
            <g id="g307">
               <path
                  d="m 993.93,489.26 h 23.35 c 0.28,0 0.52,-0.23 0.52,-0.52 v -0.96 c 0,-0.28 -0.23,-0.52 -0.52,-0.52 h -26.37 c -0.02,0 -0.04,0.02 -0.06,0.03 -0.03,0 -0.04,-0.02 -0.07,-0.02 h -5.59 c -0.52,0 -0.95,0.43 -0.95,0.95 v 66.74 c 0,0.52 0.43,0.95 0.95,0.95 h 32.05 c 0.31,0 0.56,-0.25 0.56,-0.55 v -0.88 c 0,-0.31 -0.25,-0.55 -0.56,-0.55 h -24.61 c -0.55,-0.26 -0.8,-0.74 -0.9,-1.47 v -18.59 c 0.15,-0.87 0.58,-1.26 1.27,-1.43 h 24.29 c 0.28,0 0.5,-0.22 0.5,-0.5 v -0.96 c 0,-0.28 -0.22,-0.5 -0.5,-0.5 h -24.06 c -0.89,-0.13 -1.34,-0.52 -1.49,-1.32 0,0 -0.01,0 -0.01,0.01 V 490.7 c 0.17,-1.09 0.8,-1.44 2.2,-1.44 z"
                  id="path305" />
            </g>
            <g id="g311">
               <path
                  d="m 621.97,526.63 c 0.02,-0.01 0.04,-0.01 0.06,-0.02 1.1,-0.26 1.85,-0.48 2.61,-0.62 9.43,-1.69 15.71,-9.25 15.78,-18.97 0.04,-6.21 -2.46,-11.66 -6.74,-15.19 -2.98,-2.46 -5.97,-3.22 -8.8,-3.93 -1.29,-0.33 -2.42,-0.52 -3.73,-0.62 h -14.53 c -0.23,0 -0.44,0 -0.67,0 -2.39,0.01 -4.33,0.01 -5.52,0 -0.52,0 -0.94,0.42 -0.94,0.94 v 66.75 c 0,0.52 0.42,0.94 0.94,0.94 h 5.52 c 0.52,0 0.94,-0.42 0.94,-0.94 v -27.91 c 0.1,-0.24 0.27,-0.46 0.6,-0.64 1.66,-0.91 6.44,0.3 7.58,1.94 0.19,0.27 0.4,0.57 0.4,0.57 0.05,0.08 0.1,0.16 0.13,0.21 6.14,8.83 12.28,17.65 18.42,26.48 0.1,0.15 0.25,0.24 0.42,0.27 0.03,0.01 0.07,0.01 0.1,0.02 h 6.99 l 0.02,-0.01 c 0.3,-0.22 0.36,-0.65 0.15,-0.95 -6.56,-9.44 -13.14,-18.88 -19.73,-28.32 z m -13.88,-2.2 c -0.68,-0.16 -1.06,-0.55 -1.19,-1.32 v -32.46 c 0.12,-0.76 0.46,-1.16 1.18,-1.3 h 10.87 c 8.25,0.22 12.41,3.69 14.09,12.16 0.93,4.73 0.82,9.53 -0.94,14.15 -2.13,5.64 -5.92,8.49 -11.67,8.77 z"
                  id="path309" />
            </g>
         </g>
      </g>
   </g>
</svg>