<?xml version="1.0" encoding="UTF-8" standalone="no"?>
<svg version="1.1" id="Camada_1" x="0px" y="0px" viewBox="290 290 472.01709 451.01611" xml:space="preserve"
   sodipodi:docname="logo.svg" width="472.01709" height="451.01611" inkscape:version="1.2 (dc2aedaf03, 2022-05-15)"
   xmlns:inkscape="http://www.inkscape.org/namespaces/inkscape"
   xmlns:sodipodi="http://sodipodi.sourceforge.net/DTD/sodipodi-0.dtd" xmlns="http://www.w3.org/2000/svg"
   xmlns:svg="http://www.w3.org/2000/svg">
   <defs id="defs1030" />
   <sodipodi:namedview id="namedview1028" pagecolor="#ffffff" bordercolor="#999999" borderopacity="1"
      inkscape:showpageshadow="0" inkscape:pageopacity="0" inkscape:pagecheckerboard="0" inkscape:deskcolor="#d1d1d1"
      showgrid="false" inkscape:zoom="1.686" inkscape:cx="161.03203" inkscape:cy="131.37604"
      inkscape:window-width="1920" inkscape:window-height="1001" inkscape:window-x="-9" inkscape:window-y="1341"
      inkscape:window-maximized="1" inkscape:current-layer="Camada_1" />
   <g id="g1025" transform="translate(-14.001214,-24.527888)" class="logo-only">
      <path class="logo"
         d="m 734.92,761.16 c 4.69,-2.56 7.98,-6.5 10.59,-10.83 2.6,-4.33 3.93,-9.58 3.78,-14.61 -0.03,-2.57 -0.58,-5.12 -1.22,-7.46 -0.64,-2.39 -1.46,-4.72 -2.44,-6.99 -0.49,-1.13 -1.03,-2.25 -1.55,-3.31 -0.42,-0.98 -0.79,-1.94 -0.94,-2.95 -0.34,-2 0.1,-4.11 0.89,-6.24 1.62,-4.25 3.99,-8.64 5.31,-13.4 1.39,-4.74 1.93,-9.73 1.72,-14.64 -0.18,-4.94 -1.37,-9.7 -2.05,-14.31 -0.7,-4.62 -0.67,-9.27 0.15,-13.88 0.41,-2.28 0.86,-4.67 1.56,-6.79 0.35,-1.1 0.9,-2.08 1.33,-3.13 0.56,-0.97 1.11,-1.97 1.81,-2.85 1.34,-1.82 3.09,-3.3 4.94,-4.64 1.9,-1.3 3.98,-2.36 6.11,-3.4 2.13,-1.04 4.36,-2.02 6.46,-3.43 2.08,-1.35 4.07,-3.56 4.51,-6.27 0.46,-2.65 -0.27,-5.34 -1.56,-7.52 -1.36,-2.14 -3.03,-3.97 -4.81,-5.62 -3.55,-3.32 -7.4,-6.17 -11.13,-9.15 -7.51,-5.87 -14.72,-12.12 -20.79,-19.43 -3.07,-3.61 -5.79,-7.53 -7.97,-11.72 -1.09,-2.1 -2.02,-4.26 -2.81,-6.51 -0.84,-2.23 -1.62,-4.48 -2.33,-6.75 -2.93,-9.07 -4.62,-18.48 -6.21,-27.9 -3.08,-18.85 -8.53,-37.48 -17.54,-54.37 8.82,17 14.03,35.62 16.9,54.48 1.49,9.43 3.08,18.91 5.92,28.08 0.7,2.3 1.45,4.57 2.27,6.82 0.76,2.27 1.7,4.52 2.79,6.67 2.18,4.31 4.9,8.33 7.98,12.03 6.07,7.49 13.32,13.9 20.78,19.88 3.71,3.02 7.51,5.93 10.91,9.17 1.71,1.61 3.25,3.37 4.43,5.28 1.1,1.94 1.63,4.1 1.26,6.19 -0.37,2.09 -1.84,3.73 -3.73,4.95 -1.88,1.24 -4.06,2.19 -6.23,3.21 -2.17,1.03 -4.37,2.12 -6.43,3.5 -2.03,1.42 -3.98,3.05 -5.51,5.07 -0.79,0.98 -1.42,2.08 -2.06,3.16 -0.5,1.15 -1.12,2.27 -1.51,3.44 -0.82,2.41 -1.27,4.73 -1.74,7.14 -0.92,4.8 -1,9.82 -0.33,14.66 0.66,4.84 1.76,9.43 1.86,14.07 0.15,4.63 -0.41,9.27 -1.76,13.68 -1.29,4.46 -3.56,8.52 -5.4,13.17 -0.89,2.31 -1.55,5.03 -1.13,7.78 0.19,1.37 0.66,2.65 1.18,3.87 0.52,1.1 1.01,2.13 1.46,3.2 0.89,2.13 1.64,4.32 2.21,6.56 0.59,2.28 1.03,4.44 1.02,6.66 0.06,4.53 -1.1,8.87 -3.45,12.73 -2.31,3.79 -5.5,7.39 -9.28,9.34 -3.87,2.06 -8.46,2.98 -13.05,3.38 -4.6,0.41 -9.3,0.3 -13.94,-0.14 -4.56,-0.44 -9.3,-1.47 -14.01,-2.21 -9.41,-1.62 -18.82,-3.25 -28.16,-5.09 -9.34,-1.82 -18.6,-3.92 -27.67,-6.56 -4.53,-1.34 -9.01,-2.83 -13.43,-4.46 -4.43,-1.67 -8.74,-3.47 -13.17,-5.35 -8.76,-3.77 -17.75,-7.19 -25.54,-12 -3.89,-2.42 -7.31,-5.29 -10.27,-8.77 -3.03,-3.45 -5.73,-7.26 -8.27,-11.21 -5.12,-7.9 -9.43,-16.46 -15.4,-24.42 -1.51,-1.98 -3.2,-3.88 -5.08,-5.66 -1.04,-0.81 -1.93,-1.75 -3.11,-2.44 l -1.69,-1.09 -1.64,-0.88 c -4.4,-2.28 -8.95,-4.12 -13.6,-5.67 -2.27,-0.74 -4.77,-1.52 -7.07,-2 -2.32,-0.52 -4.45,-1.18 -6.62,-1.97 -4.3,-1.56 -8.41,-3.64 -12.2,-6.18 -7.57,-5.04 -13.64,-12.29 -18.17,-20.25 -4.43,-7.95 -7.03,-17.05 -5.76,-25.93 0.48,-4.5 1.73,-8.9 3.78,-12.76 2.05,-3.87 5.08,-7.04 8.8,-9.02 7.49,-3.93 17.42,-2.16 24.37,2.93 3.4,2.62 6.05,6.06 7.49,10.15 1.48,4.07 1.9,8.58 1.66,13.09 -0.11,1.85 -0.35,3.7 -0.66,5.54 -3.12,2.04 -6.34,4.07 -9.4,6.93 -0.96,0.96 -1.92,1.99 -2.69,3.38 -0.73,1.37 -1.34,3.11 -1.12,4.9 0.15,1.75 0.71,3.12 1.52,4.5 0.43,0.68 0.94,1.35 1.69,1.99 0.72,0.61 1.86,1.29 3.31,1.24 1.47,-0.02 2.46,-0.69 3.17,-1.23 0.73,-0.58 1.22,-1.17 1.68,-1.75 0.89,-1.17 1.53,-2.32 2.11,-3.48 1.14,-2.31 2.04,-4.63 2.78,-7.04 0.64,-2.09 1.17,-4.21 1.62,-6.35 0.26,-0.18 0.53,-0.35 0.79,-0.52 4.07,-2.72 7.89,-5.67 11.66,-8.76 3.75,-3.12 7.37,-6.48 10.58,-10.32 3.2,-3.81 6.09,-8.2 7.43,-13.46 0.69,-2.62 0.77,-5.47 0.26,-8.19 -0.51,-2.72 -1.62,-5.24 -2.98,-7.47 -2.75,-4.48 -6.33,-7.96 -9.81,-11.31 -3.52,-3.32 -7.07,-6.48 -10.39,-9.78 -3.26,-3.22 -6.3,-6.66 -8.84,-10.35 0.87,0.5 1.73,1 2.61,1.48 17.34,9.19 37.68,13.04 57.21,9.39 9.72,-1.83 19.17,-5.85 27.04,-11.98 7.92,-6.08 14.24,-13.97 19.08,-22.5 0.18,-0.31 0.33,-0.62 0.51,-0.93 8.26,-1.37 16.47,-4.17 23.47,-9.41 8.21,-6.33 13.21,-15.55 16.33,-24.86 3.09,-9.4 4.46,-19.25 4.41,-29.04 -0.01,-9.8 -1.44,-19.59 -4.29,-29 -2.91,-9.37 -7.31,-18.43 -13.68,-26.13 -3.2,-3.82 -6.87,-7.28 -10.98,-10.18 -3.25,-2.27 -6.78,-4.12 -10.45,-5.62 -0.79,-1.86 -1.6,-3.72 -2.48,-5.55 -4.27,-8.73 -9.28,-17.15 -15.39,-24.82 -6.2,-7.56 -13.47,-14.54 -22.57,-19.12 -8.93,-4.19 -18.36,-7.08 -28.16,-8.35 -4.89,-0.65 -9.86,-0.85 -14.82,-0.43 -2.49,0.1 -4.94,0.61 -7.41,0.97 -2.42,0.64 -4.89,1.08 -7.23,2.02 -0.1,0.03 -0.2,0.08 -0.3,0.11 -8.9,-5.63 -18.8,-9.67 -29.15,-11.7 -9.67,-1.93 -19.66,-2.12 -29.39,-0.72 -4.86,0.71 -9.68,1.78 -14.37,3.28 -4.67,1.53 -9.16,3.18 -13.67,5.22 -8.93,4.06 -17.39,9.77 -23.85,17.45 -3.01,3.52 -5.49,7.46 -7.58,11.58 -3.56,1.68 -7,3.63 -10.21,5.96 -1.05,0.67 -1.98,1.51 -2.97,2.28 -1,0.75 -1.93,1.59 -2.83,2.47 -1.92,1.76 -3.41,3.3 -5.21,5.04 -3.58,3.39 -6.74,7.69 -8.96,12.1 -4.53,8.86 -7.42,18.08 -10.19,27.29 -1.34,4.62 -2.59,9.26 -3.81,13.9 -1.16,4.54 -2.62,8.97 -4.39,13.28 -3.54,8.62 -8.38,16.7 -14.4,23.81 -5.99,7.15 -13.18,13.26 -20.91,18.64 -3.87,2.69 -7.88,5.22 -11.94,7.74 -4.05,2.54 -8.18,5.01 -12.09,8.13 -1.93,1.58 -3.84,3.36 -5.29,5.71 -1.5,2.29 -2.17,5.4 -1.57,8.16 0.47,2.82 2.15,5.31 4.04,7.08 1.89,1.81 3.95,3.19 5.91,4.54 1.96,1.35 3.84,2.7 5.55,4.19 1.68,1.51 3.1,3.2 4.26,5.06 2.11,3.81 3.17,8.36 2.12,12.61 -1.02,4.3 -3.27,8.79 -4.37,13.6 -1.19,4.8 -1.53,9.75 -1.41,14.63 0.07,4.88 1.09,9.89 2.73,14.43 0.77,2.27 1.53,4.43 1.79,6.65 0.27,2.22 0.2,4.5 -0.16,6.78 -0.65,4.61 -2.15,8.98 -4.32,13.18 -1.06,2.12 -2.18,4.29 -3.04,6.62 -0.87,2.32 -1.43,4.77 -1.71,7.22 -0.67,4.93 0.27,10.07 2.34,14.54 2.05,4.47 5.24,8.58 9.52,11.2 4.23,2.69 9.17,3.8 13.98,4.31 4.84,0.46 9.67,0.29 14.44,0.11 9.55,-0.34 19.1,-0.7 28.64,-0.89 9.54,-0.18 19.1,-0.26 28.57,0.67 4.72,0.49 9.45,1.26 13.86,2.97 4.39,1.69 8.36,4.56 10.91,8.56 2.5,4.01 3.88,8.65 4.51,13.36 0.64,4.72 0.59,9.51 0.28,14.26 -0.67,9.52 -2.53,18.94 -4.89,28.19 2.46,-9.23 4.43,-18.62 5.21,-28.17 0.36,-4.77 0.47,-9.58 -0.12,-14.35 -0.58,-4.76 -1.92,-9.49 -4.44,-13.64 -2.57,-4.14 -6.67,-7.18 -11.15,-8.96 -4.5,-1.81 -9.29,-2.63 -14.05,-3.19 -9.55,-1.04 -19.14,-1.06 -28.7,-0.99 -9.56,0.09 -19.12,0.34 -28.67,0.57 -4.78,0.13 -9.53,0.23 -14.21,-0.26 -4.64,-0.54 -9.28,-1.66 -13.13,-4.18 -3.88,-2.42 -6.77,-6.22 -8.65,-10.43 -1.87,-4.22 -2.67,-8.86 -2,-13.41 0.49,-4.63 2.39,-8.79 4.67,-13.03 2.28,-4.26 3.99,-9.02 4.71,-13.88 0.42,-2.43 0.54,-4.97 0.26,-7.5 -0.27,-2.54 -1.09,-4.94 -1.83,-7.19 -1.55,-4.47 -2.4,-8.95 -2.43,-13.64 -0.07,-4.66 0.32,-9.33 1.48,-13.8 1.07,-4.52 3.26,-8.64 4.54,-13.63 0.61,-2.49 0.7,-5.21 0.25,-7.75 -0.41,-2.55 -1.38,-4.98 -2.58,-7.27 -1.34,-2.22 -3,-4.22 -4.87,-5.93 -1.88,-1.68 -3.88,-3.13 -5.83,-4.52 -3.87,-2.71 -7.78,-5.47 -8.33,-9.36 -0.88,-3.91 2.07,-7.43 5.63,-10.21 3.6,-2.81 7.71,-5.22 11.78,-7.71 4.09,-2.47 8.2,-5 12.21,-7.72 8,-5.44 15.59,-11.72 21.97,-19.16 6.42,-7.4 11.61,-15.86 15.43,-24.87 1.91,-4.5 3.5,-9.16 4.76,-13.86 1.26,-4.59 2.55,-9.17 3.92,-13.71 2.74,-9.06 5.67,-18.15 9.89,-26.32 2.12,-4.11 4.69,-7.61 8.02,-10.83 1.64,-1.59 3.48,-3.47 5.08,-4.94 0.81,-0.79 1.65,-1.55 2.56,-2.24 0.9,-0.7 1.74,-1.47 2.71,-2.09 1.31,-0.96 2.68,-1.84 4.08,-2.68 -0.87,2.5 -1.61,5.05 -2.08,7.66 -1.45,7 -1.78,14.21 -1.07,21.32 -0.42,0.67 -0.85,1.33 -1.23,2.01 -2.43,4.42 -4.17,9.17 -5.28,14.06 -1.07,4.89 -1.6,9.97 -1.03,15.03 0.81,10.21 5.64,19.65 12.02,27.2 6.45,7.6 14.32,13.67 22.94,18.49 4.47,2.3 9.04,4.18 13.82,5.48 4.75,1.36 9.6,2.3 14.49,2.79 8.59,0.97 17.25,0.67 25.77,-0.45 -2.06,7.54 -3.05,15.48 -2.17,23.42 1.05,10.04 5.52,19.55 11.74,27.27 3.28,4.06 7.03,7.66 11.09,10.85 3.19,7.86 8.66,14.54 14.41,20.23 3.46,3.44 7.06,6.63 10.48,9.87 3.39,3.24 6.7,6.54 8.95,10.25 2.29,3.68 3.18,7.74 2.12,11.77 -1.02,4.03 -3.45,7.91 -6.38,11.37 -5.08,6.01 -11.48,11.2 -18.07,15.93 0.04,-0.45 0.1,-0.89 0.13,-1.34 0.27,-5.01 -0.17,-10.21 -1.96,-15.14 -1.73,-4.95 -5.09,-9.37 -9.28,-12.55 -4.23,-3.09 -9.15,-5.07 -14.32,-5.8 -5.16,-0.73 -10.69,-0.04 -15.48,2.45 -4.74,2.5 -8.55,6.57 -10.96,11.15 -2.43,4.59 -3.81,9.57 -4.35,14.55 -1.44,10.2 1.55,20.45 6.37,29.08 2.43,4.34 5.31,8.4 8.59,12.11 3.23,3.74 7.07,7.14 11.2,9.9 4.15,2.79 8.63,5.05 13.31,6.75 2.32,0.84 4.77,1.6 7.11,2.12 2.38,0.5 4.45,1.16 6.72,1.9 4.42,1.47 8.75,3.23 12.83,5.35 l 1.51,0.81 1.32,0.86 c 0.91,0.5 1.67,1.33 2.52,1.98 1.59,1.5 3.09,3.17 4.47,5 5.54,7.33 9.86,15.94 15.1,24.09 2.62,4.09 5.44,8.11 8.71,11.85 3.21,3.82 7.2,7.17 11.44,9.76 8.54,5.2 17.55,8.56 26.32,12.31 8.77,3.8 17.96,7.16 27.25,9.76 9.31,2.6 18.74,4.62 28.17,6.35 9.43,1.74 18.88,3.27 28.32,4.78 l 7.08,1.13 c 2.32,0.38 4.82,0.78 7.25,0.96 4.87,0.4 9.77,0.47 14.69,-0.02 4.84,-0.56 9.83,-1.56 14.4,-4.04 z M 607.84,536.59 c -7.23,5.62 -15.86,9.31 -24.9,11.02 -18.14,3.42 -37.48,-0.2 -53.79,-8.87 -3.49,-1.88 -6.84,-4.02 -10,-6.41 -0.34,-0.93 -0.65,-1.88 -0.91,-2.84 -1.22,-4.3 -1.62,-8.83 -1.34,-13.35 0.29,-4.49 1.2,-9 3.18,-12.72 1.96,-3.75 5.2,-6.29 9.14,-6.61 4,-0.31 8.42,1.09 12.7,2.79 4.3,1.75 8.59,3.83 12.99,5.8 4.4,1.98 8.97,3.8 13.59,5.31 9.24,3.05 18.72,5.27 28.36,6.57 9,1.19 18.16,1.58 27.31,0.75 -4.37,7.1 -9.78,13.53 -16.33,18.56 z m 35.01,-143.74 c 3.71,2.61 7.05,5.75 9.98,9.25 5.84,7.05 9.98,15.5 12.72,24.35 2.68,8.88 4.06,18.2 4.06,27.51 0.06,9.3 -1.27,18.64 -4.14,27.4 -2.89,8.68 -7.53,17.01 -14.6,22.42 -5.02,3.76 -11.02,6.19 -17.34,7.65 3.06,-6.58 5.4,-13.45 7.38,-20.36 2.58,-9.39 4.48,-18.72 5.86,-28.42 0.47,-2.39 0.46,-4.84 0.7,-7.26 0.14,-2.43 0.44,-4.85 0.46,-7.28 -0.1,-4.86 0.18,-9.73 -0.38,-14.57 l -0.6,-7.26 -1.09,-7.2 -0.56,-3.6 -0.79,-3.55 -1.61,-7.1 c -1.4,-4.99 -2.97,-9.94 -4.76,-14.8 1.61,0.83 3.2,1.76 4.71,2.82 z m -97.31,-62.08 c 2.26,-0.32 4.49,-0.8 6.79,-0.89 4.56,-0.4 9.19,-0.21 13.77,0.4 9.15,1.18 18.23,3.95 26.58,7.88 8.05,4.04 14.94,10.54 20.81,17.72 5.8,7.3 10.63,15.38 14.75,23.8 0.17,0.35 0.31,0.7 0.47,1.05 -8.43,-2.25 -17.28,-2.3 -25.75,-1.32 -8.94,1.05 -17.58,3.46 -25.91,6.55 -1.05,-5.08 -2.61,-10.04 -4.5,-14.81 -3.72,-9.08 -8.65,-17.67 -14.98,-25.24 -4.44,-5.38 -9.56,-10.2 -15.17,-14.36 1.04,-0.26 2.1,-0.5 3.14,-0.78 z m 27.79,69.22 c 0.03,6.71 -1.37,13.33 -3.92,19.5 -4.55,0.89 -9.13,1.41 -13.71,1.34 -6.97,-0.02 -13.77,-1.7 -20.3,-4.32 4.94,-4.59 10.27,-8.75 15.97,-12.37 1.94,-1.29 4,-2.4 6.01,-3.59 2.09,-1.06 4.1,-2.18 6.25,-3.21 3.1,-1.51 6.22,-2.89 9.37,-4.21 0.24,2.29 0.36,4.58 0.33,6.86 z m -0.29,23.99 c 3.91,-0.88 7.74,-1.97 11.48,-3.17 4.6,-1.45 9.11,-3.05 13.59,-4.36 4.44,-1.28 9.01,-2.33 13,-1.75 1.97,0.32 3.76,0.97 5.19,2.33 0.82,0.5 1.36,1.45 2.07,2.14 0.56,0.87 1.16,1.72 1.64,2.67 1.91,3.83 2.85,8.31 3.14,12.8 0.56,9.02 -1.43,18.35 -5.8,26.19 -4.28,7.92 -11.59,13.8 -20.1,16.97 -4.24,1.61 -8.72,2.68 -13.27,3.21 -4.56,0.56 -9.09,0.53 -13.42,-0.41 -8.7,-1.94 -16.8,-7.06 -24.48,-12.41 -3.47,-2.47 -6.88,-5.05 -10.24,-7.7 5.31,-2.88 10.43,-6.13 15.23,-9.87 7.7,-6.07 14.57,-13.39 19.57,-22.02 0.87,-1.48 1.66,-3.04 2.4,-4.62 z m -6.86,2.06 c -4.6,7.94 -11.02,14.8 -18.31,20.55 -5.11,3.98 -10.62,7.43 -16.39,10.41 -2.58,-2.11 -5.14,-4.25 -7.66,-6.45 -3.12,-2.68 -6.19,-5.42 -9.26,-8.17 4.76,-7.95 10.41,-15.34 16.86,-21.95 3.04,1.32 6.15,2.48 9.39,3.4 4.82,1.37 9.82,2.1 14.81,2.16 3.72,0.05 7.39,-0.24 11.01,-0.78 -0.15,0.27 -0.29,0.55 -0.45,0.83 z m -45.72,28.41 c 1.94,1.69 3.91,3.36 5.89,5.01 -7.84,3.55 -16.08,6.23 -24.5,8 2.68,-7.09 6.21,-13.88 10.05,-20.56 2.84,2.53 5.68,5.06 8.56,7.55 z m 8.88,-40.64 c -8.25,-4.11 -15.95,-9.66 -20.99,-17.08 -2.51,-3.69 -4.26,-7.81 -5.13,-12.14 -0.85,-4.33 -0.73,-8.83 0.22,-13.2 1.91,-8.78 6.91,-16.85 13.09,-23.61 3.11,-3.38 6.58,-6.46 10.32,-9.08 3.03,-1.96 6.16,-3.78 9.51,-5.14 6.45,4.36 12.29,9.62 17.26,15.63 5.94,7.1 10.64,15.28 14.16,23.88 1.91,4.8 3.43,9.77 4.41,14.82 -3.65,1.5 -7.27,3.1 -10.79,4.82 -2.16,1.02 -4.33,2.23 -6.5,3.33 -2.1,1.25 -4.25,2.41 -6.29,3.76 -6.58,4.17 -12.69,9.05 -18.29,14.45 -0.33,-0.14 -0.66,-0.28 -0.98,-0.44 z M 430.49,344.7 c 5.88,-6.98 13.63,-12.25 22.06,-16.09 4.2,-1.9 8.69,-3.55 13.1,-5 4.41,-1.42 8.96,-2.42 13.54,-3.09 9.18,-1.32 18.57,-1.13 27.65,0.68 8.53,1.68 16.73,4.81 24.26,9.11 -2.48,1.24 -4.88,2.67 -7.2,4.18 -4.09,2.87 -7.8,6.18 -11.16,9.82 -6.65,7.28 -12.14,16.01 -14.33,26 -1.08,4.96 -1.24,10.21 -0.24,15.26 1,5.05 3.06,9.86 5.93,14.07 5.65,8.28 13.81,14.13 22.36,18.48 -6,6.33 -11.27,13.32 -15.79,20.75 -4.22,-3.84 -8.39,-7.73 -12.53,-11.67 0.16,-0.57 0.34,-1.13 0.49,-1.7 2.28,-9.78 2.16,-19.82 0.49,-29.52 -1.73,-9.69 -5.11,-19.19 -10.6,-27.55 -5.43,-8.33 -13.37,-15.41 -22.91,-19.02 -9.52,-3.55 -19.91,-3.96 -29.63,-2.05 -3.16,0.57 -6.25,1.42 -9.27,2.46 1.15,-1.79 2.4,-3.5 3.78,-5.12 z m -11.63,24.46 c 0.76,-4.27 2.28,-8.34 3.97,-12.29 0.32,-0.15 0.64,-0.3 0.97,-0.44 4.22,-1.82 8.64,-3.2 13.15,-4.02 8.98,-1.77 18.4,-1.34 26.83,1.8 8.41,3.19 15.46,9.41 20.45,17.04 5.02,7.64 8.21,16.52 9.83,25.61 1.52,8.7 1.63,17.73 -0.18,26.26 -3.98,-3.82 -7.94,-7.66 -11.88,-11.52 -6.85,-6.65 -13.51,-13.46 -20.47,-20.12 -3.49,-3.32 -7.04,-6.62 -10.98,-9.64 -2,-1.48 -4.03,-2.96 -6.36,-4.14 -2.28,-1.21 -4.84,-2.23 -7.61,-2.54 -2.74,-0.33 -5.63,-0.14 -8.18,0.8 -1.34,0.31 -2.49,1.04 -3.74,1.56 -1.11,0.72 -2.32,1.34 -3.32,2.18 -1.38,1.06 -2.61,2.25 -3.78,3.49 -0.11,-4.72 0.29,-9.43 1.3,-14.03 z m 73.4,59.54 c -1,2.77 -2.26,5.41 -3.94,7.67 -2.52,3.51 -6.07,5.72 -10.23,6.62 -4.16,0.92 -8.7,0.6 -13.11,-0.36 -4.42,-0.98 -8.76,-2.59 -12.9,-4.6 -4.14,-2.01 -8.11,-4.43 -11.76,-7.21 -1.83,-1.38 -3.55,-2.88 -5.14,-4.51 -1.71,-1.52 -3.1,-3.34 -4.59,-5.07 -5.66,-7.17 -9.49,-15.76 -11.52,-24.72 -0.4,-1.95 -0.72,-3.92 -0.97,-5.9 1.81,-2.61 3.91,-4.97 6.34,-6.84 0.82,-0.71 1.78,-1.16 2.66,-1.75 0.97,-0.37 1.86,-0.98 2.87,-1.19 1.95,-0.74 3.97,-0.81 5.95,-0.6 3.99,0.45 7.87,2.96 11.51,5.67 3.65,2.79 7.11,6.01 10.55,9.27 6.86,6.55 13.55,13.4 20.42,20.07 4.57,4.53 9.21,9.01 13.86,13.45 z m -23.23,40.66 c -4.62,-0.46 -9.19,-1.35 -13.62,-2.62 -4.45,-1.2 -8.76,-2.99 -12.78,-5.05 -8.04,-4.49 -15.55,-10.29 -21.46,-17.29 -5.89,-6.97 -10.13,-15.39 -10.83,-24.35 -0.72,-7.44 0.78,-15.17 3.78,-22.13 2.16,9.58 6.32,18.7 12.43,26.52 1.62,1.9 3.15,3.87 5.02,5.55 1.75,1.78 3.64,3.43 5.62,4.93 3.95,3.01 8.19,5.59 12.64,7.75 4.45,2.15 9.13,3.91 14.04,4.99 4.9,1.06 10.11,1.49 15.32,0.36 5.19,-1.04 10.23,-4.25 13.26,-8.57 1.61,-2.17 2.86,-4.49 3.87,-6.89 3.85,3.64 7.74,7.25 11.67,10.82 -4.54,7.86 -8.9,16 -11.92,24.78 -0.05,0.14 -0.09,0.29 -0.14,0.43 -8.91,1.34 -17.99,1.79 -26.9,0.77 z m 38.79,52.13 c -5.7,-7.11 -9.68,-15.59 -10.64,-24.61 -0.87,-7.92 0.28,-16.01 2.67,-23.77 10.69,-1.98 21.14,-5.31 30.95,-10.02 4.01,3.21 8.1,6.33 12.31,9.33 7.93,5.48 16.3,10.94 26.36,13.23 5.02,1.1 10.18,1.1 15.09,0.49 4.94,-0.58 9.82,-1.74 14.52,-3.52 4.68,-1.79 9.17,-4.28 13.09,-7.54 3.93,-3.25 7.2,-7.3 9.66,-11.72 4.91,-8.86 7.05,-18.99 6.45,-29.03 -0.33,-5.02 -1.33,-10.09 -3.7,-14.83 -0.59,-1.18 -1.36,-2.31 -2.11,-3.42 -0.96,-1.01 -1.69,-2.18 -2.89,-3 -2.08,-1.94 -4.97,-3.05 -7.69,-3.46 -5.54,-0.75 -10.53,0.59 -15.21,1.89 -4.7,1.37 -9.2,2.97 -13.71,4.39 -2.5,0.8 -5.01,1.54 -7.53,2.2 1.99,-5.81 3.07,-11.95 3.04,-18.07 0.03,-2.99 -0.18,-5.95 -0.57,-8.89 8.32,-3.15 16.91,-5.6 25.66,-6.61 9.17,-1.06 18.6,-0.81 27.19,2.22 0.24,0.08 0.47,0.19 0.71,0.27 2.53,6.22 4.63,12.62 6.44,19.09 l 1.56,6.87 0.77,3.44 0.54,3.48 1.06,6.97 0.58,7.02 c 0.54,4.68 0.26,9.38 0.37,14.07 -0.01,2.35 -0.31,4.68 -0.44,7.02 -0.23,2.33 -0.21,4.69 -0.67,7 -2.62,17.38 -6.58,35.04 -14.51,50.56 -0.55,0.07 -1.11,0.16 -1.66,0.21 -9.22,1.02 -18.65,0.63 -27.95,-0.59 -9.31,-1.25 -18.51,-3.41 -27.42,-6.35 -4.47,-1.45 -8.79,-3.18 -13.1,-5.12 -4.32,-1.94 -8.63,-4.03 -13.18,-5.88 -4.56,-1.76 -9.47,-3.53 -15.09,-3.14 -2.8,0.22 -5.62,1.32 -7.91,3 -2.3,1.7 -4.03,3.95 -5.29,6.29 -2.5,4.75 -3.45,9.85 -3.79,14.86 -0.22,3.52 -0.04,7.1 0.56,10.62 -1.61,-1.57 -3.12,-3.22 -4.52,-4.95 z m 11.06,105.29 c -0.67,2.16 -1.51,4.3 -2.48,6.28 -0.49,0.97 -1.02,1.91 -1.59,2.64 -0.27,0.41 -0.62,0.7 -0.82,0.86 -0.16,-0.14 -0.39,-0.36 -0.57,-0.69 -0.41,-0.66 -0.75,-1.58 -0.77,-2.22 -0.16,-1.17 0.75,-2.68 2.27,-4.15 1.2,-1.14 2.62,-2.2 4.09,-3.25 -0.04,0.18 -0.08,0.36 -0.13,0.53 z"
         id="path1023" />
   </g>
</svg>