<?xml version="1.0" encoding="UTF-8" standalone="no"?>
<svg
   viewBox="0 0 128 128"
   version="1.1"
   id="svg15"
   sodipodi:docname="Addictions.svg"
   inkscape:version="1.2 (dc2aedaf03, 2022-05-15)"
   xml:space="preserve"
   xmlns:inkscape="http://www.inkscape.org/namespaces/inkscape"
   xmlns:sodipodi="http://sodipodi.sourceforge.net/DTD/sodipodi-0.dtd"
   xmlns="http://www.w3.org/2000/svg"
   xmlns:svg="http://www.w3.org/2000/svg"><sodipodi:namedview
   id="namedview17"
   pagecolor="#ffffff"
   bordercolor="#999999"
   borderopacity="1"
   inkscape:showpageshadow="0"
   inkscape:pageopacity="0"
   inkscape:pagecheckerboard="0"
   inkscape:deskcolor="#d1d1d1"
   showgrid="true"
   inkscape:zoom="15.575606"
   inkscape:cx="59.22723"
   inkscape:cy="37.783442"
   inkscape:window-width="1920"
   inkscape:window-height="1001"
   inkscape:window-x="-9"
   inkscape:window-y="1341"
   inkscape:window-maximized="1"
   inkscape:current-layer="svg15"><inkscape:grid
     type="xygrid"
     id="grid1689" /></sodipodi:namedview><defs
   id="defs4"><style
     id="style2">.head { 
 }
 .mental-icon {
   fill: white;
 }
</style></defs><g
   id="Anxiety"
   inkscape:label="Head"><path
     d="m 109.45559,65.94924 -7.03833,-9.797509 a 4.2694678,4.2694678 0 0 1 -0.3098,-4.453413 c 0.87132,-1.74264 0.65833,-2.817268 0.65833,-8.432441 C 102.73675,20.931042 85.445885,0 57.689504,0 A 43.565998,43.565998 0 0 0 14.23,43.265877 c 0,8.7132 0.832595,16.506673 4.743853,25.878203 a 59.743506,59.743506 0 0 1 4.714809,26.623666 C 23.059376,107.4628 22.333276,122.74962 22.323594,122.87548 a 0.96934271,0.96934271 0 0 0 1.936267,0.0968 C 25.48939,95.622526 27.716097,85.098917 20.881076,68.737464 16.911729,59.230395 16.137223,51.833857 16.166267,43.275558 A 41.629732,41.629732 0 0 1 57.689504,1.9362666 c 26.381632,0 43.110976,19.7789634 43.110976,41.3296104 0,5.8088 0.14522,6.360636 -0.45502,7.561121 a 6.1960531,6.1960531 0 0 0 0.50343,6.399361 l 7.06737,9.845916 a 4.2113798,4.2113798 0 0 1 -2.5946,6.573625 l -5.673259,1.142397 a 0.9681333,0.9681333 0 0 0 -0.784188,0.968133 c 0,6.350955 -0.05809,6.09924 0.164582,6.438087 0.58088,0.861639 1.171445,1.771684 0.474386,3.078664 a 2.4493772,2.4493772 0 0 1 -2.236388,1.297298 h -7.309407 a 0.9681335,0.9681335 0 0 0 0,1.936267 h 5.431228 a 2.4881026,2.4881026 0 0 1 1.752322,4.250105 c -0.387254,0.396935 -0.280759,0.338847 -0.280759,6.312229 a 11.123852,11.123852 0 0 1 -11.11417,11.11417 c -2.071806,0 -2.120212,-0.16458 -15.199693,-3.87253 a 0.9681333,0.9681333 0 0 0 -1.229529,0.96813 v 15.67408 a 0.9681333,0.9681333 0 0 0 1.936266,0 V 108.4987 c 11.03672,3.15611 11.966128,3.62082 14.522,3.62082 A 13.0698,13.0698 0 0 0 98.825488,99.06908 v -5.256964 a 4.4050065,4.4050065 0 0 0 0,-5.586129 4.4340505,4.4340505 0 0 0 2.110532,-6.602669 c -0.27108,-0.396934 -0.19363,0.425979 -0.19363,-5.092381 l 4.89876,-0.968133 a 6.1476464,6.1476464 0 0 0 3.81444,-9.613564 z"
     id="path8"
     inkscape:label="Head Line"
     style="display:none;stroke-width:0.968133" /><path
     class="head"
     d="m 115.05264,65.120047 -7.03833,-9.797509 c -0.93294,-1.307946 -1.05266,-3.02889 -0.3098,-4.453413 0.87132,-1.74264 0.65833,-2.817268 0.65833,-8.432441 C 108.3338,20.101849 85.445885,0 57.689504,0 33.786926,0.05786164 11.077819,18.327304 10.913227,42.229385 c 0,8.7132 0.832595,16.506673 4.743853,25.878203 3.585503,8.397646 5.198407,17.505419 4.714809,26.623666 -0.629286,11.695056 -1.355386,26.981876 -1.365068,27.107736 8.127968,-14.14026 56.950637,16.57014 57.843284,0.2847 v -14.45418 c 11.03672,3.15611 11.966128,3.62082 14.522,3.62082 7.203137,-0.0107 13.039775,-5.8473 13.050435,-13.050443 v -5.256964 c 1.33161,-1.623973 1.33161,-3.962156 0,-5.586129 2.65948,-1.013507 3.68906,-4.234486 2.11053,-6.602669 -0.27108,-0.396934 -0.19363,0.425979 -0.19363,-5.092381 l 4.89876,-0.968133 c 4.39158,-0.860969 6.42106,-5.97587 3.81444,-9.613564 z"
     id="path956"
     inkscape:label="Head"
     style="display:inline;stroke-width:0.968133"
     sodipodi:nodetypes="ccccccccccccccccccc"
     sodipodi:insensitive="true" /></g>
       <g
   id="g597"
   class="mental-icon"
   inkscape:label="Icon"
   transform="matrix(1.4797613,0.80262541,-0.80262541,1.4797613,1.053976,-88.203579)"><path
     id="path267"
     style="stroke-width:0.24996"
     class="cls-1"
     d="m 62.9101,34.999166 c -0.01673,0.0104 -0.03209,0.0227 -0.04601,0.03684 -0.04683,0.04694 -0.0731,0.110563 -0.07301,0.17687 l -3.02e-4,8.893595 c -0.667382,0 -0.834067,-0.04745 -0.901556,0.177511 l -0.557996,1.854852 -0.321863,3.53e-4 c -0.137859,-1.46e-4 -0.249823,0.111365 -0.250224,0.249233 l -7.72e-4,1.782273 -0.76419,5.1e-5 c -0.13804,1.6e-4 -0.249832,0.112203 -0.24967,0.250253 l 3.19e-4,14.997759 -1.783293,-2.19e-4 c -0.332791,8.77e-4 -0.33221,0.499821 5.82e-4,0.499923 l 3.306486,2.89e-4 5.93e-4,2.53915 -0.767802,6.92e-4 c -0.312021,0.01996 -0.311995,0.478978 2.8e-5,0.498903 l 5.079407,8.54e-4 c 0.332791,-8.77e-4 0.332201,-0.49982 -5.81e-4,-0.499923 l -0.76419,5.1e-5 1.68e-4,-2.547482 3.306486,2.89e-4 c 0.33358,2.31e-4 0.334028,-0.500246 4.38e-4,-0.500477 l -1.78274,8.01e-4 9.4e-5,-0.432976 c -0.211305,-0.0068 -0.422183,-0.01396 -0.633578,-0.02196 -0.404465,-0.01542 -0.811131,-0.04853 -1.215454,-0.01916 -0.305953,0.02223 -0.392652,-0.222393 -0.212467,-0.33088 0.04158,-0.02504 0.09706,-0.04302 0.167619,-0.04868 0.42383,-0.03401 0.849998,0.0016 1.27407,0.01772 0.206616,0.0078 0.413463,0.01487 0.620061,0.02137 l 5.72e-4,-0.714372 c -0.134247,-0.01742 -0.268716,-0.03582 -0.401344,-0.06345 -0.226406,-0.04675 -0.452256,-0.09978 -0.673235,-0.168073 -0.247994,-0.07664 -0.273846,-0.272945 -0.148805,-0.352212 0.05684,-0.03603 0.145384,-0.04816 0.258095,-0.01328 0.210607,0.06518 0.425465,0.115921 0.641308,0.160312 0.107066,0.02209 0.21481,0.03853 0.323125,0.05308 l 7.88e-4,-1.081418 c -0.07899,-1e-4 -0.158184,4.03e-4 -0.237231,6.44e-4 -0.242528,0.0013 -0.484986,-0.0029 -0.727422,-0.0027 -0.30676,2.41e-4 -0.399172,-0.241512 -0.220506,-0.338399 0.04123,-0.02236 0.09665,-0.03718 0.167413,-0.03933 0.259051,-0.0079 0.518843,3.15e-4 0.778173,-0.001 0.0796,-2.9e-4 0.159106,-2.12e-4 0.238804,-1.78e-4 l 7.18e-4,-1.130217 c -0.108106,-0.0074 -0.216435,-0.01628 -0.324387,-0.02864 -0.371807,-0.03599 -0.74463,-0.07131 -1.115405,-0.116983 -0.231983,-0.03218 -0.463393,-0.06891 -0.690555,-0.127001 -0.262904,-0.06723 -0.29505,-0.278224 -0.156756,-0.357139 0.05412,-0.03088 0.134411,-0.04157 0.237265,-0.01518 0.218,0.05594 0.439639,0.09044 0.662327,0.121193 0.36562,0.04485 0.732126,0.07998 1.098742,0.115462 0.09627,0.01108 0.192498,0.01976 0.28902,0.0267 l 5.61e-4,-1.181607 c -0.167669,-0.02452 -0.335921,-0.04608 -0.505439,-0.05582 -0.21359,-0.01218 -0.427455,-0.02581 -0.641236,-0.03364 -0.294764,-0.01079 -0.348778,-0.245722 -0.178553,-0.341357 0.04766,-0.02678 0.112382,-0.04279 0.194914,-0.03973 0.215488,0.008 0.431124,0.02122 0.646422,0.03347 0.161953,0.0092 0.323066,0.02915 0.483503,0.05188 l 1.19e-4,-0.836876 c -0.127317,-0.0076 -0.254931,-0.01351 -0.382363,-0.02359 -0.222573,-0.02124 -0.443673,-0.06119 -0.667649,-0.06287 -0.294953,-0.0022 -0.378128,-0.228038 -0.220246,-0.330621 0.04421,-0.02872 0.107366,-0.04713 0.189935,-0.04891 0.246308,-0.0053 0.489184,0.03976 0.733578,0.06275 0.115456,0.0087 0.230524,0.01523 0.345976,0.0222 l 7.31e-4,-1.332167 c -0.258054,-0.0089 -0.515491,-0.02506 -0.771831,-0.05784 -0.379425,-0.04383 -0.756211,-0.09911 -1.133833,-0.155824 -0.280022,-0.04206 -0.319478,-0.265592 -0.163809,-0.350674 0.05189,-0.02836 0.125896,-0.04055 0.219236,-0.02652 0.373658,0.05615 0.746918,0.110816 1.122355,0.154129 0.241683,0.03105 0.483987,0.04685 0.727113,0.0557 l 5.81e-4,-1.072067 c -0.01112,-0.0019 -0.02229,-0.0038 -0.03341,-0.0056 -0.246278,-0.04289 -0.492325,-0.09617 -0.742446,-0.110734 -0.294463,-0.01714 -0.344351,-0.252473 -0.172434,-0.344676 0.04814,-0.02582 0.114119,-0.04126 0.196573,-0.03667 0.253293,0.01411 0.5025,0.06667 0.751798,0.110941 l -9.3e-5,-1.061143 c -0.271811,-0.0076 -0.543776,-0.01167 -0.815632,-0.01692 -0.294906,-0.0057 -0.366889,-0.239075 -0.204395,-0.337899 0.0455,-0.02767 0.109104,-0.04459 0.191681,-0.04325 0.276057,0.0045 0.552452,0.0088 0.828597,0.01649 l -4.73e-4,-1.056977 c -0.03597,0.0042 -0.07195,0.0084 -0.108088,0.01243 -0.106207,0.01205 -0.212345,0.03138 -0.318992,0.03971 -0.148109,0.01917 -0.296037,0.04093 -0.44459,0.05636 -0.214223,0.01617 -0.428105,0.02726 -0.642254,0.04478 -0.172896,0.0062 -0.345887,0.01193 -0.518834,0.0095 -0.294937,-0.0038 -0.381041,-0.233166 -0.224499,-0.333594 0.04383,-0.02812 0.106413,-0.04562 0.189002,-0.04576 0.180198,-3.14e-4 0.36052,-0.0043 0.540597,-0.01076 0.209038,-0.01776 0.418584,-0.02877 0.627717,-0.04482 0.141786,-0.01544 0.282955,-0.03632 0.4244,-0.05465 0.108421,-0.0089 0.215175,-0.02677 0.323158,-0.03933 0.05093,-0.0057 0.101774,-0.01213 0.152547,-0.01807 l -3.4e-4,-1.270872 c -1.6e-4,-0.13805 -0.112202,-0.249832 -0.250252,-0.249671 l -0.768355,-3.28e-4 0.001,-1.774495 c -1.6e-4,-0.13805 -0.112202,-0.249832 -0.250252,-0.249671 l -0.322415,-6.67e-4 -0.554537,-1.854602 c -0.06749,-0.224952 -0.232692,-0.176952 -0.905073,-0.176952 l 3.02e-4,-8.893595 c 0.0012,-0.170809 -0.165457,-0.292481 -0.32778,-0.239298 -0.01884,0.0062 -0.03694,0.01475 -0.05367,0.02515 z m -0.596353,9.607583 1.457265,1.92e-4 0.460201,1.532241 -2.3772,-1.37e-4 z m -1.054632,2.031835 3.563993,5.25e-4 7.43e-4,1.531992 -3.565012,2.8e-5 z m 0.509698,17.272822 2.546929,-8.52e-4 -1.67e-4,2.547482 -2.547483,-1.67e-4 z" /><path
     id="path269"
     style="stroke-width:0.24996"
     class="cls-1"
     d="m 76.289705,55.342303 c -0.219466,0.123997 -0.435923,0.284074 -0.646808,0.484139 -0.06299,0.02597 -0.112723,0.07716 -0.137557,0.140606 -2.51178,2.745032 1.537334,6.354152 4.028255,3.817935 1.096875,-1.116821 0.995699,-2.514357 0.309666,-3.50993 -0.516037,0.457282 -1.031895,0.914078 -1.546982,1.372323 -0.427915,0.384789 -0.690258,0.617271 -1.102952,1.00345 -0.292482,0.273689 -0.588676,0.549449 -0.855266,0.849306 -0.02743,0.03086 -0.05221,0.06457 -0.07829,0.09658 -0.2385,0.29268 -0.542054,0.06342 -0.304097,-0.229705 0.02887,-0.03557 0.05537,-0.07289 0.08572,-0.107208 0.276432,-0.312678 0.584085,-0.600931 0.888316,-0.885712 0.41551,-0.388944 0.680432,-0.623245 1.111024,-1.010468 0.521644,-0.464096 1.04411,-0.926538 1.566653,-1.389591 -0.793268,-0.892206 -2.09562,-1.32218 -3.317684,-0.631723 z" /><path
     id="path271"
     style="stroke-width:0.24996"
     class="cls-1"
     d="m 69.451101,52.26601 c -1.793297,0.963307 -2.006937,3.622743 -0.158074,4.801714 0.01663,0.0288 0.04038,0.05092 0.06669,0.06942 0.0804,-0.289806 0.162326,-0.579339 0.244091,-0.868895 0.225326,-0.789801 0.46701,-1.575561 0.683653,-2.367812 0.08425,-0.321206 0.169626,-0.642299 0.2644,-0.960424 0.03368,-0.113073 0.09337,-0.182195 0.155879,-0.213898 0.137512,-0.06975 0.290275,0.04471 0.217462,0.293854 -0.09471,0.324083 -0.182829,0.65043 -0.268513,0.977174 -0.217163,0.794933 -0.459929,1.583253 -0.685987,2.375677 -0.08592,0.30449 -0.17216,0.609253 -0.256605,0.913959 1.693147,0.717033 3.645943,-0.391461 3.852858,-2.265343 0.21618,-1.957819 -1.610508,-3.517149 -3.510267,-2.996783 -0.218807,0.05983 -0.420073,0.141708 -0.605587,0.241358 z" /><path
     id="path275"
     style="stroke-width:0.24996"
     class="cls-1"
     d="m 68.944832,40.652345 c -0.198274,0.104034 -0.38441,0.238433 -0.551339,0.404639 -0.887799,0.889727 -0.891069,2.329939 -0.0062,3.222581 l 1.637489,1.636776 c 0.01486,-0.0222 0.03287,-0.04416 0.05488,-0.06673 0.784181,-0.80368 1.574681,-1.600193 2.381883,-2.380848 0.284675,-0.281346 0.526911,-0.516742 0.786868,-0.78317 l -1.633237,-1.633803 c -0.725727,-0.717843 -1.81115,-0.850261 -2.670342,-0.39945 z m 4.57212,2.302042 c -0.260134,0.266658 -0.498129,0.500444 -0.786781,0.785762 -0.805556,0.779044 -1.595324,1.574008 -2.37789,2.376043 -0.0234,0.02398 -0.04707,0.04199 -0.07023,0.05789 l 0.985488,0.984665 c 2.151617,2.151969 5.378481,-1.075247 3.226864,-3.227216 z" /><path
     id="path277"
     style="stroke-width:0.24996"
     class="cls-1"
     d="m 78.559585,46.459702 c -0.198705,0.104569 -0.385285,0.240476 -0.552273,0.407785 l -1.68559,1.683765 c 0.545705,0.436137 1.131353,0.82143 1.713969,1.205925 0.721798,0.46294 1.457482,0.903615 2.196541,1.338825 l 1.002296,-1.001651 c 0.889557,-0.891748 0.889381,-2.335292 -1.76e-4,-3.22704 -0.723618,-0.725007 -1.813713,-0.860739 -2.674767,-0.407609 z m -2.509625,2.364344 -0.916907,0.915737 c -2.080939,2.151032 1.076185,5.307803 3.227217,3.226864 l 1.593614,-1.59296 c -0.715811,-0.422106 -1.4287,-0.84916 -2.128209,-1.298014 -0.603811,-0.398648 -1.211623,-0.79755 -1.775715,-1.251627 z" /></g></svg>
