<?xml version="1.0" encoding="UTF-8" standalone="no"?>
<svg
   viewBox="0 0 128 128"
   version="1.1"
   id="svg15"
   sodipodi:docname="Aging.svg"
   inkscape:version="1.2 (dc2aedaf03, 2022-05-15)"
   xml:space="preserve"
   xmlns:inkscape="http://www.inkscape.org/namespaces/inkscape"
   xmlns:sodipodi="http://sodipodi.sourceforge.net/DTD/sodipodi-0.dtd"
   xmlns="http://www.w3.org/2000/svg"
   xmlns:svg="http://www.w3.org/2000/svg"><sodipodi:namedview
   id="namedview17"
   pagecolor="#ffffff"
   bordercolor="#999999"
   borderopacity="1"
   inkscape:showpageshadow="0"
   inkscape:pageopacity="0"
   inkscape:pagecheckerboard="0"
   inkscape:deskcolor="#d1d1d1"
   showgrid="true"
   inkscape:zoom="5.5068083"
   inkscape:cx="25.150685"
   inkscape:cy="52.571287"
   inkscape:window-width="1920"
   inkscape:window-height="1001"
   inkscape:window-x="-9"
   inkscape:window-y="1341"
   inkscape:window-maximized="1"
   inkscape:current-layer="g597"><inkscape:grid
     type="xygrid"
     id="grid1689" /></sodipodi:namedview><defs
   id="defs4"><style
     id="style2">.head { 
 }
 .mental-icon {
   fill: white;
 }
</style></defs><g
   id="Anxiety"
   inkscape:label="Head"><path
     d="m 109.45559,65.94924 -7.03833,-9.797509 a 4.2694678,4.2694678 0 0 1 -0.3098,-4.453413 c 0.87132,-1.74264 0.65833,-2.817268 0.65833,-8.432441 C 102.73675,20.931042 85.445885,0 57.689504,0 A 43.565998,43.565998 0 0 0 14.23,43.265877 c 0,8.7132 0.832595,16.506673 4.743853,25.878203 a 59.743506,59.743506 0 0 1 4.714809,26.623666 C 23.059376,107.4628 22.333276,122.74962 22.323594,122.87548 a 0.96934271,0.96934271 0 0 0 1.936267,0.0968 C 25.48939,95.622526 27.716097,85.098917 20.881076,68.737464 16.911729,59.230395 16.137223,51.833857 16.166267,43.275558 A 41.629732,41.629732 0 0 1 57.689504,1.9362666 c 26.381632,0 43.110976,19.7789634 43.110976,41.3296104 0,5.8088 0.14522,6.360636 -0.45502,7.561121 a 6.1960531,6.1960531 0 0 0 0.50343,6.399361 l 7.06737,9.845916 a 4.2113798,4.2113798 0 0 1 -2.5946,6.573625 l -5.673259,1.142397 a 0.9681333,0.9681333 0 0 0 -0.784188,0.968133 c 0,6.350955 -0.05809,6.09924 0.164582,6.438087 0.58088,0.861639 1.171445,1.771684 0.474386,3.078664 a 2.4493772,2.4493772 0 0 1 -2.236388,1.297298 h -7.309407 a 0.9681335,0.9681335 0 0 0 0,1.936267 h 5.431228 a 2.4881026,2.4881026 0 0 1 1.752322,4.250105 c -0.387254,0.396935 -0.280759,0.338847 -0.280759,6.312229 a 11.123852,11.123852 0 0 1 -11.11417,11.11417 c -2.071806,0 -2.120212,-0.16458 -15.199693,-3.87253 a 0.9681333,0.9681333 0 0 0 -1.229529,0.96813 v 15.67408 a 0.9681333,0.9681333 0 0 0 1.936266,0 V 108.4987 c 11.03672,3.15611 11.966128,3.62082 14.522,3.62082 A 13.0698,13.0698 0 0 0 98.825488,99.06908 v -5.256964 a 4.4050065,4.4050065 0 0 0 0,-5.586129 4.4340505,4.4340505 0 0 0 2.110532,-6.602669 c -0.27108,-0.396934 -0.19363,0.425979 -0.19363,-5.092381 l 4.89876,-0.968133 a 6.1476464,6.1476464 0 0 0 3.81444,-9.613564 z"
     id="path8"
     inkscape:label="Head Line"
     style="display:none;stroke-width:0.968133" /><path
     class="head"
     d="m 115.05264,65.120047 -7.03833,-9.797509 c -0.93294,-1.307946 -1.05266,-3.02889 -0.3098,-4.453413 0.87132,-1.74264 0.65833,-2.817268 0.65833,-8.432441 C 108.3338,20.101849 85.445885,0 57.689504,0 33.786926,0.05786164 11.077819,18.327304 10.913227,42.229385 c 0,8.7132 0.832595,16.506673 4.743853,25.878203 3.585503,8.397646 5.198407,17.505419 4.714809,26.623666 -0.629286,11.695056 -1.355386,26.981876 -1.365068,27.107736 8.127968,-14.14026 56.950637,16.57014 57.843284,0.2847 v -14.45418 c 11.03672,3.15611 11.966128,3.62082 14.522,3.62082 7.203137,-0.0107 13.039775,-5.8473 13.050435,-13.050443 v -5.256964 c 1.33161,-1.623973 1.33161,-3.962156 0,-5.586129 2.65948,-1.013507 3.68906,-4.234486 2.11053,-6.602669 -0.27108,-0.396934 -0.19363,0.425979 -0.19363,-5.092381 l 4.89876,-0.968133 c 4.39158,-0.860969 6.42106,-5.97587 3.81444,-9.613564 z"
     id="path956"
     inkscape:label="Head"
     style="display:inline;stroke-width:0.968133"
     sodipodi:nodetypes="ccccccccccccccccccc"
     sodipodi:insensitive="true" /></g>
       <g
   id="g597"
   class="mental-icon"
   inkscape:label="Icon"
   transform="matrix(1.4797613,0.80262541,-0.80262541,1.4797613,1.053976,-88.203579)"><path
     d="m 65.617683,49.184532 c 0.167384,0.308599 0.552315,0.421485 0.85987,0.254667 0.307554,-0.166818 0.422007,-0.552598 0.255472,-0.859631 -0.353506,-0.652988 -0.465781,-1.413168 -0.315678,-2.140635 0.334108,-1.61794 0.383068,-3.202179 0.142031,-4.706839 -0.03257,-0.203318 -0.1612,-0.378181 -0.345785,-0.469308 -0.185107,-0.09085 -0.40187,-0.0868 -0.583061,0.01147 l -5.535461,3.002445 c -0.181191,0.09828 -0.303313,0.278049 -0.328116,0.482749 -0.02428,0.204417 0.05214,0.407602 0.204801,0.545779 1.130805,1.022048 2.484378,1.845551 4.02275,2.447854 0.692147,0.270628 1.268909,0.779545 1.623177,1.431445 z"
     id="path471"
     style="stroke-width:0.594029" /><path
     d="m 67.945502,50.814952 c -0.167101,-0.308076 -0.552315,-0.421485 -0.85987,-0.254667 -0.307555,0.166819 -0.422007,0.552599 -0.255472,0.859631 0.436207,0.805461 0.387209,1.862609 -0.134981,2.981791 -1.118789,2.39023 -1.703578,4.644895 -1.738668,6.700743 -0.0036,0.226321 0.112374,0.436426 0.305482,0.551989 0.192391,0.11798 0.433121,0.12324 0.631543,0.01562 L 77.04905,55.619282 c 0.1979,-0.107341 0.324252,-0.311707 0.331327,-0.537878 0.0074,-0.224321 -0.105453,-0.436125 -0.296606,-0.556804 -1.741834,-1.092041 -3.951145,-1.831181 -6.564262,-2.197217 -1.223927,-0.172085 -2.136755,-0.707537 -2.574007,-1.512431 z"
     id="path473"
     style="stroke-width:0.594029" /><path
     d="m 81.685068,54.18798 -0.333663,0.180979 c -2.7377,-4.132864 -7.087122,-6.086587 -10.34684,-7.381841 0.692825,-3.438446 1.425864,-8.149582 -0.543732,-12.699067 l 0.333662,-0.18098 c 0.616154,-0.334202 0.844299,-1.104674 0.510096,-1.720828 -0.334203,-0.616154 -1.104153,-0.844581 -1.720307,-0.510379 L 50.062136,42.464716 c -0.616153,0.334203 -0.844298,1.104675 -0.510378,1.720306 0.334203,0.616154 1.104436,0.845104 1.720589,0.510901 l 0.333663,-0.18098 c 2.738505,4.133104 7.087167,6.087915 10.346841,7.381842 -0.692303,3.438163 -1.426148,8.149059 0.544254,12.698784 l -0.333141,0.180696 c -0.616154,0.334203 -0.844865,1.10363 -0.510662,1.719784 0.334486,0.616676 1.104719,0.845626 1.720873,0.511423 l 1.3947,-0.756488 16.732226,-9.075592 1.395222,-0.756771 c 0.616154,-0.334203 0.844298,-1.104675 0.509812,-1.721351 -0.334203,-0.616154 -1.104392,-0.843776 -1.721067,-0.50929 z M 64.733533,63.382525 C 63.025545,59.233123 63.937111,54.829949 64.618399,51.539676 l 0.0364,-0.175848 C 64.780531,50.758381 64.45086,50.150582 63.87452,49.925266 l -0.166441,-0.06515 C 60.57885,48.635995 56.389917,46.99934 53.84305,43.304272 l 14.382487,-7.801089 c 1.708272,4.149924 0.795661,8.553665 0.115179,11.844177 l -0.03564,0.17476 c -0.125733,0.605446 0.203939,1.213245 0.780278,1.438562 l 0.167247,0.06539 c 3.128943,1.223597 7.316831,2.860817 9.863416,6.555363 z"
     id="path475"
     style="stroke-width:0.594029" /></g></svg>
