<?xml version="1.0" encoding="UTF-8" standalone="no"?>
<svg
   viewBox="0 0 128 128"
   version="1.1"
   id="svg15"
   sodipodi:docname="Anguish.svg"
   inkscape:version="1.2 (dc2aedaf03, 2022-05-15)"
   xml:space="preserve"
   xmlns:inkscape="http://www.inkscape.org/namespaces/inkscape"
   xmlns:sodipodi="http://sodipodi.sourceforge.net/DTD/sodipodi-0.dtd"
   xmlns="http://www.w3.org/2000/svg"
   xmlns:svg="http://www.w3.org/2000/svg"><sodipodi:namedview
     id="namedview17"
     pagecolor="#ffffff"
     bordercolor="#999999"
     borderopacity="1"
     inkscape:showpageshadow="0"
     inkscape:pageopacity="0"
     inkscape:pagecheckerboard="0"
     inkscape:deskcolor="#d1d1d1"
     showgrid="true"
     inkscape:zoom="9.647932"
     inkscape:cx="55.866895"
     inkscape:cy="55.918719"
     inkscape:window-width="1920"
     inkscape:window-height="1001"
     inkscape:window-x="-9"
     inkscape:window-y="1341"
     inkscape:window-maximized="1"
     inkscape:current-layer="svg15"><inkscape:grid
       type="xygrid"
       id="grid1689" /></sodipodi:namedview><defs
     id="defs4"><style
       id="style2">.head { 
 }
 .mental-icon {
   fill: white;
 }
</style></defs><g
     id="Amnesia"
     inkscape:label="Head"><path
       d="m 109.45559,65.94924 -7.03833,-9.797509 a 4.2694678,4.2694678 0 0 1 -0.3098,-4.453413 c 0.87132,-1.74264 0.65833,-2.817268 0.65833,-8.432441 C 102.73675,20.931042 85.445885,0 57.689504,0 A 43.565998,43.565998 0 0 0 14.23,43.265877 c 0,8.7132 0.832595,16.506673 4.743853,25.878203 a 59.743506,59.743506 0 0 1 4.714809,26.623666 C 23.059376,107.4628 22.333276,122.74962 22.323594,122.87548 a 0.96934271,0.96934271 0 0 0 1.936267,0.0968 C 25.48939,95.622526 27.716097,85.098917 20.881076,68.737464 16.911729,59.230395 16.137223,51.833857 16.166267,43.275558 A 41.629732,41.629732 0 0 1 57.689504,1.9362666 c 26.381632,0 43.110976,19.7789634 43.110976,41.3296104 0,5.8088 0.14522,6.360636 -0.45502,7.561121 a 6.1960531,6.1960531 0 0 0 0.50343,6.399361 l 7.06737,9.845916 a 4.2113798,4.2113798 0 0 1 -2.5946,6.573625 l -5.673259,1.142397 a 0.9681333,0.9681333 0 0 0 -0.784188,0.968133 c 0,6.350955 -0.05809,6.09924 0.164582,6.438087 0.58088,0.861639 1.171445,1.771684 0.474386,3.078664 a 2.4493772,2.4493772 0 0 1 -2.236388,1.297298 h -7.309407 a 0.9681335,0.9681335 0 0 0 0,1.936267 h 5.431228 a 2.4881026,2.4881026 0 0 1 1.752322,4.250105 c -0.387254,0.396935 -0.280759,0.338847 -0.280759,6.312229 a 11.123852,11.123852 0 0 1 -11.11417,11.11417 c -2.071806,0 -2.120212,-0.16458 -15.199693,-3.87253 a 0.9681333,0.9681333 0 0 0 -1.229529,0.96813 v 15.67408 a 0.9681333,0.9681333 0 0 0 1.936266,0 V 108.4987 c 11.03672,3.15611 11.966128,3.62082 14.522,3.62082 A 13.0698,13.0698 0 0 0 98.825488,99.06908 v -5.256964 a 4.4050065,4.4050065 0 0 0 0,-5.586129 4.4340505,4.4340505 0 0 0 2.110532,-6.602669 c -0.27108,-0.396934 -0.19363,0.425979 -0.19363,-5.092381 l 4.89876,-0.968133 a 6.1476464,6.1476464 0 0 0 3.81444,-9.613564 z"
       id="path8"
       inkscape:label="Head Line"
       style="display:none;stroke-width:0.968133" /><path
       class="head"
       d="m 115.05264,65.120047 -7.03833,-9.797509 c -0.93294,-1.307946 -1.05266,-3.02889 -0.3098,-4.453413 0.87132,-1.74264 0.65833,-2.817268 0.65833,-8.432441 C 108.3338,20.101849 85.445885,0 57.689504,0 33.786926,0.05786164 11.077819,18.327304 10.913227,42.229385 c 0,8.7132 0.832595,16.506673 4.743853,25.878203 3.585503,8.397646 5.198407,17.505419 4.714809,26.623666 -0.629286,11.695056 -1.355386,26.981876 -1.365068,27.107736 8.127968,-14.14026 56.950637,16.57014 57.843284,0.2847 v -14.45418 c 11.03672,3.15611 11.966128,3.62082 14.522,3.62082 7.203137,-0.0107 13.039775,-5.8473 13.050435,-13.050443 v -5.256964 c 1.33161,-1.623973 1.33161,-3.962156 0,-5.586129 2.65948,-1.013507 3.68906,-4.234486 2.11053,-6.602669 -0.27108,-0.396934 -0.19363,0.425979 -0.19363,-5.092381 l 4.89876,-0.968133 c 4.39158,-0.860969 6.42106,-5.97587 3.81444,-9.613564 z"
       id="path956"
       inkscape:label="Head"
       style="display:inline;stroke-width:0.968133"
       sodipodi:nodetypes="ccccccccccccccccccc" /></g><g
     id="g1687"
     class="mental-icon"
     inkscape:label="Anguish"
     transform="translate(1.2437899,-1.4510882)"><path
       class="cls-1"
       d="m 80.001842,49.765722 c 4.489669,0.01514 8.322508,-3.239587 9.035141,-7.672364 0.712633,-4.432776 -1.906951,-8.724826 -6.175141,-10.117636 1.116529,-5.141191 -3.558268,-9.66484 -8.66,-8.38 C 71.83182,15.54171 64.01027,10.361257 55.669877,11.321426 c -8.340394,0.96017 -14.780158,7.782426 -15.258035,16.164296 -5.969871,0.505861 -10.475136,5.635307 -10.206499,11.620543 0.268637,5.985236 5.215314,10.690448 11.206499,10.659457 h 5.86 l 7.36,3.68 v 15.64 c 0,0.552285 0.447715,1 1,1 0.69,0 -0.7,1.48 16.74,-20.32 z m -47.77,-11.159999 c 0.0055,-5.056644 4.103356,-9.15449 9.16,-9.160001 0.552285,0 1,-0.447715 1,-1 -5.72e-4,-7.772542 5.844565,-14.301912 13.569785,-15.158275 7.72522,-0.856364 14.858473,4.234313 16.560215,11.818276 0.137044,0.6106 0.794903,0.946732 1.37,0.699999 3.367359,-1.469637 7.136955,0.995911 7.14,4.67 0,1.600001 -0.71,1.94 -0.3,2.68 0.141779,0.258845 0.390656,0.441844 0.68,0.5 3.612796,0.699378 6.097423,4.036567 5.73152,7.698196 -0.365904,3.661629 -3.46177,6.441164 -7.14152,6.411804 h -7.89 l -7.4,-3.68 v -15.64 c 0.004,-0.9467 -1.18758,-1.36844 -1.78,-0.629999 l -16,19.95 h -5.54 c -5.056644,-0.0055 -9.154489,-4.103356 -9.16,-9.16 z"
       id="path261"
       style="display:inline"
       sodipodi:nodetypes="csccscscccsscccccscccccscccccccc" /><g
       id="g1707"
       inkscape:label="Rain"><path
         class="cls-1"
         d="m 30.331842,56.445722 -2,4.07 a 1,1 0 0 0 0.89,1.44 c 0.82,0 0.78,-0.31 2.93,-4.61 a 1.0151847,1.0151847 0 0 0 -1.82,-0.9 z"
         id="path263"
         style="" /><path
         class="cls-1"
         d="m 42.531842,56.445722 -2,4.07 a 1,1 0 0 0 0.9,1.44 c 0.81,0 0.77,-0.31 2.92,-4.61 a 1.0151847,1.0151847 0 0 0 -1.82,-0.9 z"
         id="path265"
         style="" /><path
         class="cls-1"
         d="m 34.401842,66.605722 -2,4.07 a 1,1 0 0 0 0.9,1.45 c 0.81,0 0.77,-0.319999 2.93,-4.62 a 1.0196691,1.0196691 0 0 0 -1.83,-0.9 z"
         id="path267"
         style="" /><path
         class="cls-1"
         d="m 46.591842,66.605722 -2,4.07 a 1,1 0 0 0 0.89,1.45 c 0.82,0 0.78,-0.319999 2.93,-4.62 a 1.0151847,1.0151847 0 0 0 -1.82,-0.9 z"
         id="path269"
         style="" /><path
         class="cls-1"
         d="m 66.911842,66.605722 -2,4.07 a 1,1 0 0 0 0.89,1.45 c 0.82,0 0.78,-0.319999 2.93,-4.62 a 1.0151847,1.0151847 0 0 0 -1.82,-0.9 z"
         id="path271"
         style="" /><path
         class="cls-1"
         d="m 79.111842,66.605722 -2,4.07 a 1,1 0 0 0 1.79,0.89 l 2,-4.06 a 1.0017609,1.0017609 0 0 0 -1.79,-0.9 z"
         id="path273"
         style="" /><path
         class="cls-1"
         d="m 75.041842,56.445722 -2,4.07 a 1,1 0 0 0 1.79,0.89 l 2,-4.06 a 1.0017609,1.0017609 0 0 0 -1.79,-0.9 z"
         id="path275"
         style="" /><path
         class="cls-1"
         d="m 87.241842,56.445722 -2,4.07 a 1,1 0 0 0 1.79,0.89 l 2,-4.06 a 1.0017609,1.0017609 0 0 0 -1.79,-0.9 z"
         id="path277"
         style="" /><path
         style="stroke-width:0.222382"
         d="m 73.197963,61.374187 c -0.244966,-0.295165 -0.105335,-0.722312 0.906447,-2.772929 0.657811,-1.33321 1.333511,-2.476778 1.501556,-2.541263 0.467643,-0.179451 1.162846,0.288396 1.162846,0.782555 0,0.242539 -0.501273,1.439884 -1.113939,2.660765 -0.939957,1.873083 -1.196204,2.219785 -1.64064,2.219785 -0.289684,0 -0.657006,-0.157011 -0.81627,-0.348913 z"
         id="path2879" /><path
         style="stroke-width:0.222382"
         d="m 65.141006,71.814647 c -0.331489,-0.331487 -0.09526,-1.153111 0.912485,-3.173664 1.126982,-2.25963 1.57473,-2.732916 2.209192,-2.335194 0.661183,0.414472 0.540754,1.00815 -0.671827,3.311887 -0.963989,1.831448 -1.269403,2.235436 -1.730952,2.28963 -0.308239,0.03619 -0.631743,-0.0055 -0.718898,-0.09266 z"
         id="path2881" /><path
         style="stroke-width:0.222382"
         d="m 44.748816,71.513683 c -0.19198,-0.358718 -0.01005,-0.887455 0.994755,-2.890972 1.187209,-2.367228 1.425662,-2.617391 2.208523,-2.316979 0.60286,0.231339 0.392792,1.157454 -0.780774,3.442146 -0.952101,1.853544 -1.216579,2.204814 -1.660045,2.204814 -0.297604,0 -0.629907,-0.191333 -0.762459,-0.439009 z"
         id="path2885" /><path
         style="stroke-width:0.222382"
         d="m 41.14247,61.778954 c -0.765464,-0.170673 -0.648542,-0.886672 0.532633,-3.261687 1.174763,-2.362125 1.672064,-2.868476 2.302966,-2.344873 0.525203,0.435879 0.384545,1.02107 -0.799475,3.326113 -1.129103,2.198132 -1.340986,2.435439 -2.036124,2.280447 z"
         id="path2887" /><path
         style="stroke-width:0.222382"
         d="m 28.689469,61.508408 -0.511228,-0.414775 1.215094,-2.465165 c 0.724311,-1.469473 1.379827,-2.51745 1.622945,-2.594613 0.507447,-0.161057 1.053655,0.268223 1.053655,0.828099 0,0.615392 -2.140447,4.781565 -2.534256,4.932683 -0.18424,0.0707 -0.565035,-0.0581 -0.84621,-0.286229 z"
         id="path2889" /><path
         style="stroke-width:0.222382"
         d="m 32.662955,71.804437 c -0.35411,-0.354108 -0.07547,-1.339164 0.965685,-3.413904 0.956689,-1.906426 1.191031,-2.219785 1.660044,-2.219785 0.316119,0 0.645051,0.184883 0.781055,0.43901 0.19198,0.358718 0.01005,0.887454 -0.994755,2.890972 -1.035808,2.065344 -1.31123,2.451962 -1.74674,2.451962 -0.284369,0 -0.583749,-0.06671 -0.665289,-0.148255 z"
         id="path2891" /><path
         style="stroke-width:0.222382"
         d="m 77.491555,71.805413 c -0.511129,-0.206246 -0.286497,-1.163983 0.773488,-3.297828 1.029407,-2.072288 1.423245,-2.482613 2.124557,-2.213493 0.687658,0.263879 0.579293,0.823815 -0.623631,3.222376 -1.207096,2.406881 -1.42891,2.630113 -2.274414,2.288945 z"
         id="path2893" /><path
         style="stroke-width:0.222382"
         d="m 85.428999,61.374187 c -0.244966,-0.295165 -0.105335,-0.722312 0.906448,-2.772929 0.65781,-1.33321 1.33351,-2.476778 1.501555,-2.541263 0.443529,-0.170198 1.163375,0.27855 1.15965,0.722919 -0.0018,0.209739 -0.496473,1.407083 -1.099367,2.660764 -0.945636,1.966395 -1.170502,2.279421 -1.637442,2.279421 -0.2977,0 -0.67158,-0.15701 -0.830844,-0.348912 z"
         id="path2895" /></g></g></svg>
