<?xml version="1.0" encoding="UTF-8" standalone="no"?>
<svg
   viewBox="0 0 128 128"
   version="1.1"
   id="svg15"
   sodipodi:docname="Depression.svg"
   inkscape:version="1.2 (dc2aedaf03, 2022-05-15)"
   xml:space="preserve"
   xmlns:inkscape="http://www.inkscape.org/namespaces/inkscape"
   xmlns:sodipodi="http://sodipodi.sourceforge.net/DTD/sodipodi-0.dtd"
   xmlns="http://www.w3.org/2000/svg"
   xmlns:svg="http://www.w3.org/2000/svg"><sodipodi:namedview
   id="namedview17"
   pagecolor="#ffffff"
   bordercolor="#999999"
   borderopacity="1"
   inkscape:showpageshadow="0"
   inkscape:pageopacity="0"
   inkscape:pagecheckerboard="0"
   inkscape:deskcolor="#d1d1d1"
   showgrid="true"
   inkscape:zoom="3.411059"
   inkscape:cx="62.590533"
   inkscape:cy="76.076081"
   inkscape:window-width="1920"
   inkscape:window-height="1001"
   inkscape:window-x="-9"
   inkscape:window-y="1341"
   inkscape:window-maximized="1"
   inkscape:current-layer="g597"><inkscape:grid
     type="xygrid"
     id="grid1689" /></sodipodi:namedview><defs
   id="defs4"><style
     id="style2">.head { 
 }
 .mental-icon {
   fill: white;
 }
</style></defs><g
   id="Anxiety"
   inkscape:label="Head"><path
     d="m 109.45559,65.94924 -7.03833,-9.797509 a 4.2694678,4.2694678 0 0 1 -0.3098,-4.453413 c 0.87132,-1.74264 0.65833,-2.817268 0.65833,-8.432441 C 102.73675,20.931042 85.445885,0 57.689504,0 A 43.565998,43.565998 0 0 0 14.23,43.265877 c 0,8.7132 0.832595,16.506673 4.743853,25.878203 a 59.743506,59.743506 0 0 1 4.714809,26.623666 C 23.059376,107.4628 22.333276,122.74962 22.323594,122.87548 a 0.96934271,0.96934271 0 0 0 1.936267,0.0968 C 25.48939,95.622526 27.716097,85.098917 20.881076,68.737464 16.911729,59.230395 16.137223,51.833857 16.166267,43.275558 A 41.629732,41.629732 0 0 1 57.689504,1.9362666 c 26.381632,0 43.110976,19.7789634 43.110976,41.3296104 0,5.8088 0.14522,6.360636 -0.45502,7.561121 a 6.1960531,6.1960531 0 0 0 0.50343,6.399361 l 7.06737,9.845916 a 4.2113798,4.2113798 0 0 1 -2.5946,6.573625 l -5.673259,1.142397 a 0.9681333,0.9681333 0 0 0 -0.784188,0.968133 c 0,6.350955 -0.05809,6.09924 0.164582,6.438087 0.58088,0.861639 1.171445,1.771684 0.474386,3.078664 a 2.4493772,2.4493772 0 0 1 -2.236388,1.297298 h -7.309407 a 0.9681335,0.9681335 0 0 0 0,1.936267 h 5.431228 a 2.4881026,2.4881026 0 0 1 1.752322,4.250105 c -0.387254,0.396935 -0.280759,0.338847 -0.280759,6.312229 a 11.123852,11.123852 0 0 1 -11.11417,11.11417 c -2.071806,0 -2.120212,-0.16458 -15.199693,-3.87253 a 0.9681333,0.9681333 0 0 0 -1.229529,0.96813 v 15.67408 a 0.9681333,0.9681333 0 0 0 1.936266,0 V 108.4987 c 11.03672,3.15611 11.966128,3.62082 14.522,3.62082 A 13.0698,13.0698 0 0 0 98.825488,99.06908 v -5.256964 a 4.4050065,4.4050065 0 0 0 0,-5.586129 4.4340505,4.4340505 0 0 0 2.110532,-6.602669 c -0.27108,-0.396934 -0.19363,0.425979 -0.19363,-5.092381 l 4.89876,-0.968133 a 6.1476464,6.1476464 0 0 0 3.81444,-9.613564 z"
     id="path8"
     inkscape:label="Head Line"
     style="display:none;stroke-width:0.968133" /><path
     class="head"
     d="m 115.05264,65.120047 -7.03833,-9.797509 c -0.93294,-1.307946 -1.05266,-3.02889 -0.3098,-4.453413 0.87132,-1.74264 0.65833,-2.817268 0.65833,-8.432441 C 108.3338,20.101849 85.445885,0 57.689504,0 33.786926,0.05786164 11.077819,18.327304 10.913227,42.229385 c 0,8.7132 0.832595,16.506673 4.743853,25.878203 3.585503,8.397646 5.198407,17.505419 4.714809,26.623666 -0.629286,11.695056 -1.355386,26.981876 -1.365068,27.107736 8.127968,-14.14026 56.950637,16.57014 57.843284,0.2847 v -14.45418 c 11.03672,3.15611 11.966128,3.62082 14.522,3.62082 7.203137,-0.0107 13.039775,-5.8473 13.050435,-13.050443 v -5.256964 c 1.33161,-1.623973 1.33161,-3.962156 0,-5.586129 2.65948,-1.013507 3.68906,-4.234486 2.11053,-6.602669 -0.27108,-0.396934 -0.19363,0.425979 -0.19363,-5.092381 l 4.89876,-0.968133 c 4.39158,-0.860969 6.42106,-5.97587 3.81444,-9.613564 z"
     id="path956"
     inkscape:label="Head"
     style="display:inline;stroke-width:0.968133"
     sodipodi:nodetypes="ccccccccccccccccccc" /></g>
       <g
   id="g597"
   class="mental-icon"
   inkscape:label="Icon"
   transform="matrix(1.1234969,0,0,1.1234969,-8.4946903,-13.71911)"><path
     d="m 82.343202,34.378322 c -0.871194,0 -1.707264,0.231869 -2.497665,0.583136 -2.43443,-3.635835 -6.421554,-6.017573 -10.935618,-6.017573 -0.727165,0 -1.433257,0.07728 -2.132319,0.193191 -2.388764,-3.966048 -6.551536,-6.600715 -11.307987,-6.600715 -6.702588,0 -12.245924,5.234203 -13.25412,12.077308 -0.06675,0 -0.122941,-0.01421 -0.182654,-0.01421 -4.492983,0 -8.132336,3.878232 -8.132336,8.666294 h 56.13241 C 89.541108,38.260059 86.30925,34.37832 82.343202,34.37832 Z"
     class="si-glyph-fill"
     id="path4459"
     style="stroke-width:3.51288" /><path
     d="m 40.90167,56.421688 c -0.435596,0.899299 -1.517565,1.282202 -2.420377,0.84309 -0.899298,-0.432083 -1.27518,-1.514052 -0.843093,-2.416863 0.4356,-0.902812 3.899307,-3.916869 3.899307,-3.916869 0,0 -0.203771,4.587831 -0.635837,5.490642 z"
     class="si-glyph-fill"
     id="path4461"
     style="stroke-width:3.51288" /><path
     d="m 51.594899,49.013008 c -0.432083,0.899299 -1.514052,1.275177 -2.416866,0.843094 -0.902813,-0.4356 -1.282203,-1.517568 -0.846603,-2.416867 0.435595,-0.8993 3.899301,-3.913356 3.899301,-3.913356 0,0 -0.200216,4.580804 -0.635832,5.487129 z"
     class="si-glyph-fill"
     id="path4463"
     style="stroke-width:3.51288" /><path
     d="m 58.529338,56.263606 c -0.435595,0.899299 -1.514052,1.275181 -2.41335,0.843094 -0.906325,-0.435599 -1.289232,-1.517567 -0.850121,-2.416867 0.432084,-0.902812 3.899307,-3.913356 3.899307,-3.913356 0,0 -0.200217,4.580806 -0.635836,5.487129 z"
     class="si-glyph-fill"
     id="path4465"
     style="stroke-width:3.51288" /><path
     d="m 68.709687,49.230807 c -0.432086,0.899301 -1.514056,1.27869 -2.416867,0.843095 -0.902812,-0.435598 -1.282201,-1.517569 -0.846607,-2.416868 0.4356,-0.906325 3.899307,-3.916869 3.899307,-3.916869 0,0 -0.200257,4.587831 -0.635833,5.490642 z"
     class="si-glyph-fill"
     id="path4467"
     style="stroke-width:3.51288" /><path
     d="m 61.971969,66.879551 c -0.432087,0.8993 -1.514056,1.278693 -2.416867,0.843094 -0.902812,-0.432087 -1.282202,-1.517568 -0.846606,-2.416868 0.435598,-0.902811 3.899305,-3.916868 3.899305,-3.916868 0,0 -0.196705,4.58783 -0.635832,5.490642 z"
     class="si-glyph-fill"
     id="path4469"
     style="stroke-width:3.51288" /><path
     d="m 47.920421,66.879551 c -0.432085,0.8993 -1.514055,1.278693 -2.416867,0.843094 -0.90281,-0.432087 -1.282205,-1.517568 -0.846605,-2.416868 0.435599,-0.902811 3.899305,-3.916868 3.899305,-3.916868 0,0 -0.196704,4.58783 -0.635833,5.490642 z"
     class="si-glyph-fill"
     id="path4471"
     style="stroke-width:3.51288" /><path
     d="m 72.486041,59.850266 c -0.428574,0.899298 -1.517569,1.278689 -2.413356,0.843093 -0.902811,-0.435599 -1.2822,-1.517569 -0.850118,-2.416867 0.439111,-0.8993 3.895793,-3.913357 3.895793,-3.913357 0,0 -0.196704,4.584319 -0.632319,5.487131 z"
     class="si-glyph-fill"
     id="path4473"
     style="stroke-width:3.51288" /><path
     d="m 83.105499,49.374835 c -0.428574,0.8993 -1.51757,1.27869 -2.413355,0.843094 -0.902811,-0.435599 -1.285716,-1.517567 -0.846607,-2.416867 0.4356,-0.906324 3.895793,-3.916868 3.895793,-3.916868 0,0 -0.200217,4.58783 -0.635831,5.490641 z"
     class="si-glyph-fill"
     id="path4475"
     style="stroke-width:3.51288" /></g></svg>
