<?xml version="1.0" encoding="UTF-8" standalone="no"?>
<svg
   viewBox="0 0 128 128"
   version="1.1"
   id="svg15"
   sodipodi:docname="EatingDisorders.svg"
   inkscape:version="1.2 (dc2aedaf03, 2022-05-15)"
   xml:space="preserve"
   xmlns:inkscape="http://www.inkscape.org/namespaces/inkscape"
   xmlns:sodipodi="http://sodipodi.sourceforge.net/DTD/sodipodi-0.dtd"
   xmlns="http://www.w3.org/2000/svg"
   xmlns:svg="http://www.w3.org/2000/svg"><sodipodi:namedview
   id="namedview17"
   pagecolor="#ffffff"
   bordercolor="#999999"
   borderopacity="1"
   inkscape:showpageshadow="0"
   inkscape:pageopacity="0"
   inkscape:pagecheckerboard="0"
   inkscape:deskcolor="#d1d1d1"
   showgrid="true"
   inkscape:zoom="3.411059"
   inkscape:cx="78.128229"
   inkscape:cy="43.534867"
   inkscape:window-width="1920"
   inkscape:window-height="1001"
   inkscape:window-x="-9"
   inkscape:window-y="1341"
   inkscape:window-maximized="1"
   inkscape:current-layer="g597"><inkscape:grid
     type="xygrid"
     id="grid1689" /></sodipodi:namedview><defs
   id="defs4"><style
     id="style2">.head { 
 }
 .mental-icon {
   fill: white;
 }
</style></defs><g
   id="Anxiety"
   inkscape:label="Head"><path
     d="m 109.45559,65.94924 -7.03833,-9.797509 a 4.2694678,4.2694678 0 0 1 -0.3098,-4.453413 c 0.87132,-1.74264 0.65833,-2.817268 0.65833,-8.432441 C 102.73675,20.931042 85.445885,0 57.689504,0 A 43.565998,43.565998 0 0 0 14.23,43.265877 c 0,8.7132 0.832595,16.506673 4.743853,25.878203 a 59.743506,59.743506 0 0 1 4.714809,26.623666 C 23.059376,107.4628 22.333276,122.74962 22.323594,122.87548 a 0.96934271,0.96934271 0 0 0 1.936267,0.0968 C 25.48939,95.622526 27.716097,85.098917 20.881076,68.737464 16.911729,59.230395 16.137223,51.833857 16.166267,43.275558 A 41.629732,41.629732 0 0 1 57.689504,1.9362666 c 26.381632,0 43.110976,19.7789634 43.110976,41.3296104 0,5.8088 0.14522,6.360636 -0.45502,7.561121 a 6.1960531,6.1960531 0 0 0 0.50343,6.399361 l 7.06737,9.845916 a 4.2113798,4.2113798 0 0 1 -2.5946,6.573625 l -5.673259,1.142397 a 0.9681333,0.9681333 0 0 0 -0.784188,0.968133 c 0,6.350955 -0.05809,6.09924 0.164582,6.438087 0.58088,0.861639 1.171445,1.771684 0.474386,3.078664 a 2.4493772,2.4493772 0 0 1 -2.236388,1.297298 h -7.309407 a 0.9681335,0.9681335 0 0 0 0,1.936267 h 5.431228 a 2.4881026,2.4881026 0 0 1 1.752322,4.250105 c -0.387254,0.396935 -0.280759,0.338847 -0.280759,6.312229 a 11.123852,11.123852 0 0 1 -11.11417,11.11417 c -2.071806,0 -2.120212,-0.16458 -15.199693,-3.87253 a 0.9681333,0.9681333 0 0 0 -1.229529,0.96813 v 15.67408 a 0.9681333,0.9681333 0 0 0 1.936266,0 V 108.4987 c 11.03672,3.15611 11.966128,3.62082 14.522,3.62082 A 13.0698,13.0698 0 0 0 98.825488,99.06908 v -5.256964 a 4.4050065,4.4050065 0 0 0 0,-5.586129 4.4340505,4.4340505 0 0 0 2.110532,-6.602669 c -0.27108,-0.396934 -0.19363,0.425979 -0.19363,-5.092381 l 4.89876,-0.968133 a 6.1476464,6.1476464 0 0 0 3.81444,-9.613564 z"
     id="path8"
     inkscape:label="Head Line"
     style="display:none;stroke-width:0.968133" /><path
     class="head"
     d="m 115.05264,65.120047 -7.03833,-9.797509 c -0.93294,-1.307946 -1.05266,-3.02889 -0.3098,-4.453413 0.87132,-1.74264 0.65833,-2.817268 0.65833,-8.432441 C 108.3338,20.101849 85.445885,0 57.689504,0 33.786926,0.05786164 11.077819,18.327304 10.913227,42.229385 c 0,8.7132 0.832595,16.506673 4.743853,25.878203 3.585503,8.397646 5.198407,17.505419 4.714809,26.623666 -0.629286,11.695056 -1.355386,26.981876 -1.365068,27.107736 8.127968,-14.14026 56.950637,16.57014 57.843284,0.2847 v -14.45418 c 11.03672,3.15611 11.966128,3.62082 14.522,3.62082 7.203137,-0.0107 13.039775,-5.8473 13.050435,-13.050443 v -5.256964 c 1.33161,-1.623973 1.33161,-3.962156 0,-5.586129 2.65948,-1.013507 3.68906,-4.234486 2.11053,-6.602669 -0.27108,-0.396934 -0.19363,0.425979 -0.19363,-5.092381 l 4.89876,-0.968133 c 4.39158,-0.860969 6.42106,-5.97587 3.81444,-9.613564 z"
     id="path956"
     inkscape:label="Head"
     style="display:inline;stroke-width:0.968133"
     sodipodi:nodetypes="ccccccccccccccccccc" /></g>
       <g
   id="g597"
   class="mental-icon"
   inkscape:label="Icon"
   transform="matrix(1.1234969,0,0,1.1234969,-8.4946903,-13.71911)"><path
     d="m 82.829916,30.937863 v 3.968739 a 1.9866414,1.9866414 0 0 1 -1.984373,1.984369 H 66.130154 a 14.299851,14.299851 0 0 0 -7.061319,-3.507532 27.700803,27.700803 0 0 0 -5.011792,-0.460234 c -0.330398,0 -0.661539,0.01092 -0.992671,0.02295 v -2.008294 a 1.9866414,1.9866414 0 0 1 1.984369,-1.984369 h 25.796802 a 1.9866414,1.9866414 0 0 1 1.984373,1.984369 z M 80.845543,38.87534 H 67.926794 a 14.724704,14.724704 0 0 1 2.84236,6.848396 4.9455939,4.9455939 0 0 1 2.138906,4.065635 v 3.968739 a 4.9110163,4.9110163 0 0 1 -0.50481,2.180098 5.4203047,5.4203047 0 0 1 -1.479552,6.476325 v 2.257608 a 4.9125938,4.9125938 0 0 1 -1.017558,2.976553 h 7.09469 a 2.982507,2.982507 0 0 0 2.970251,-2.784705 l 1.682185,-26.07222 a 3.9670518,3.9670518 0 0 1 -0.807723,0.08357 z M 78.861169,23.000385 a 0.99192667,0.99192667 0 0 0 -0.992186,-0.992184 h -3.968736 a 0.96482019,0.96482019 0 0 0 -0.240779,0.03003 L 57.784511,26.006969 A 0.99190683,0.99190683 0 0 0 57.03311,26.969121 H 78.861169 Z M 64.877084,56.314146 a 0.99218464,0.99218464 0 0 0 -0.898681,-0.571667 h -9.921846 a 0.99231362,0.99231362 0 0 0 -0.762067,1.627798 l 4.960922,5.953108 a 0.99263113,0.99263113 0 0 0 1.524135,0 l 4.960923,-5.953108 a 0.99264105,0.99264105 0 0 0 0.136614,-1.056131 z m 3.566147,-0.571667 h -1.665469 a 2.9851165,2.9851165 0 0 1 -0.511718,2.8971 l -1.719913,2.063824 h 3.8971 a 2.480462,2.480462 0 0 0 0,-4.960924 z M 51.769879,58.640551 A 2.9856324,2.9856324 0 0 1 51.257317,55.742479 H 39.669879 a 2.480462,2.480462 0 0 0 0,4.960924 h 13.819247 z m 11.122598,4.047221 -1.588319,1.905887 a 2.9765539,2.9765539 0 0 1 -4.571898,9.92e-4 L 55.142999,62.687772 H 39.173787 v 1.984369 a 2.9765539,2.9765539 0 0 0 2.976554,2.976553 h 23.812431 a 2.9765539,2.9765539 0 0 0 2.976552,-2.976553 V 62.687772 Z M 69.931511,49.789371 H 38.181602 a 0.99218464,0.99218464 0 0 0 -0.992184,0.992184 v 1.98437 a 0.99218464,0.99218464 0 0 0 0.992184,0.992185 h 31.749909 a 0.99218464,0.99218464 0 0 0 0.992187,-0.992185 v -1.98437 A 0.99218464,0.99218464 0 0 0 69.931511,49.789371 Z M 68.939324,47.805002 H 39.173787 a 12.8984,12.8984 0 0 1 12.898401,-12.8984 h 3.968738 a 12.8984,12.8984 0 0 1 12.898398,12.8984 z M 48.103448,43.340171 a 1.488277,1.488277 0 1 0 -1.488276,1.488277 1.4899041,1.4899041 0 0 0 1.488276,-1.488277 z m 3.96874,-2.976554 a 1.488277,1.488277 0 1 0 -1.488277,1.488276 1.4899041,1.4899041 0 0 0 1.488277,-1.488276 z m 3.472645,2.976554 a 1.488277,1.488277 0 1 0 -1.488276,1.488277 1.4899041,1.4899041 0 0 0 1.488276,-1.488277 z m 3.472647,-2.976554 a 1.488277,1.488277 0 1 0 -1.488278,1.488276 1.4899041,1.4899041 0 0 0 1.488278,-1.488276 z m 3.968738,2.976554 a 1.488277,1.488277 0 1 0 -1.488276,1.488277 1.4899041,1.4899041 0 0 0 1.488276,-1.488277 z"
     id="path8398"
     style="stroke-width:0.992185" /></g></svg>
