<?xml version="1.0" encoding="UTF-8" standalone="no"?>
<svg
   viewBox="0 0 128 128"
   version="1.1"
   id="svg15"
   sodipodi:docname="Illness.svg"
   inkscape:version="1.2 (dc2aedaf03, 2022-05-15)"
   xml:space="preserve"
   xmlns:inkscape="http://www.inkscape.org/namespaces/inkscape"
   xmlns:sodipodi="http://sodipodi.sourceforge.net/DTD/sodipodi-0.dtd"
   xmlns="http://www.w3.org/2000/svg"
   xmlns:svg="http://www.w3.org/2000/svg"><sodipodi:namedview
     id="namedview17"
     pagecolor="#ffffff"
     bordercolor="#999999"
     borderopacity="1"
     inkscape:showpageshadow="0"
     inkscape:pageopacity="0"
     inkscape:pagecheckerboard="0"
     inkscape:deskcolor="#d1d1d1"
     showgrid="false"
     inkscape:zoom="4.823966"
     inkscape:cx="39.593977"
     inkscape:cy="67.4756"
     inkscape:window-width="1920"
     inkscape:window-height="1001"
     inkscape:window-x="-9"
     inkscape:window-y="1341"
     inkscape:window-maximized="1"
     inkscape:current-layer="svg15" /><defs
     id="defs4"><style
       id="style2">.head { 
 }
 .mental-icon {
   fill: white;
 }
</style></defs><g
     id="Amnesia"
     inkscape:label="Head"><path
       d="m 109.45559,65.94924 -7.03833,-9.797509 a 4.2694678,4.2694678 0 0 1 -0.3098,-4.453413 c 0.87132,-1.74264 0.65833,-2.817268 0.65833,-8.432441 C 102.73675,20.931042 85.445885,0 57.689504,0 A 43.565998,43.565998 0 0 0 14.23,43.265877 c 0,8.7132 0.832595,16.506673 4.743853,25.878203 a 59.743506,59.743506 0 0 1 4.714809,26.623666 C 23.059376,107.4628 22.333276,122.74962 22.323594,122.87548 a 0.96934271,0.96934271 0 0 0 1.936267,0.0968 C 25.48939,95.622526 27.716097,85.098917 20.881076,68.737464 16.911729,59.230395 16.137223,51.833857 16.166267,43.275558 A 41.629732,41.629732 0 0 1 57.689504,1.9362666 c 26.381632,0 43.110976,19.7789634 43.110976,41.3296104 0,5.8088 0.14522,6.360636 -0.45502,7.561121 a 6.1960531,6.1960531 0 0 0 0.50343,6.399361 l 7.06737,9.845916 a 4.2113798,4.2113798 0 0 1 -2.5946,6.573625 l -5.673259,1.142397 a 0.9681333,0.9681333 0 0 0 -0.784188,0.968133 c 0,6.350955 -0.05809,6.09924 0.164582,6.438087 0.58088,0.861639 1.171445,1.771684 0.474386,3.078664 a 2.4493772,2.4493772 0 0 1 -2.236388,1.297298 h -7.309407 a 0.9681335,0.9681335 0 0 0 0,1.936267 h 5.431228 a 2.4881026,2.4881026 0 0 1 1.752322,4.250105 c -0.387254,0.396935 -0.280759,0.338847 -0.280759,6.312229 a 11.123852,11.123852 0 0 1 -11.11417,11.11417 c -2.071806,0 -2.120212,-0.16458 -15.199693,-3.87253 a 0.9681333,0.9681333 0 0 0 -1.229529,0.96813 v 15.67408 a 0.9681333,0.9681333 0 0 0 1.936266,0 V 108.4987 c 11.03672,3.15611 11.966128,3.62082 14.522,3.62082 A 13.0698,13.0698 0 0 0 98.825488,99.06908 v -5.256964 a 4.4050065,4.4050065 0 0 0 0,-5.586129 4.4340505,4.4340505 0 0 0 2.110532,-6.602669 c -0.27108,-0.396934 -0.19363,0.425979 -0.19363,-5.092381 l 4.89876,-0.968133 a 6.1476464,6.1476464 0 0 0 3.81444,-9.613564 z"
       id="path8"
       inkscape:label="Head Line"
       style="display:none;stroke-width:0.968133" /><path
       class="head"
       d="m 115.05264,65.120047 -7.03833,-9.797509 c -0.93294,-1.307946 -1.05266,-3.02889 -0.3098,-4.453413 0.87132,-1.74264 0.65833,-2.817268 0.65833,-8.432441 C 108.3338,20.101849 85.445885,0 57.689504,0 33.786926,0.05786164 11.077819,18.327304 10.913227,42.229385 c 0,8.7132 0.832595,16.506673 4.743853,25.878203 3.585503,8.397646 5.198407,17.505419 4.714809,26.623666 -0.629286,11.695056 -1.355386,26.981876 -1.365068,27.107736 8.127968,-14.14026 56.950637,16.57014 57.843284,0.2847 v -14.45418 c 11.03672,3.15611 11.966128,3.62082 14.522,3.62082 7.203137,-0.0107 13.039775,-5.8473 13.050435,-13.050443 v -5.256964 c 1.33161,-1.623973 1.33161,-3.962156 0,-5.586129 2.65948,-1.013507 3.68906,-4.234486 2.11053,-6.602669 -0.27108,-0.396934 -0.19363,0.425979 -0.19363,-5.092381 l 4.89876,-0.968133 c 4.39158,-0.860969 6.42106,-5.97587 3.81444,-9.613564 z"
       id="path956"
       inkscape:label="Head"
       style="display:inline;stroke-width:0.968133"
       sodipodi:nodetypes="ccccccccccccccccccc" /></g><g
     id="g3462"
     transform="matrix(0.11820095,0,0,0.11820095,30.478689,6.0462301)"
     inkscape:label="virus"
     sodipodi:insensitive="true"><g
       id="g3352"
       style="display:inline"
       inkscape:label="stem"
       class="mental-icon"
       transform="translate(-12.276451,1.7537787)">
	<path
   style="display:inline"
   d="m 162.772,188.58 -47.853,-47.854 c -17.048,-17.048 8.734,-42.881 25.807,-25.807 l 47.853,47.853 c 17.05,17.049 -8.736,42.88 -25.807,25.808 z"
   id="path3346" />
	<path
   style="display:inline"
   d="M 142.406,274.249 H 74.73 c -24.114,0 -24.139,-36.497 0,-36.497 h 67.676 c 24.113,-0.001 24.138,36.497 0,36.497 z"
   id="path3348" />
	<path
   style="display:inline"
   d="m 114.919,371.273 47.853,-47.854 c 17.05,-17.053 42.876,8.739 25.807,25.807 l -47.853,47.853 c -16.91,16.912 -43.093,-8.519 -25.807,-25.806 z"
   id="path3350" />
<path
   style="display:inline"
   d="m 237.751,437.27 v -67.676 c 0,-24.114 36.497,-24.139 36.497,0 v 67.676 c 0.001,24.114 -36.497,24.139 -36.497,0 z"
   id="path3342" /><path
   style="display:inline"
   d="m 256,160.653 c -10.078,0 -18.249,-8.171 -18.249,-18.249 V 74.73 c 0,-24.114 36.497,-24.139 36.497,0 v 67.676 c 0.001,10.078 -8.17,18.247 -18.248,18.247 z"
   id="path3336" /><path
   style="display:inline"
   d="M 371.273,397.081 323.42,349.228 c -17.048,-17.048 8.734,-42.882 25.807,-25.807 l 47.853,47.854 c 17.05,17.047 -8.736,42.878 -25.807,25.806 z"
   id="path3322" /><path
   style="display:inline"
   d="m 437.27,274.249 h -67.676 c -24.114,0 -24.139,-36.497 0,-36.497 h 67.676 c 24.114,-0.001 24.139,36.497 0,36.497 z"
   id="path3324" /><path
   style="display:inline"
   d="m 323.42,162.772 47.853,-47.853 c 17.05,-17.052 42.876,8.739 25.807,25.807 l -47.853,47.854 c -17.051,17.052 -42.876,-8.739 -25.807,-25.808 z"
   id="path3326" /></g><g
       id="g3370"
       inkscape:label="pods"
       style="display:inline"
       class="mental-icon"
       transform="translate(-12.276451,1.7537787)">
	<path
   style="display:inline"
   d="M 74.98,140.397 C 56.902,122.32 56.9,93.06 74.98,74.98 c 18.035,-18.033 47.382,-18.036 65.417,0 h 0.001 c 18.035,18.036 18.035,47.381 0,65.417 -18.034,18.035 -47.381,18.037 -65.418,0 z"
   id="path3362" />
	<path
   style="display:inline"
   d="M 46.257,302.256 C 20.751,302.256 0,281.506 0,256 c 0,-25.506 20.751,-46.257 46.257,-46.257 25.506,0 46.255,20.75 46.255,46.257 0,25.507 -20.75,46.256 -46.255,46.256 z"
   id="path3364" />
	<path
   style="display:inline"
   d="m 74.98,437.02 c -18.078,-18.077 -18.081,-47.338 0,-65.417 v 0 0 c 18.035,-18.035 47.382,-18.036 65.417,0 18.035,18.036 18.035,47.381 0.001,65.417 -18.033,18.032 -47.381,18.036 -65.418,0 z"
   id="path3366" />
	<path
   style="display:inline"
   d="m 256,387.843 c -72.698,0 -131.843,-59.145 -131.843,-131.843 0,-72.698 59.145,-131.843 131.843,-131.843 72.698,0 131.843,59.145 131.843,131.843 0,72.698 -59.145,131.843 -131.843,131.843 z"
   id="path3368"
   inkscape:label="central" />
<path
   style="display:inline"
   d="m 256,92.514 c -25.506,0 -46.257,-20.751 -46.257,-46.257 C 209.743,20.75 230.493,0 256,0 c 25.506,0 46.257,20.75 46.257,46.257 0,25.505 -20.751,46.257 -46.257,46.257 z"
   id="path3354" /><path
   style="display:inline"
   d="m 256,512 c -25.506,0 -46.257,-20.75 -46.257,-46.257 0,-25.506 20.751,-46.257 46.257,-46.257 25.506,0 46.257,20.751 46.257,46.257 C 302.257,491.249 281.506,512 256,512 Z"
   id="path3356" /><path
   style="display:inline"
   d="m 371.602,437.02 v 0 c -18.035,-18.036 -18.035,-47.382 0,-65.417 18.036,-18.035 47.382,-18.036 65.417,0 18.035,18.036 18.035,47.381 0,65.417 -18.034,18.032 -47.38,18.036 -65.417,0 z"
   id="path3330" /><path
   style="display:inline"
   d="m 465.743,302.256 c -25.506,0 -46.256,-20.75 -46.256,-46.257 0,-25.507 20.75,-46.257 46.256,-46.257 25.506,0 46.257,20.75 46.257,46.257 0,25.507 -20.751,46.257 -46.257,46.257 z"
   id="path3332" /><path
   style="display:inline"
   d="m 371.602,140.397 c -18.035,-18.036 -18.035,-47.381 0,-65.417 18.036,-18.035 47.382,-18.037 65.417,0 18.035,18.036 18.035,47.381 0,65.417 v 0 c -18.034,18.035 -47.381,18.037 -65.417,0 z"
   id="path3334" /></g></g></svg>
