<?xml version="1.0" encoding="UTF-8" standalone="no"?>
<svg
   viewBox="0 0 128 128"
   version="1.1"
   id="svg15"
   sodipodi:docname="Obsession.svg"
   inkscape:version="1.2 (dc2aedaf03, 2022-05-15)"
   xml:space="preserve"
   xmlns:inkscape="http://www.inkscape.org/namespaces/inkscape"
   xmlns:sodipodi="http://sodipodi.sourceforge.net/DTD/sodipodi-0.dtd"
   xmlns="http://www.w3.org/2000/svg"
   xmlns:svg="http://www.w3.org/2000/svg"><sodipodi:namedview
   id="namedview17"
   pagecolor="#ffffff"
   bordercolor="#999999"
   borderopacity="1"
   inkscape:showpageshadow="0"
   inkscape:pageopacity="0"
   inkscape:pagecheckerboard="0"
   inkscape:deskcolor="#d1d1d1"
   showgrid="true"
   inkscape:zoom="6.822118"
   inkscape:cx="59.292437"
   inkscape:cy="46.100053"
   inkscape:window-width="1920"
   inkscape:window-height="1001"
   inkscape:window-x="-9"
   inkscape:window-y="1341"
   inkscape:window-maximized="1"
   inkscape:current-layer="g597"><inkscape:grid
     type="xygrid"
     id="grid1689" /></sodipodi:namedview><defs
   id="defs4"><style
     id="style2">.head { 
 }
 .mental-icon {
   fill: white;
 }
</style></defs><g
   id="Anxiety"
   inkscape:label="Head"><path
     d="m 109.45559,65.94924 -7.03833,-9.797509 a 4.2694678,4.2694678 0 0 1 -0.3098,-4.453413 c 0.87132,-1.74264 0.65833,-2.817268 0.65833,-8.432441 C 102.73675,20.931042 85.445885,0 57.689504,0 A 43.565998,43.565998 0 0 0 14.23,43.265877 c 0,8.7132 0.832595,16.506673 4.743853,25.878203 a 59.743506,59.743506 0 0 1 4.714809,26.623666 C 23.059376,107.4628 22.333276,122.74962 22.323594,122.87548 a 0.96934271,0.96934271 0 0 0 1.936267,0.0968 C 25.48939,95.622526 27.716097,85.098917 20.881076,68.737464 16.911729,59.230395 16.137223,51.833857 16.166267,43.275558 A 41.629732,41.629732 0 0 1 57.689504,1.9362666 c 26.381632,0 43.110976,19.7789634 43.110976,41.3296104 0,5.8088 0.14522,6.360636 -0.45502,7.561121 a 6.1960531,6.1960531 0 0 0 0.50343,6.399361 l 7.06737,9.845916 a 4.2113798,4.2113798 0 0 1 -2.5946,6.573625 l -5.673259,1.142397 a 0.9681333,0.9681333 0 0 0 -0.784188,0.968133 c 0,6.350955 -0.05809,6.09924 0.164582,6.438087 0.58088,0.861639 1.171445,1.771684 0.474386,3.078664 a 2.4493772,2.4493772 0 0 1 -2.236388,1.297298 h -7.309407 a 0.9681335,0.9681335 0 0 0 0,1.936267 h 5.431228 a 2.4881026,2.4881026 0 0 1 1.752322,4.250105 c -0.387254,0.396935 -0.280759,0.338847 -0.280759,6.312229 a 11.123852,11.123852 0 0 1 -11.11417,11.11417 c -2.071806,0 -2.120212,-0.16458 -15.199693,-3.87253 a 0.9681333,0.9681333 0 0 0 -1.229529,0.96813 v 15.67408 a 0.9681333,0.9681333 0 0 0 1.936266,0 V 108.4987 c 11.03672,3.15611 11.966128,3.62082 14.522,3.62082 A 13.0698,13.0698 0 0 0 98.825488,99.06908 v -5.256964 a 4.4050065,4.4050065 0 0 0 0,-5.586129 4.4340505,4.4340505 0 0 0 2.110532,-6.602669 c -0.27108,-0.396934 -0.19363,0.425979 -0.19363,-5.092381 l 4.89876,-0.968133 a 6.1476464,6.1476464 0 0 0 3.81444,-9.613564 z"
     id="path8"
     inkscape:label="Head Line"
     style="display:none;stroke-width:0.968133" /><path
     class="head"
     d="m 115.05264,65.120047 -7.03833,-9.797509 c -0.93294,-1.307946 -1.05266,-3.02889 -0.3098,-4.453413 0.87132,-1.74264 0.65833,-2.817268 0.65833,-8.432441 C 108.3338,20.101849 85.445885,0 57.689504,0 33.786926,0.05786164 11.077819,18.327304 10.913227,42.229385 c 0,8.7132 0.832595,16.506673 4.743853,25.878203 3.585503,8.397646 5.198407,17.505419 4.714809,26.623666 -0.629286,11.695056 -1.355386,26.981876 -1.365068,27.107736 8.127968,-14.14026 56.950637,16.57014 57.843284,0.2847 v -14.45418 c 11.03672,3.15611 11.966128,3.62082 14.522,3.62082 7.203137,-0.0107 13.039775,-5.8473 13.050435,-13.050443 v -5.256964 c 1.33161,-1.623973 1.33161,-3.962156 0,-5.586129 2.65948,-1.013507 3.68906,-4.234486 2.11053,-6.602669 -0.27108,-0.396934 -0.19363,0.425979 -0.19363,-5.092381 l 4.89876,-0.968133 c 4.39158,-0.860969 6.42106,-5.97587 3.81444,-9.613564 z"
     id="path956"
     inkscape:label="Head"
     style="display:inline;stroke-width:0.968133"
     sodipodi:nodetypes="ccccccccccccccccccc" /></g>
       <g
   id="g597"
   class="mental-icon"
   inkscape:label="Icon"
   transform="matrix(1.1234969,0,0,1.1234969,-8.4946903,-13.71911)"><path
     d="m 59.154105,22.716108 c -11.798169,0 -21.396738,9.598438 -21.396738,21.396605 0,11.798167 9.598569,21.396741 21.396738,21.396741 11.798169,0 21.396609,-9.598574 21.396609,-21.396741 0,-11.798167 -9.59844,-21.396605 -21.396609,-21.396605 z m 0,40.08265 c -10.303491,0 -18.686045,-8.382419 -18.686045,-18.686045 0,-10.303354 8.382554,-18.685909 18.686045,-18.685909 10.303355,0 18.68591,8.382555 18.68591,18.685909 0,10.303626 -8.382419,18.686045 -18.68591,18.686045 z"
     id="path2339"
     style="stroke-width:0.135534" /><path
     d="M 73.883076,42.757366 H 71.928663 C 71.296258,36.754394 66.512425,31.970559 60.509451,31.338153 v -1.954411 c 0,-0.748423 -0.606921,-1.355348 -1.355346,-1.355348 -0.748556,0 -1.355346,0.606925 -1.355346,1.355348 v 1.954411 C 51.795648,31.970559 47.011816,36.754259 46.37941,42.757366 h -1.954413 c -0.74842,0 -1.355347,0.606924 -1.355347,1.355347 0,0.748559 0.606927,1.355348 1.355347,1.355348 h 1.954413 c 0.632406,6.003107 5.416238,10.786943 11.419349,11.419348 v 1.954412 c 0,0.748558 0.60679,1.355347 1.355346,1.355347 0.748425,0 1.355346,-0.606789 1.355346,-1.355347 v -1.954412 c 6.002974,-0.632405 10.786807,-5.416241 11.419212,-11.419348 h 1.954413 c 0.74842,0 1.355347,-0.606789 1.355347,-1.355348 0,-0.748423 -0.606927,-1.355347 -1.355347,-1.355347 z m -4.68693,0 h -4.929128 c -0.484267,-1.831618 -1.926084,-3.273301 -3.757567,-3.757567 v -4.929128 c 4.505993,0.605298 8.081533,4.180705 8.686695,8.686695 z M 57.798759,34.070671 v 4.928992 c -1.831619,0.484266 -3.273436,1.926085 -3.757704,3.757703 h -4.929127 c 0.605298,-4.50599 4.180844,-8.081397 8.686831,-8.686695 z m -8.686831,11.39739 h 4.929127 c 0.484268,1.831617 1.926085,3.273436 3.757704,3.757702 v 4.929128 c -4.505987,-0.605162 -8.08167,-4.180705 -8.686831,-8.68683 z m 11.397523,8.68683 v -4.929128 c 1.831618,-0.484266 3.2733,-1.926085 3.757567,-3.757702 h 4.929128 c -0.605162,4.506125 -4.180566,8.081668 -8.686695,8.68683 z"
     id="path2341"
     style="stroke-width:0.135534" /></g></svg>
