<?xml version="1.0" encoding="UTF-8" standalone="no"?>
<svg
   viewBox="0 0 128 128"
   version="1.1"
   id="svg15"
   sodipodi:docname="Phobias.svg"
   inkscape:version="1.2 (dc2aedaf03, 2022-05-15)"
   xml:space="preserve"
   xmlns:inkscape="http://www.inkscape.org/namespaces/inkscape"
   xmlns:sodipodi="http://sodipodi.sourceforge.net/DTD/sodipodi-0.dtd"
   xmlns="http://www.w3.org/2000/svg"
   xmlns:svg="http://www.w3.org/2000/svg"><sodipodi:namedview
   id="namedview17"
   pagecolor="#ffffff"
   bordercolor="#999999"
   borderopacity="1"
   inkscape:showpageshadow="0"
   inkscape:pageopacity="0"
   inkscape:pagecheckerboard="0"
   inkscape:deskcolor="#d1d1d1"
   showgrid="true"
   inkscape:zoom="3.411059"
   inkscape:cx="6.4496099"
   inkscape:cy="27.99717"
   inkscape:window-width="1920"
   inkscape:window-height="1001"
   inkscape:window-x="-9"
   inkscape:window-y="1341"
   inkscape:window-maximized="1"
   inkscape:current-layer="svg15"><inkscape:grid
     type="xygrid"
     id="grid1689" /></sodipodi:namedview><defs
   id="defs4"><style
     id="style2">.head { 
 }
 .mental-icon {
   fill: white;
 }
</style></defs><g
   id="Anxiety"
   inkscape:label="Head"><path
     d="m 109.45559,65.94924 -7.03833,-9.797509 a 4.2694678,4.2694678 0 0 1 -0.3098,-4.453413 c 0.87132,-1.74264 0.65833,-2.817268 0.65833,-8.432441 C 102.73675,20.931042 85.445885,0 57.689504,0 A 43.565998,43.565998 0 0 0 14.23,43.265877 c 0,8.7132 0.832595,16.506673 4.743853,25.878203 a 59.743506,59.743506 0 0 1 4.714809,26.623666 C 23.059376,107.4628 22.333276,122.74962 22.323594,122.87548 a 0.96934271,0.96934271 0 0 0 1.936267,0.0968 C 25.48939,95.622526 27.716097,85.098917 20.881076,68.737464 16.911729,59.230395 16.137223,51.833857 16.166267,43.275558 A 41.629732,41.629732 0 0 1 57.689504,1.9362666 c 26.381632,0 43.110976,19.7789634 43.110976,41.3296104 0,5.8088 0.14522,6.360636 -0.45502,7.561121 a 6.1960531,6.1960531 0 0 0 0.50343,6.399361 l 7.06737,9.845916 a 4.2113798,4.2113798 0 0 1 -2.5946,6.573625 l -5.673259,1.142397 a 0.9681333,0.9681333 0 0 0 -0.784188,0.968133 c 0,6.350955 -0.05809,6.09924 0.164582,6.438087 0.58088,0.861639 1.171445,1.771684 0.474386,3.078664 a 2.4493772,2.4493772 0 0 1 -2.236388,1.297298 h -7.309407 a 0.9681335,0.9681335 0 0 0 0,1.936267 h 5.431228 a 2.4881026,2.4881026 0 0 1 1.752322,4.250105 c -0.387254,0.396935 -0.280759,0.338847 -0.280759,6.312229 a 11.123852,11.123852 0 0 1 -11.11417,11.11417 c -2.071806,0 -2.120212,-0.16458 -15.199693,-3.87253 a 0.9681333,0.9681333 0 0 0 -1.229529,0.96813 v 15.67408 a 0.9681333,0.9681333 0 0 0 1.936266,0 V 108.4987 c 11.03672,3.15611 11.966128,3.62082 14.522,3.62082 A 13.0698,13.0698 0 0 0 98.825488,99.06908 v -5.256964 a 4.4050065,4.4050065 0 0 0 0,-5.586129 4.4340505,4.4340505 0 0 0 2.110532,-6.602669 c -0.27108,-0.396934 -0.19363,0.425979 -0.19363,-5.092381 l 4.89876,-0.968133 a 6.1476464,6.1476464 0 0 0 3.81444,-9.613564 z"
     id="path8"
     inkscape:label="Head Line"
     style="display:none;stroke-width:0.968133" /><path
     class="head"
     d="m 115.05264,65.120047 -7.03833,-9.797509 c -0.93294,-1.307946 -1.05266,-3.02889 -0.3098,-4.453413 0.87132,-1.74264 0.65833,-2.817268 0.65833,-8.432441 C 108.3338,20.101849 85.445885,0 57.689504,0 33.786926,0.05786164 11.077819,18.327304 10.913227,42.229385 c 0,8.7132 0.832595,16.506673 4.743853,25.878203 3.585503,8.397646 5.198407,17.505419 4.714809,26.623666 -0.629286,11.695056 -1.355386,26.981876 -1.365068,27.107736 8.127968,-14.14026 56.950637,16.57014 57.843284,0.2847 v -14.45418 c 11.03672,3.15611 11.966128,3.62082 14.522,3.62082 7.203137,-0.0107 13.039775,-5.8473 13.050435,-13.050443 v -5.256964 c 1.33161,-1.623973 1.33161,-3.962156 0,-5.586129 2.65948,-1.013507 3.68906,-4.234486 2.11053,-6.602669 -0.27108,-0.396934 -0.19363,0.425979 -0.19363,-5.092381 l 4.89876,-0.968133 c 4.39158,-0.860969 6.42106,-5.97587 3.81444,-9.613564 z"
     id="path956"
     inkscape:label="Head"
     style="display:inline;stroke-width:0.968133"
     sodipodi:nodetypes="ccccccccccccccccccc"
     sodipodi:insensitive="true" /></g>
       <g
   id="g597"
   class="mental-icon"
   inkscape:label="Icon"
   transform="matrix(1.7790052,0,0,1.7790052,-3.4820763,-33.603868)"><path
     d="m 28.113793,28.127874 a 0.8865178,0.8865178 0 0 1 -0.533157,-0.178016 c -4.038285,-3.028936 -6.623071,-8.20207 -6.586578,-13.179386 0.0036,-0.492214 0.366712,-0.867826 0.896308,-0.883848 a 0.89007811,0.89007811 0 0 1 0.883848,0.896309 c -0.03293,4.432589 2.273259,9.042303 5.874516,11.7428 a 0.89007811,0.89007811 0 0 1 -0.534937,1.602141 z"
     id="path6132"
     style="stroke-width:0.890078"
     transform="matrix(0.89007811,0,0,0.89007811,7.5609379,12.21108)" /><path
     d="m 29.004761,29.90803 c -0.33556,0 -8.253695,-0.08723 -11.498919,-7.660012 a 0.89007811,0.89007811 0 1 1 1.635963,-0.701382 c 2.788615,6.506471 9.575461,6.581238 9.862956,6.581238 a 0.89007811,0.89007811 0 0 1 0,1.780156 z"
     id="path6134"
     style="stroke-width:0.890078"
     transform="matrix(0.89007811,0,0,0.89007811,7.5609379,12.21108)" /><path
     d="m 18.323823,38.808811 a 0.89007811,0.89007811 0 0 1 -0.843794,-1.172233 c 1.235429,-3.706285 4.200279,-8.058767 11.312893,-7.736559 0.09079,0.0045 0.162884,0.008 0.211839,0.008 a 0.89007811,0.89007811 0 1 1 0,1.780156 c -0.06765,0 -0.166445,-0.0045 -0.291946,-0.0098 -4.816213,-0.210948 -8.029394,1.977754 -9.544307,6.521603 -0.124611,0.372942 -0.471742,0.608813 -0.844685,0.608813 z"
     id="path6136"
     style="stroke-width:0.890078"
     transform="matrix(0.89007811,0,0,0.89007811,7.5609379,12.21108)" /><path
     d="M 21.884136,45.039358 A 0.89007811,0.89007811 0 0 1 20.994058,44.14928 c 0,-4.000901 2.873172,-11.306662 7.552313,-14.113969 a 0.89008545,0.89008545 0 1 1 0.91589,1.526484 c -4.020483,2.412112 -6.688047,9.174035 -6.688047,12.587485 a 0.89007811,0.89007811 0 0 1 -0.890078,0.890078 z M 33.456041,28.127874 a 0.89007811,0.89007811 0 0 1 -0.534937,-1.602141 c 3.601256,-2.701387 5.907449,-7.310211 5.874516,-11.7428 a 0.89007811,0.89007811 0 0 1 0.882957,-0.896309 h 0.0071 a 0.89007811,0.89007811 0 0 1 0.890078,0.883848 c 0.03738,4.977316 -2.548293,10.15045 -6.586578,13.179386 -0.160214,0.120161 -0.34713,0.178016 -0.533157,0.178016 z"
     id="path6138"
     style="stroke-width:0.890078"
     transform="matrix(0.89007811,0,0,0.89007811,7.5609379,12.21108)" /><path
     d="m 32.565073,29.90803 a 0.89007811,0.89007811 0 1 1 0,-1.780156 c 0.287495,0 7.074341,-0.07477 9.862956,-6.581238 a 0.88957875,0.88957875 0 1 1 1.635073,0.701382 C 40.817877,29.820802 32.900633,29.90803 32.565073,29.90803 Z"
     id="path6140"
     style="stroke-width:0.890078"
     transform="matrix(0.89007811,0,0,0.89007811,7.5609379,12.21108)" /><path
     d="m 43.246011,38.808811 a 0.88918803,0.88918803 0 0 1 -0.843795,-0.608813 c -1.514912,-4.543849 -4.711183,-6.728101 -9.545197,-6.521603 -0.125501,0.0053 -0.2243,0.0098 -0.291946,0.0098 a 0.89007811,0.89007811 0 1 1 0,-1.780156 c 0.04895,0 0.121051,-0.0036 0.211839,-0.008 7.101933,-0.320428 10.078354,4.030274 11.312893,7.736559 a 0.89007811,0.89007811 0 0 1 -0.843794,1.172233 z"
     id="path6142"
     style="stroke-width:0.890078"
     transform="matrix(0.89007811,0,0,0.89007811,7.5609379,12.21108)" /><path
     d="M 39.685698,45.039358 A 0.89007811,0.89007811 0 0 1 38.79562,44.14928 c 0,-3.41345 -2.667564,-10.175373 -6.688937,-12.588375 a 0.89008545,0.89008545 0 1 1 0.91589,-1.526484 c 4.679141,2.808197 7.553203,10.113958 7.553203,14.114859 a 0.89007811,0.89007811 0 0 1 -0.890078,0.890078 z"
     id="path6144"
     style="stroke-width:0.890078"
     transform="matrix(0.89007811,0,0,0.89007811,7.5609379,12.21108)" /><ellipse
     cx="30.784918"
     cy="35.433636"
     rx="5.3404689"
     ry="6.0454102"
     id="ellipse6146"
     style="stroke-width:0.890078"
     transform="matrix(0.89007811,0,0,0.89007811,7.5609379,12.21108)" /><ellipse
     cx="30.784918"
     cy="28.127874"
     rx="3.5603125"
     ry="5.3404689"
     id="ellipse6148"
     style="stroke-width:0.890078"
     transform="matrix(0.89007811,0,0,0.89007811,7.5609379,12.21108)" /><path
     d="m 29.004761,25.45764 a 0.88740788,0.88740788 0 0 1 -0.629285,-0.260793 c -1.150871,-1.150871 -1.150871,-2.341796 -1.150871,-3.29952 a 0.89007811,0.89007811 0 0 1 1.780156,0 c 0,0.818872 0,1.411664 0.629285,2.040949 a 0.88918803,0.88918803 0 0 1 -0.629285,1.519364 z m 3.560312,0 a 0.88918803,0.88918803 0 0 1 -0.629285,-1.519364 c 0.629285,-0.629285 0.629285,-1.222077 0.629285,-2.040949 a 0.89007811,0.89007811 0 1 1 1.780156,0 c 0,0.957724 0,2.148649 -1.150871,3.29952 a 0.88740788,0.88740788 0 0 1 -0.629285,0.260793 z"
     id="path6150"
     style="stroke-width:0.890078"
     transform="matrix(0.89007811,0,0,0.89007811,7.5609379,12.21108)" /></g></svg>
