<?xml version="1.0" encoding="UTF-8" standalone="no"?>
<svg
   viewBox="0 0 128 128"
   version="1.1"
   id="svg15"
   sodipodi:docname="Somatization.svg"
   inkscape:version="1.2 (dc2aedaf03, 2022-05-15)"
   xml:space="preserve"
   xmlns:inkscape="http://www.inkscape.org/namespaces/inkscape"
   xmlns:sodipodi="http://sodipodi.sourceforge.net/DTD/sodipodi-0.dtd"
   xmlns="http://www.w3.org/2000/svg"
   xmlns:svg="http://www.w3.org/2000/svg"><sodipodi:namedview
   id="namedview17"
   pagecolor="#ffffff"
   bordercolor="#999999"
   borderopacity="1"
   inkscape:showpageshadow="0"
   inkscape:pageopacity="0"
   inkscape:pagecheckerboard="0"
   inkscape:deskcolor="#d1d1d1"
   showgrid="true"
   inkscape:zoom="3.411059"
   inkscape:cx="78.128229"
   inkscape:cy="43.534867"
   inkscape:window-width="1920"
   inkscape:window-height="1001"
   inkscape:window-x="-9"
   inkscape:window-y="1341"
   inkscape:window-maximized="1"
   inkscape:current-layer="g597"><inkscape:grid
     type="xygrid"
     id="grid1689" /></sodipodi:namedview><defs
   id="defs4"><style
     id="style2">.head { 
 }
 .mental-icon {
   fill: white;
 }
</style></defs><g
   id="Anxiety"
   inkscape:label="Head"><path
     d="m 109.45559,65.94924 -7.03833,-9.797509 a 4.2694678,4.2694678 0 0 1 -0.3098,-4.453413 c 0.87132,-1.74264 0.65833,-2.817268 0.65833,-8.432441 C 102.73675,20.931042 85.445885,0 57.689504,0 A 43.565998,43.565998 0 0 0 14.23,43.265877 c 0,8.7132 0.832595,16.506673 4.743853,25.878203 a 59.743506,59.743506 0 0 1 4.714809,26.623666 C 23.059376,107.4628 22.333276,122.74962 22.323594,122.87548 a 0.96934271,0.96934271 0 0 0 1.936267,0.0968 C 25.48939,95.622526 27.716097,85.098917 20.881076,68.737464 16.911729,59.230395 16.137223,51.833857 16.166267,43.275558 A 41.629732,41.629732 0 0 1 57.689504,1.9362666 c 26.381632,0 43.110976,19.7789634 43.110976,41.3296104 0,5.8088 0.14522,6.360636 -0.45502,7.561121 a 6.1960531,6.1960531 0 0 0 0.50343,6.399361 l 7.06737,9.845916 a 4.2113798,4.2113798 0 0 1 -2.5946,6.573625 l -5.673259,1.142397 a 0.9681333,0.9681333 0 0 0 -0.784188,0.968133 c 0,6.350955 -0.05809,6.09924 0.164582,6.438087 0.58088,0.861639 1.171445,1.771684 0.474386,3.078664 a 2.4493772,2.4493772 0 0 1 -2.236388,1.297298 h -7.309407 a 0.9681335,0.9681335 0 0 0 0,1.936267 h 5.431228 a 2.4881026,2.4881026 0 0 1 1.752322,4.250105 c -0.387254,0.396935 -0.280759,0.338847 -0.280759,6.312229 a 11.123852,11.123852 0 0 1 -11.11417,11.11417 c -2.071806,0 -2.120212,-0.16458 -15.199693,-3.87253 a 0.9681333,0.9681333 0 0 0 -1.229529,0.96813 v 15.67408 a 0.9681333,0.9681333 0 0 0 1.936266,0 V 108.4987 c 11.03672,3.15611 11.966128,3.62082 14.522,3.62082 A 13.0698,13.0698 0 0 0 98.825488,99.06908 v -5.256964 a 4.4050065,4.4050065 0 0 0 0,-5.586129 4.4340505,4.4340505 0 0 0 2.110532,-6.602669 c -0.27108,-0.396934 -0.19363,0.425979 -0.19363,-5.092381 l 4.89876,-0.968133 a 6.1476464,6.1476464 0 0 0 3.81444,-9.613564 z"
     id="path8"
     inkscape:label="Head Line"
     style="display:none;stroke-width:0.968133" /><path
     class="head"
     d="m 115.05264,65.120047 -7.03833,-9.797509 c -0.93294,-1.307946 -1.05266,-3.02889 -0.3098,-4.453413 0.87132,-1.74264 0.65833,-2.817268 0.65833,-8.432441 C 108.3338,20.101849 85.445885,0 57.689504,0 33.786926,0.05786164 11.077819,18.327304 10.913227,42.229385 c 0,8.7132 0.832595,16.506673 4.743853,25.878203 3.585503,8.397646 5.198407,17.505419 4.714809,26.623666 -0.629286,11.695056 -1.355386,26.981876 -1.365068,27.107736 8.127968,-14.14026 56.950637,16.57014 57.843284,0.2847 v -14.45418 c 11.03672,3.15611 11.966128,3.62082 14.522,3.62082 7.203137,-0.0107 13.039775,-5.8473 13.050435,-13.050443 v -5.256964 c 1.33161,-1.623973 1.33161,-3.962156 0,-5.586129 2.65948,-1.013507 3.68906,-4.234486 2.11053,-6.602669 -0.27108,-0.396934 -0.19363,0.425979 -0.19363,-5.092381 l 4.89876,-0.968133 c 4.39158,-0.860969 6.42106,-5.97587 3.81444,-9.613564 z"
     id="path956"
     inkscape:label="Head"
     style="display:inline;stroke-width:0.968133"
     sodipodi:nodetypes="ccccccccccccccccccc" /></g>
       <g
   id="g597"
   class="mental-icon"
   inkscape:label="Icon"
   transform="matrix(1.1234969,0,0,1.1234969,-8.4946903,-13.71911)"><path
     class="cls-1"
     d="m 85.826096,56.100537 c 8.0107,-0.142413 11.09927,-3.204282 4.5394,-9.043194 2.53672,-9.550538 -0.89008,-17.952875 -10.90346,-19.884345 A 12.291979,12.291979 0 0 0 75.456684,22.669203 C 69.70678,18.815165 56.48912,17.141818 43.663094,28.160985 33.872235,36.590025 31.53133,44.084482 33.623013,47.742703 c 2.216295,3.907443 7.458855,2.536723 11.482008,0.890078 a 16.724568,16.724568 0 0 1 -2.16289,4.548299 c -6.186043,0.996888 -13.707203,4.236772 -12.220772,10.164693 1.014689,4.076557 3.871839,5.830011 8.188718,4.156664 5.135751,4.183367 22.367663,4.236772 32.194125,-5.545186 5.625294,0.872276 10.111284,-0.08011 14.721894,-5.856714 z m -0.89008,-1.780157 a 37.579098,37.579098 0 0 1 -7.672473,-0.890078 40.053515,40.053515 0 0 0 3.711623,-10.680937 49.256923,49.256923 0 0 1 7.36095,4.931033 23.195436,23.195436 0 0 1 -3.3912,6.639982 z m -9.434828,-1.344017 c -5.340468,-1.530935 -7.254136,-3.649321 -13.164255,-9.265714 4.646208,-3.453503 9.870966,-3.845137 16.955993,-1.628843 a 37.952931,37.952931 0 0 1 -3.782837,10.894557 z m 16.644458,-0.623055 c 0,1.344018 -3.64932,1.780156 -5.00224,1.904767 a 24.557255,24.557255 0 0 0 2.67024,-5.340469 c 1.37072,1.317316 2.3409,2.554525 2.3409,3.435702 z m -3.30219,-6.559876 a 48.464753,48.464753 0 0 0 -7.56566,-4.868727 24.744171,24.744171 0 0 0 -0.89008,-11.722329 c 7.85049,2.153989 10.1914,8.936384 8.46464,16.591056 z M 78.269331,28.775139 c 1.584335,3.471304 1.780155,7.734778 1.299515,11.571015 -7.663573,-2.340905 -13.431279,-1.780156 -18.531427,2.16289 -1.157102,-1.076995 -2.305302,-2.109485 -3.444602,-3.035166 1.308415,-1.602141 2.367607,-3.088571 3.560312,-4.610605 3.667122,-4.592803 10.627533,-7.031617 17.116202,-6.088134 z M 47.116597,47.82281 a 28.010758,28.010758 0 0 0 9.363622,-7.040518 c 1.050292,0.890079 2.127287,1.780157 3.222083,2.83935 -3.391198,3.088571 -5.073445,6.230546 -7.467756,9.452629 a 31.063726,31.063726 0 0 0 -7.040517,-0.106809 15.425054,15.425054 0 0 0 1.886965,-5.144652 z m 1.370721,-9.310217 c 1.780156,-1.780156 4.512696,-0.302626 6.577677,1.183804 a 26.586633,26.586633 0 0 1 -7.841588,6.061432 c -0.06231,-3.248785 -1.281713,-4.690712 1.228308,-7.245236 z m -3.702725,-9.016491 c 11.571015,-9.879867 27.022771,-10.449517 32.407744,-2.670234 -6.702288,-0.525146 -13.635997,2.136187 -17.401027,6.8447 -1.228308,1.530935 -2.340906,3.088571 -3.560313,4.637307 -3.391197,-2.465516 -6.542074,-3.560312 -8.989789,-1.094796 -3.462404,3.462404 -1.548736,5.847813 -1.780156,9.372523 -15.149129,6.675586 -13.538088,-6.043631 -0.676459,-17.0895 z M 32.412507,62.989741 c -1.059193,-4.245672 4.761918,-6.675586 9.00759,-7.645771 -1.913667,2.50112 -6.310653,6.746792 -3.800633,10.805549 -2.919456,0.890078 -4.503795,-0.33823 -5.206957,-3.159778 z M 43.983522,54.88113 a 30.262656,30.262656 0 0 1 6.996014,-0.169115 c -4.094359,5.189155 -8.295528,9.043193 -11.677824,10.752143 -2.332005,-3.186479 2.17179,-6.942609 4.655108,-10.583028 z m -3.284388,11.829138 c 3.738328,-2.064981 8.073009,-6.159341 12.274177,-11.695627 6.95151,1.335118 9.630645,5.055644 15.9502,6.595479 -8.215421,7.449954 -22.999618,8.375635 -28.224377,5.100148 z M 70.445545,60.12369 c -6.550975,-1.210506 -9.132202,-5.037842 -16.306231,-6.684487 1.878064,-2.607929 3.702725,-5.785508 6.826899,-8.589254 6.461967,6.15044 8.420139,8.153116 13.653798,9.719653 a 31.811392,31.811392 0 0 1 -4.174466,5.554088 z m 13.075251,-4.058756 c -3.74723,4.076557 -6.933712,4.690711 -10.939064,4.343581 6.826904,-7.868291 -0.195817,-4.904331 10.939064,-4.343581 z"
     id="path7835" /></g></svg>
