<?xml version="1.0" encoding="UTF-8" standalone="no"?>
<svg
   viewBox="0 0 128 128"
   version="1.1"
   id="svg15"
   sodipodi:docname="Suffering.svg"
   inkscape:version="1.2 (dc2aedaf03, 2022-05-15)"
   xml:space="preserve"
   xmlns:inkscape="http://www.inkscape.org/namespaces/inkscape"
   xmlns:sodipodi="http://sodipodi.sourceforge.net/DTD/sodipodi-0.dtd"
   xmlns="http://www.w3.org/2000/svg"
   xmlns:svg="http://www.w3.org/2000/svg"><sodipodi:namedview
   id="namedview17"
   pagecolor="#ffffff"
   bordercolor="#999999"
   borderopacity="1"
   inkscape:showpageshadow="0"
   inkscape:pageopacity="0"
   inkscape:pagecheckerboard="0"
   inkscape:deskcolor="#d1d1d1"
   showgrid="true"
   inkscape:zoom="3.411059"
   inkscape:cx="88.828719"
   inkscape:cy="43.534867"
   inkscape:window-width="1920"
   inkscape:window-height="1001"
   inkscape:window-x="-9"
   inkscape:window-y="1341"
   inkscape:window-maximized="1"
   inkscape:current-layer="g597"><inkscape:grid
     type="xygrid"
     id="grid1689" /></sodipodi:namedview><defs
   id="defs4"><style
     id="style2">.head { 
 }
 .mental-icon {
   fill: white;
 }
</style></defs><g
   id="Anxiety"
   inkscape:label="Head"><path
     d="m 109.45559,65.94924 -7.03833,-9.797509 a 4.2694678,4.2694678 0 0 1 -0.3098,-4.453413 c 0.87132,-1.74264 0.65833,-2.817268 0.65833,-8.432441 C 102.73675,20.931042 85.445885,0 57.689504,0 A 43.565998,43.565998 0 0 0 14.23,43.265877 c 0,8.7132 0.832595,16.506673 4.743853,25.878203 a 59.743506,59.743506 0 0 1 4.714809,26.623666 C 23.059376,107.4628 22.333276,122.74962 22.323594,122.87548 a 0.96934271,0.96934271 0 0 0 1.936267,0.0968 C 25.48939,95.622526 27.716097,85.098917 20.881076,68.737464 16.911729,59.230395 16.137223,51.833857 16.166267,43.275558 A 41.629732,41.629732 0 0 1 57.689504,1.9362666 c 26.381632,0 43.110976,19.7789634 43.110976,41.3296104 0,5.8088 0.14522,6.360636 -0.45502,7.561121 a 6.1960531,6.1960531 0 0 0 0.50343,6.399361 l 7.06737,9.845916 a 4.2113798,4.2113798 0 0 1 -2.5946,6.573625 l -5.673259,1.142397 a 0.9681333,0.9681333 0 0 0 -0.784188,0.968133 c 0,6.350955 -0.05809,6.09924 0.164582,6.438087 0.58088,0.861639 1.171445,1.771684 0.474386,3.078664 a 2.4493772,2.4493772 0 0 1 -2.236388,1.297298 h -7.309407 a 0.9681335,0.9681335 0 0 0 0,1.936267 h 5.431228 a 2.4881026,2.4881026 0 0 1 1.752322,4.250105 c -0.387254,0.396935 -0.280759,0.338847 -0.280759,6.312229 a 11.123852,11.123852 0 0 1 -11.11417,11.11417 c -2.071806,0 -2.120212,-0.16458 -15.199693,-3.87253 a 0.9681333,0.9681333 0 0 0 -1.229529,0.96813 v 15.67408 a 0.9681333,0.9681333 0 0 0 1.936266,0 V 108.4987 c 11.03672,3.15611 11.966128,3.62082 14.522,3.62082 A 13.0698,13.0698 0 0 0 98.825488,99.06908 v -5.256964 a 4.4050065,4.4050065 0 0 0 0,-5.586129 4.4340505,4.4340505 0 0 0 2.110532,-6.602669 c -0.27108,-0.396934 -0.19363,0.425979 -0.19363,-5.092381 l 4.89876,-0.968133 a 6.1476464,6.1476464 0 0 0 3.81444,-9.613564 z"
     id="path8"
     inkscape:label="Head Line"
     style="display:none;stroke-width:0.968133" /><path
     class="head"
     d="m 115.05264,65.120047 -7.03833,-9.797509 c -0.93294,-1.307946 -1.05266,-3.02889 -0.3098,-4.453413 0.87132,-1.74264 0.65833,-2.817268 0.65833,-8.432441 C 108.3338,20.101849 85.445885,0 57.689504,0 33.786926,0.05786164 11.077819,18.327304 10.913227,42.229385 c 0,8.7132 0.832595,16.506673 4.743853,25.878203 3.585503,8.397646 5.198407,17.505419 4.714809,26.623666 -0.629286,11.695056 -1.355386,26.981876 -1.365068,27.107736 8.127968,-14.14026 56.950637,16.57014 57.843284,0.2847 v -14.45418 c 11.03672,3.15611 11.966128,3.62082 14.522,3.62082 7.203137,-0.0107 13.039775,-5.8473 13.050435,-13.050443 v -5.256964 c 1.33161,-1.623973 1.33161,-3.962156 0,-5.586129 2.65948,-1.013507 3.68906,-4.234486 2.11053,-6.602669 -0.27108,-0.396934 -0.19363,0.425979 -0.19363,-5.092381 l 4.89876,-0.968133 c 4.39158,-0.860969 6.42106,-5.97587 3.81444,-9.613564 z"
     id="path956"
     inkscape:label="Head"
     style="display:inline;stroke-width:0.968133"
     sodipodi:nodetypes="ccccccccccccccccccc" /></g>
       <g
   id="g597"
   class="mental-icon"
   inkscape:label="Icon"
   transform="matrix(1.1234969,0,0,1.1234969,-8.4946903,-13.71911)"><path
     d="m 72.46461,37.178094 3.612734,-2.171768 -5.321867,-0.07146 v -4.719968 l 7.782614,3.023878 1.587556,2.735076 -5.253619,2.29799 c 0,0 6.348346,0 6.675916,0 0.329177,-9e-5 0.657194,5.472029 0.657194,5.472029 h -6.346739 z"
     id="path7442"
     style="stroke-width:0.089329" /><polygon
     points="78.178,286.428 121.056,269.273 53.662,222.98 1.6,222.98 "
     id="polygon7444"
     transform="matrix(-0.08932904,0,0,0.08932904,82.205138,25.192281)" /><polygon
     points="178.858,276.28 227.861,295.268 222.968,314.266 184.995,302.005 123.736,276.28 99.232,289.756 99.232,331.408 137.211,357.133 254.818,357.133 276.864,308.136 251.758,276.748 322.195,279.959 290.807,309.816 327.099,311.195 373.656,293.434 406.562,321.763 479.322,321.33 485.534,252.833 406.737,255.448 400.594,275.043 428.784,288.529 388.357,283.625 403.059,245.651 491.255,239.533 454.497,177.054 385.881,227.271 320.968,207.677 256.043,245.651 182.542,243.199 "
     id="polygon7446"
     transform="matrix(-0.08932904,0,0,0.08932904,82.205138,25.192281)" /><path
     d="m 62.62716,59.064066 -5.924838,6.183445 -3.283646,-1.531278 5.049592,-5.63693 c 0,0 3.393164,0.984763 4.158892,0.984763 z"
     id="path7448"
     style="stroke-width:0.089329" /><polygon
     points="275.031,356.678 311.779,389.746 394.616,371.215 394.616,323.596 288.04,323.596 "
     id="polygon7450"
     transform="matrix(-0.08932904,0,0,0.08932904,82.205138,25.192281)" /><polygon
     points="352.847,146.834 356.502,55.77 295.244,45.879 249.3,115.183 302.904,131.963 300.148,186.845 321.003,194.617 "
     id="polygon7452"
     transform="matrix(-0.08932904,0,0,0.08932904,82.205138,25.192281)" /><polygon
     points="452.043,150.086 390.809,85.173 373.656,101.41 376.096,143.36 356.502,168.466 356.502,201.541 390.809,201.541 "
     id="polygon7454"
     transform="matrix(-0.08932904,0,0,0.08932904,82.205138,25.192281)" /><polygon
     points="193.565,221.153 269.519,216.249 281.768,181.953 281.768,144.002 222.968,125.587 242.568,97.737 266.459,60.05 229.233,43.515 150.232,42.855 149.297,118.546 212.552,156.222 193.565,164.799 130.013,143.36 118.832,164.799 135.057,177.054 129.855,195.417 99.232,185.018 77.792,222.98 128.173,259.127 165.383,244.507 179.291,201.541 193.565,207.677 "
     id="polygon7456"
     transform="matrix(-0.08932904,0,0,0.08932904,82.205138,25.192281)" /><polygon
     points="147.983,0 62.519,196 147.983,196 62.519,392 329.481,136 244.017,136 303.319,0 "
     id="polygon337"
     transform="matrix(0.02798753,0,0,0.02798753,55.567865,16.641204)" /><polygon
     points="62.519,392 329.481,136 244.017,136 303.319,0 147.983,0 62.519,196 147.983,196 "
     id="polygon7741"
     transform="matrix(0,0.02798753,-0.02798753,0,95.24226,41.169464)" /><polygon
     points="303.319,0 147.983,0 62.519,196 147.983,196 62.519,392 329.481,136 244.017,136 "
     id="polygon7743"
     transform="matrix(-0.02798753,0,0,-0.02798753,63.929588,78.495409)" /><polygon
     points="147.983,196 62.519,392 329.481,136 244.017,136 303.319,0 147.983,0 62.519,196 "
     id="polygon7745"
     transform="matrix(0,-0.02798753,0.02798753,0,25.298949,52.662455)" /><polygon
     points="303.319,0 147.983,0 62.519,196 147.983,196 62.519,392 329.481,136 244.017,136 "
     id="polygon7747"
     transform="matrix(0.01979017,-0.01979017,0.01979017,0.01979017,32.15962,27.606479)" /><polygon
     points="147.983,196 62.519,392 329.481,136 244.017,136 303.319,0 147.983,0 62.519,196 "
     id="polygon7771"
     transform="matrix(0.02680335,0.00805493,-0.00805493,0.02680335,81.507771,22.396655)" /><polygon
     points="329.481,136 244.017,136 303.319,0 147.983,0 62.519,196 147.983,196 62.519,392 "
     id="polygon7773"
     transform="matrix(-0.01342858,0.02455554,-0.02455554,-0.01342858,86.270235,59.647975)" /><polygon
     points="147.983,0 62.519,196 147.983,196 62.519,392 329.481,136 244.017,136 303.319,0 "
     id="polygon7775"
     transform="matrix(-0.02466679,-0.01322312,0.01322312,-0.02466679,39.944393,71.11037)" /></g></svg>
