<?xml version="1.0" encoding="UTF-8" standalone="no"?>
<svg
   viewBox="0 0 128 128"
   version="1.1"
   id="svg15"
   sodipodi:docname="TraumaticEvents.svg"
   inkscape:version="1.2 (dc2aedaf03, 2022-05-15)"
   xml:space="preserve"
   xmlns:inkscape="http://www.inkscape.org/namespaces/inkscape"
   xmlns:sodipodi="http://sodipodi.sourceforge.net/DTD/sodipodi-0.dtd"
   xmlns="http://www.w3.org/2000/svg"
   xmlns:svg="http://www.w3.org/2000/svg"><sodipodi:namedview
   id="namedview17"
   pagecolor="#ffffff"
   bordercolor="#999999"
   borderopacity="1"
   inkscape:showpageshadow="0"
   inkscape:pageopacity="0"
   inkscape:pagecheckerboard="0"
   inkscape:deskcolor="#d1d1d1"
   showgrid="true"
   inkscape:zoom="3.411059"
   inkscape:cx="30.782229"
   inkscape:cy="29.462991"
   inkscape:window-width="1920"
   inkscape:window-height="1001"
   inkscape:window-x="-9"
   inkscape:window-y="1341"
   inkscape:window-maximized="1"
   inkscape:current-layer="g597"><inkscape:grid
     type="xygrid"
     id="grid1689" /></sodipodi:namedview><defs
   id="defs4"><style
     id="style2">.head { 
 }
 .mental-icon {
   fill: white;
 }
</style></defs><g
   id="Anxiety"
   inkscape:label="Head"><path
     d="m 109.45559,65.94924 -7.03833,-9.797509 a 4.2694678,4.2694678 0 0 1 -0.3098,-4.453413 c 0.87132,-1.74264 0.65833,-2.817268 0.65833,-8.432441 C 102.73675,20.931042 85.445885,0 57.689504,0 A 43.565998,43.565998 0 0 0 14.23,43.265877 c 0,8.7132 0.832595,16.506673 4.743853,25.878203 a 59.743506,59.743506 0 0 1 4.714809,26.623666 C 23.059376,107.4628 22.333276,122.74962 22.323594,122.87548 a 0.96934271,0.96934271 0 0 0 1.936267,0.0968 C 25.48939,95.622526 27.716097,85.098917 20.881076,68.737464 16.911729,59.230395 16.137223,51.833857 16.166267,43.275558 A 41.629732,41.629732 0 0 1 57.689504,1.9362666 c 26.381632,0 43.110976,19.7789634 43.110976,41.3296104 0,5.8088 0.14522,6.360636 -0.45502,7.561121 a 6.1960531,6.1960531 0 0 0 0.50343,6.399361 l 7.06737,9.845916 a 4.2113798,4.2113798 0 0 1 -2.5946,6.573625 l -5.673259,1.142397 a 0.9681333,0.9681333 0 0 0 -0.784188,0.968133 c 0,6.350955 -0.05809,6.09924 0.164582,6.438087 0.58088,0.861639 1.171445,1.771684 0.474386,3.078664 a 2.4493772,2.4493772 0 0 1 -2.236388,1.297298 h -7.309407 a 0.9681335,0.9681335 0 0 0 0,1.936267 h 5.431228 a 2.4881026,2.4881026 0 0 1 1.752322,4.250105 c -0.387254,0.396935 -0.280759,0.338847 -0.280759,6.312229 a 11.123852,11.123852 0 0 1 -11.11417,11.11417 c -2.071806,0 -2.120212,-0.16458 -15.199693,-3.87253 a 0.9681333,0.9681333 0 0 0 -1.229529,0.96813 v 15.67408 a 0.9681333,0.9681333 0 0 0 1.936266,0 V 108.4987 c 11.03672,3.15611 11.966128,3.62082 14.522,3.62082 A 13.0698,13.0698 0 0 0 98.825488,99.06908 v -5.256964 a 4.4050065,4.4050065 0 0 0 0,-5.586129 4.4340505,4.4340505 0 0 0 2.110532,-6.602669 c -0.27108,-0.396934 -0.19363,0.425979 -0.19363,-5.092381 l 4.89876,-0.968133 a 6.1476464,6.1476464 0 0 0 3.81444,-9.613564 z"
     id="path8"
     inkscape:label="Head Line"
     style="display:none;stroke-width:0.968133" /><path
     class="head"
     d="m 115.05264,65.120047 -7.03833,-9.797509 c -0.93294,-1.307946 -1.05266,-3.02889 -0.3098,-4.453413 0.87132,-1.74264 0.65833,-2.817268 0.65833,-8.432441 C 108.3338,20.101849 85.445885,0 57.689504,0 33.786926,0.05786164 11.077819,18.327304 10.913227,42.229385 c 0,8.7132 0.832595,16.506673 4.743853,25.878203 3.585503,8.397646 5.198407,17.505419 4.714809,26.623666 -0.629286,11.695056 -1.355386,26.981876 -1.365068,27.107736 8.127968,-14.14026 56.950637,16.57014 57.843284,0.2847 v -14.45418 c 11.03672,3.15611 11.966128,3.62082 14.522,3.62082 7.203137,-0.0107 13.039775,-5.8473 13.050435,-13.050443 v -5.256964 c 1.33161,-1.623973 1.33161,-3.962156 0,-5.586129 2.65948,-1.013507 3.68906,-4.234486 2.11053,-6.602669 -0.27108,-0.396934 -0.19363,0.425979 -0.19363,-5.092381 l 4.89876,-0.968133 c 4.39158,-0.860969 6.42106,-5.97587 3.81444,-9.613564 z"
     id="path956"
     inkscape:label="Head"
     style="display:inline;stroke-width:0.968133"
     sodipodi:nodetypes="ccccccccccccccccccc" /></g>
       <g
   id="g597"
   class="mental-icon"
   inkscape:label="Icon"
   transform="matrix(1.1234969,0,0,1.1234969,-8.4946903,-13.71911)"><path
     d="m 55.134062,24.95074 c 1.022185,-1.017752 2.431384,-1.648495 3.988296,-1.648495 1.556914,0 2.967588,0.629264 3.988296,1.648495 l 0.726757,0.726757 c 1.017753,1.022186 1.648496,2.431383 1.648496,3.988297 0,1.556912 -0.629266,2.967587 -1.648496,3.988296 l -3.156662,3.156661 1.237848,1.239327 3.158139,-3.15814 c 1.335342,-1.336818 2.162543,-3.183251 2.162543,-5.22319 0,-2.03994 -0.825724,-3.886374 -2.162543,-5.223191 L 64.349981,23.7188 c -1.336818,-1.336816 -3.183252,-2.162542 -5.223192,-2.162542 -2.039938,0 -3.886372,0.827203 -5.22319,2.162542 l -3.15814,3.15814 1.23785,1.239327 z"
     id="path5193"
     style="stroke-width:1.47715" /><path
     d="m 47.036344,50.458109 -3.158139,3.15814 c -1.022186,1.019231 -2.431383,1.648495 -3.988297,1.648495 -1.556912,0 -2.967587,-0.629264 -3.988296,-1.648495 l -0.726755,-0.725278 c -1.017755,-1.022186 -1.647019,-2.431385 -1.647019,-3.988297 0,-1.556912 0.629264,-2.96611 1.648496,-3.989773 l 3.156662,-3.156662 -1.23785,-1.239327 -3.158139,3.158139 c -1.336817,1.336819 -2.162542,3.183253 -2.162542,5.223192 0,2.03994 0.827202,3.886372 2.162542,5.223191 l 0.726757,0.725278 c 1.336818,1.336818 3.183251,2.164021 5.22319,2.164021 2.03994,0 3.886374,-0.827203 5.223191,-2.164021 l 3.158139,-3.15814 z"
     id="path5195"
     style="stroke-width:1.47715" /><path
     d="m 65.076736,43.675051 -19.95182,-19.95182 c -1.336818,-1.336816 -3.18325,-2.164019 -5.22319,-2.164019 -2.03994,0 -3.886374,0.827203 -5.22319,2.164019 l -0.726757,0.72528 c -1.336817,1.336817 -2.162542,3.183251 -2.162542,5.223191 0,2.039939 0.827202,3.886372 2.162542,5.22319 l 19.95182,19.950343 c 1.336818,1.336818 3.183252,2.164021 5.22319,2.164021 2.03994,0 3.886374,-0.827203 5.223192,-2.164021 l 0.726755,-0.726755 c 1.330909,-1.338296 2.155158,-3.18473 2.155158,-5.223191 0,-2.038462 -0.82277,-3.883419 -2.155158,-5.223192 z m -25.507369,-5.629404 -4.390079,-4.39008 c -1.017755,-1.022186 -1.648496,-2.431384 -1.648496,-3.988296 0,-1.556914 0.629264,-2.967588 1.648496,-3.988297 l 0.726757,-0.72528 c 1.022185,-1.017752 2.431382,-1.648495 3.988294,-1.648495 1.556914,0 2.967588,0.629266 3.988297,1.648495 l 4.390079,4.390082 z m 24.266566,14.834983 -0.726756,0.726757 c -1.022185,1.017753 -2.431384,1.647018 -3.988296,1.647018 -1.556912,0 -2.967588,-0.629265 -3.989773,-1.648495 l -4.39008,-4.388603 8.706302,-8.706303 4.390081,4.390079 c 1.020709,1.022186 1.652927,2.434339 1.652927,3.994206 0,1.559866 -0.632218,2.970542 -1.652927,3.994205 z"
     id="path5197"
     style="stroke-width:1.47715" /><path
     d="m 45.452842,30.524015 c 0.15215,-0.150672 0.245207,-0.358946 0.245207,-0.587904 0,-0.456438 -0.370763,-0.827203 -0.827201,-0.827203 -0.45644,0 -0.827203,0.370765 -0.827203,0.827203 0,0.230435 0.09453,0.438712 0.245207,0.587904 0.147718,0.150673 0.354515,0.24373 0.581996,0.24373 0.22748,0 0.432802,-0.09305 0.581994,-0.24373 z"
     id="path5199"
     style="stroke-width:1.47715" /><path
     d="m 39.581185,24.652358 c -0.152149,0.150672 -0.245206,0.358947 -0.245206,0.587904 0,0.456438 0.370764,0.827201 0.827202,0.827201 0.456438,0 0.827201,-0.370763 0.827201,-0.827201 0,-0.230436 -0.09453,-0.438714 -0.245206,-0.587904 -0.149195,-0.147718 -0.354514,-0.239298 -0.581995,-0.239298 -0.22748,0 -0.432804,0.09159 -0.581996,0.239298 z"
     id="path5201"
     style="stroke-width:1.47715" /><path
     d="m 39.581185,34.061781 c -0.152149,0.150673 -0.245206,0.358947 -0.245206,0.587905 0,0.456438 0.370764,0.827202 0.827202,0.827202 0.456438,0 0.827201,-0.370764 0.827201,-0.827202 0,-0.230435 -0.09453,-0.438713 -0.245206,-0.587905 -0.149195,-0.147718 -0.354514,-0.239298 -0.581995,-0.239298 -0.22748,0 -0.432804,0.09159 -0.581996,0.239298 z"
     id="path5203"
     style="stroke-width:1.47715" /><path
     d="m 34.872042,29.352638 c -0.15215,0.150672 -0.245207,0.358946 -0.245207,0.587904 0,0.456438 0.370765,0.827203 0.827203,0.827203 0.456438,0 0.827201,-0.370765 0.827201,-0.827203 0,-0.230435 -0.09455,-0.438712 -0.245207,-0.587904 -0.149195,-0.147718 -0.354514,-0.239299 -0.581994,-0.239299 -0.227481,0 -0.431327,0.09158 -0.581996,0.239299 z"
     id="path5205"
     style="stroke-width:1.47715" /><path
     d="m 40.740745,30.534356 c 0.152149,-0.150672 0.245206,-0.358947 0.245206,-0.587904 0,-0.45644 -0.370763,-0.827203 -0.827202,-0.827203 -0.456438,0 -0.827201,0.370763 -0.827201,0.827203 0,0.230434 0.09453,0.438712 0.245206,0.587904 0.149195,0.147718 0.354514,0.239297 0.581995,0.239297 0.22748,0 0.432804,-0.09159 0.581996,-0.239297 z"
     id="path5207"
     style="stroke-width:1.47715" /><path
     d="m 64.154997,48.053315 c -0.150673,-0.152149 -0.358947,-0.245207 -0.587905,-0.245207 -0.456438,0 -0.827202,0.370765 -0.827202,0.827203 0,0.456438 0.370764,0.827201 0.827202,0.827201 0.230435,0 0.438713,-0.09455 0.587905,-0.245205 0.147718,-0.149195 0.239298,-0.354515 0.239298,-0.581996 0,-0.22748 -0.09159,-0.432804 -0.239298,-0.581996 z"
     id="path5209"
     style="stroke-width:1.47715" /><path
     d="m 58.271522,43.344171 c -0.15215,0.150673 -0.245207,0.358947 -0.245207,0.587905 0,0.456438 0.370765,0.827202 0.827203,0.827202 0.456438,0 0.827202,-0.370764 0.827202,-0.827202 0,-0.230435 -0.09453,-0.438713 -0.245206,-0.587905 -0.149195,-0.147718 -0.354516,-0.239298 -0.581996,-0.239298 -0.227481,0 -0.432804,0.09159 -0.581996,0.239298 z"
     id="path5211"
     style="stroke-width:1.47715" /><path
     d="m 58.271522,52.753596 c -0.15215,0.150673 -0.245207,0.358947 -0.245207,0.587905 0,0.456438 0.370765,0.8272 0.827203,0.8272 0.456438,0 0.827202,-0.370762 0.827202,-0.8272 0,-0.230437 -0.09453,-0.438714 -0.245206,-0.587905 -0.149195,-0.147718 -0.354516,-0.239298 -0.581996,-0.239298 -0.227481,0 -0.432804,0.09159 -0.581996,0.239298 z"
     id="path5213"
     style="stroke-width:1.47715" /><path
     d="m 53.572719,48.053315 c -0.15215,0.150672 -0.245207,0.358947 -0.245207,0.587904 0,0.456438 0.370763,0.827203 0.827203,0.827203 0.456438,0 0.827201,-0.370765 0.827201,-0.827203 0,-0.230434 -0.09453,-0.438712 -0.245207,-0.587904 -0.149195,-0.147718 -0.354514,-0.239298 -0.581994,-0.239298 -0.227482,0 -0.432804,0.09159 -0.581996,0.239298 z"
     id="path5215"
     style="stroke-width:1.47715" /><path
     d="m 59.434037,49.227646 c 0.152149,-0.150672 0.245206,-0.358946 0.245206,-0.587904 0,-0.456438 -0.370764,-0.827202 -0.827202,-0.827202 -0.456438,0 -0.827203,0.370764 -0.827203,0.827202 0,0.230435 0.09455,0.438712 0.245206,0.587904 0.149196,0.147719 0.354516,0.239299 0.581997,0.239299 0.22748,0 0.432804,-0.09159 0.581996,-0.239299 z"
     id="path5217"
     style="stroke-width:1.47715" /><path
     class="stone_een"
     d="m 85.104588,72.217135 c 0,0.196321 -0.15998,0.3563 -0.3563,0.3563 -0.19632,0 -0.3563,-0.159979 -0.3563,-0.3563 0,-0.196321 0.15998,-0.3563 0.3563,-0.3563 0.19632,0 0.3563,0.159979 0.3563,0.3563 z m 5.700791,1.781497 c 0,2.366541 -2.097891,4.243526 -4.535338,3.872262 -1.992067,-0.303211 -3.37558,-2.041952 -3.299687,-4.055756 0.103326,-2.741011 2.493385,-4.820731 3.487817,-5.570385 0.254039,-0.191689 0.601789,-0.190264 0.855116,0.0021 1.015812,0.771744 3.492092,2.941251 3.492092,5.751741 z m -5.344491,-1.781497 c 0,-0.393711 -0.318888,-0.712599 -0.7126,-0.712599 -0.393712,0 -0.7126,0.318888 -0.7126,0.712599 0,0.393711 0.318888,0.712599 0.7126,0.712599 0.393712,0 0.7126,-0.318888 0.7126,-0.712599 z"
     id="path5469"
     style="stroke-width:0.356299;" /></g></svg>
